<svg viewBox="0 0 400 41" xmlns="http://www.w3.org/2000/svg" xmlns:xlink="http://www.w3.org/1999/xlink"><linearGradient id="a" x1="-.799%" x2="100.073%" y1="49.487%" y2="50.542%"><stop offset="0" stop-color="#3f2870"/><stop offset="1" stop-color="#9377d1"/></linearGradient><path d="m51.5801386 1.50895857c-2.0925166 1.00615901-3.6933088 2.35442329-4.8057716 4.0431131-1.1130288 1.68980963-1.6686943 3.54031355-1.6686943 5.55207163 0 2.5823069.6037629 4.6511758 1.8124204 6.2071669 1.2092234 1.5571109 2.637431 2.7049272 4.2874522 3.4445689 1.6488896.7407614 3.8364691 1.5095184 6.5610412 2.3068309 1.9940586.5319149 3.5575046 1.024636 4.6903381 1.480963 1.1311359.4552072 2.0710143 1.0632699 2.819635 1.8219485.7480549.7592385 1.1220824 1.7469205 1.1220824 2.9608063 0 1.6713326-.7197624 3.0851064-2.1581554 4.2430011-1.438393 1.1584546-3.4052907 1.7362822-5.8989956 1.7362822-3.9513368 0-7.328335-1.4608063-10.1281652-4.3846585l-4.2585939 4.1007839c1.3812421 1.6321389 3.3085302 3.0369541 5.7835621 4.2133259 2.4744659 1.1774916 5.3421983 1.7648376 8.603197 1.7648376 2.8779177 0 5.4101005-.531355 7.5965483-1.5940649 2.1870137-1.0621501 3.8647617-2.4854424 5.0355072-4.2709967 1.1701796-1.7838746 1.7558353-3.7206047 1.7558353-5.8085106 0-2.581187-.6043288-4.650056-1.8129863-6.206607-1.2086575-1.555991-2.6379969-2.7049272-4.2868864-3.4451288-1.650587-.7402015-3.8376008-1.5089585-6.5610411-2.3062709-1.9957562-.531355-3.5592022-1.025196-4.6903381-1.4804032-1.1322677-.4557671-2.0715802-1.0632699-2.8196351-1.8225084-.7486207-.7586786-1.1226481-1.7452407-1.1226481-2.9613662 0-1.5179171.6620455-2.79899212 1.9855708-3.84322505 1.3235252-1.04423292 3.1551846-1.56606943 5.4961097-1.56606943 1.7264111 0 3.3085302.35162374 4.7474891 1.05319149 1.4389588.70324748 2.6566699 1.52855543 3.6542651 2.47760359l4.2585938-4.10078388c-1.3048521-1.36618141-3.0595558-2.56215005-5.2658084-3.58734602-2.2062527-1.02463606-4.6710992-1.537514-7.3945396-1.537514-2.8015278 0-5.2471353.50335946-7.3373886 1.50895857zm200.2965064 4.39137738c1.767718.28331467 3.440373.86506159 5.011175 1.75867861 2.302447 1.30963046 4.114868 3.10414334 5.438393 5.38185894 1.323525 2.2777155 1.985571 4.7642777 1.985571 7.4596864s-.662046 5.1819709-1.985571 7.4596865c-1.323525 2.2777155-3.135946 4.0711086-5.438393 5.380739-2.301881 1.3101904-4.814825 1.9647257-7.538831 1.9647257-2.724573 0-5.236951-.6545353-7.538832-1.9647257-.281794-.1601343-.555666-.3281075-.823313-.5027995l-2.239638 5.5414334c3.203848 1.7430011 6.737021 2.6203807 10.601783 2.6203807 3.951336 0 7.55807-.9104143 10.819069-2.7329227 3.260433-1.8225084 5.821474-4.2995521 7.683123-7.431691 1.859952-3.1315789 2.790777-6.5767077 2.790777-10.3348264 0-3.7586786-.930825-7.2038074-2.790777-10.3359462-1.861649-3.13157899-4.42269-5.60918257-7.683123-7.43113106-1.912576-1.06886898-3.948508-1.81522956-6.098175-2.25699888zm-82.986562 0c1.767719.28331467 3.439242.86506159 5.01061 1.75867861 2.302447 1.30963046 4.115434 3.10414334 5.438959 5.38185894 1.323525 2.2777155 1.985005 4.7642777 1.985005 7.4596864s-.66148 5.1819709-1.985005 7.4596865c-1.323525 2.2777155-3.136512 4.0711086-5.438959 5.380739-2.301881 1.3101904-4.815391 1.9647257-7.538831 1.9647257-2.724572 0-5.23695-.6545353-7.538832-1.9647257-.281794-.1601343-.555665-.3281075-.822747-.5027995l-2.239638 5.5414334c3.203848 1.7430011 6.736455 2.6203807 10.601217 2.6203807 3.951336 0 7.55807-.9104143 10.819069-2.7329227 3.260433-1.8225084 5.821474-4.2995521 7.683123-7.431691 1.860518-3.1315789 2.791343-6.5767077 2.791343-10.3348264 0-3.7586786-.930825-7.2038074-2.791343-10.3359462-1.861649-3.13157899-4.42269-5.60918257-7.683123-7.43113106-1.912576-1.06886898-3.947942-1.81522956-6.098741-2.25699888zm199.745368-5.33090706v39.86170211h6.330739v-14.8057111h9.49611l8.344038 14.8057111h7.193662l-9.092658-15.830907c2.339793-.9871221 4.200877-2.5055991 5.582685-4.5554312 1.380676-2.0503919 2.071014-4.3650616 2.071014-6.9479283 0-2.3533035-.565851-4.47816349-1.697553-6.37737962-1.131701-1.89753639-2.704767-3.39697648-4.719196-4.49832027-2.013298-1.10078387-4.286886-1.65173572-6.819635-1.65173572zm6.330739 5.69428892h10.358467c2.033668 0 3.692743.63661814 4.978356 1.90817469 1.284482 1.27211646 1.927854 2.9137738 1.927854 4.924972 0 1.974804-.643372 3.6075028-1.927854 4.8975364-1.285613 1.2911534-2.944688 1.9361702-4.978356 1.9361702h-10.358467zm-44.716933-5.69428892v39.86170211h29.062102v-5.6948488h-22.731928v-12.1293393h17.552695v-5.6942889h-17.552695v-10.64893619h22.157024v-5.69428892zm-15.595416 0-15.193097 19.30403131h-.115433l-15.192531-19.30403131h-5.812421v39.86170211h6.330174v-29.156215h.230302l14.444476 18.3365062 14.445041-18.3365062h.230302v29.156215h6.330739v-39.86170211zm-90.778328 0v29.09910411h-.173151l-21.983873-29.09910411h-5.754703v39.86170211h6.330174v-29.0991041h.17315l21.983873 29.0991041h5.754704v-39.86170211zm-105.613241 0v39.86170211h6.33074v-14.8057111h9.495544l8.345169 14.8057111h7.193096l-9.092658-15.830907c2.339228-.9871221 4.200877-2.5055991 5.582119-4.5554312 1.380677-2.0503919 2.07158-4.3650616 2.07158-6.9479283 0-2.3533035-.56585-4.47816349-1.697552-6.37737962-1.132268-1.89753639-2.704767-3.39697648-4.719197-4.49832027-2.014429-1.10078387-4.287452-1.65173572-6.819635-1.65173572zm6.33074 5.69428892h10.358466c2.033668 0 3.692177.63661814 4.977791 1.90817469 1.285047 1.27211646 1.928419 2.9137738 1.928419 4.924972 0 1.974804-.643372 3.6075028-1.928419 4.8975364-1.285614 1.2911534-2.944123 1.9361702-4.977791 1.9361702h-10.358466zm-45.7869574-5.69428892v5.69428892h12.0854435v34.16741319h6.3307398v-34.16741319h12.0848781v-5.69428892zm-62.7132551.05207167-16.0927995 39.80963044h6.49483661l4.02319989-10.2368421h17.7660207l4.0735606 10.2368421h6.724572l-10.3912859-25.7054871h-6.5016268l3.8466544 9.7816349h-13.2194087l9.3919933-23.88577824z" fill="url(#a)" fill-rule="evenodd"/></svg>