<svg height="481" viewBox="0 0 1196 481" width="1196" xmlns="http://www.w3.org/2000/svg" xmlns:xlink="http://www.w3.org/1999/xlink"><defs><rect id="a" height="46" rx="6" width="139" x="26" y="24.5"/><filter id="b" height="141.3%" width="113.7%" x="-6.8%" y="-12%"><feMorphology in="SourceAlpha" operator="erode" radius="0.5" result="shadowSpreadOuter1"/><feOffset dx="0" dy="2" in="shadowSpreadOuter1" result="shadowOffsetOuter1"/><feGaussianBlur in="shadowOffsetOuter1" result="shadowBlurOuter1" stdDeviation="2"/><feComposite in="shadowBlurOuter1" in2="SourceAlpha" operator="out" result="shadowBlurOuter1"/><feColorMatrix in="shadowBlurOuter1" result="shadowMatrixOuter1" type="matrix" values="0 0 0 0 0   0 0 0 0 0   0 0 0 0 0  0 0 0 0.119429155 0"/><feMorphology in="SourceAlpha" operator="erode" radius="0.5" result="shadowSpreadOuter2"/><feOffset dx="0" dy="4" in="shadowSpreadOuter2" result="shadowOffsetOuter2"/><feGaussianBlur in="shadowOffsetOuter2" result="shadowBlurOuter2" stdDeviation="3"/><feComposite in="shadowBlurOuter2" in2="SourceAlpha" operator="out" result="shadowBlurOuter2"/><feColorMatrix in="shadowBlurOuter2" result="shadowMatrixOuter2" type="matrix" values="0 0 0 0 0   0 0 0 0 0   0 0 0 0 0  0 0 0 0.202809154 0"/><feMerge><feMergeNode in="shadowMatrixOuter1"/><feMergeNode in="shadowMatrixOuter2"/></feMerge></filter><circle id="c" cx="37" cy="48" r="37"/><filter id="d" height="125.7%" width="125.7%" x="-12.8%" y="-7.4%"><feMorphology in="SourceAlpha" operator="erode" radius="0.5" result="shadowSpreadOuter1"/><feOffset dx="0" dy="2" in="shadowSpreadOuter1" result="shadowOffsetOuter1"/><feGaussianBlur in="shadowOffsetOuter1" result="shadowBlurOuter1" stdDeviation="2"/><feComposite in="shadowBlurOuter1" in2="SourceAlpha" operator="out" result="shadowBlurOuter1"/><feColorMatrix in="shadowBlurOuter1" result="shadowMatrixOuter1" type="matrix" values="0 0 0 0 0   0 0 0 0 0   0 0 0 0 0  0 0 0 0.06 0"/><feMorphology in="SourceAlpha" operator="erode" radius="0.5" result="shadowSpreadOuter2"/><feOffset dx="0" dy="4" in="shadowSpreadOuter2" result="shadowOffsetOuter2"/><feGaussianBlur in="shadowOffsetOuter2" result="shadowBlurOuter2" stdDeviation="3"/><feComposite in="shadowBlurOuter2" in2="SourceAlpha" operator="out" result="shadowBlurOuter2"/><feColorMatrix in="shadowBlurOuter2" result="shadowMatrixOuter2" type="matrix" values="0 0 0 0 0   0 0 0 0 0   0 0 0 0 0  0 0 0 0.1 0"/><feMerge><feMergeNode in="shadowMatrixOuter1"/><feMergeNode in="shadowMatrixOuter2"/></feMerge></filter><rect id="e" height="46" rx="6" width="139" x="26" y="24.5"/><filter id="f" height="141.3%" width="113.7%" x="-6.8%" y="-12%"><feMorphology in="SourceAlpha" operator="erode" radius="0.5" result="shadowSpreadOuter1"/><feOffset dx="0" dy="2" in="shadowSpreadOuter1" result="shadowOffsetOuter1"/><feGaussianBlur in="shadowOffsetOuter1" result="shadowBlurOuter1" stdDeviation="2"/><feComposite in="shadowBlurOuter1" in2="SourceAlpha" operator="out" result="shadowBlurOuter1"/><feColorMatrix in="shadowBlurOuter1" result="shadowMatrixOuter1" type="matrix" values="0 0 0 0 0   0 0 0 0 0   0 0 0 0 0  0 0 0 0.119429155 0"/><feMorphology in="SourceAlpha" operator="erode" radius="0.5" result="shadowSpreadOuter2"/><feOffset dx="0" dy="4" in="shadowSpreadOuter2" result="shadowOffsetOuter2"/><feGaussianBlur in="shadowOffsetOuter2" result="shadowBlurOuter2" stdDeviation="3"/><feComposite in="shadowBlurOuter2" in2="SourceAlpha" operator="out" result="shadowBlurOuter2"/><feColorMatrix in="shadowBlurOuter2" result="shadowMatrixOuter2" type="matrix" values="0 0 0 0 0   0 0 0 0 0   0 0 0 0 0  0 0 0 0.202809154 0"/><feMerge><feMergeNode in="shadowMatrixOuter1"/><feMergeNode in="shadowMatrixOuter2"/></feMerge></filter><circle id="g" cx="37" cy="48" r="37"/><filter id="h" height="125.7%" width="125.7%" x="-12.8%" y="-7.4%"><feMorphology in="SourceAlpha" operator="erode" radius="0.5" result="shadowSpreadOuter1"/><feOffset dx="0" dy="2" in="shadowSpreadOuter1" result="shadowOffsetOuter1"/><feGaussianBlur in="shadowOffsetOuter1" result="shadowBlurOuter1" stdDeviation="2"/><feComposite in="shadowBlurOuter1" in2="SourceAlpha" operator="out" result="shadowBlurOuter1"/><feColorMatrix in="shadowBlurOuter1" result="shadowMatrixOuter1" type="matrix" values="0 0 0 0 0   0 0 0 0 0   0 0 0 0 0  0 0 0 0.06 0"/><feMorphology in="SourceAlpha" operator="erode" radius="0.5" result="shadowSpreadOuter2"/><feOffset dx="0" dy="4" in="shadowSpreadOuter2" result="shadowOffsetOuter2"/><feGaussianBlur in="shadowOffsetOuter2" result="shadowBlurOuter2" stdDeviation="3"/><feComposite in="shadowBlurOuter2" in2="SourceAlpha" operator="out" result="shadowBlurOuter2"/><feColorMatrix in="shadowBlurOuter2" result="shadowMatrixOuter2" type="matrix" values="0 0 0 0 0   0 0 0 0 0   0 0 0 0 0  0 0 0 0.1 0"/><feMerge><feMergeNode in="shadowMatrixOuter1"/><feMergeNode in="shadowMatrixOuter2"/></feMerge></filter><rect id="i" height="46" rx="6" width="139" x="26" y="24.5"/><filter id="j" height="141.3%" width="113.7%" x="-6.8%" y="-12%"><feMorphology in="SourceAlpha" operator="erode" radius="0.5" result="shadowSpreadOuter1"/><feOffset dx="0" dy="2" in="shadowSpreadOuter1" result="shadowOffsetOuter1"/><feGaussianBlur in="shadowOffsetOuter1" result="shadowBlurOuter1" stdDeviation="2"/><feComposite in="shadowBlurOuter1" in2="SourceAlpha" operator="out" result="shadowBlurOuter1"/><feColorMatrix in="shadowBlurOuter1" result="shadowMatrixOuter1" type="matrix" values="0 0 0 0 0   0 0 0 0 0   0 0 0 0 0  0 0 0 0.119429155 0"/><feMorphology in="SourceAlpha" operator="erode" radius="0.5" result="shadowSpreadOuter2"/><feOffset dx="0" dy="4" in="shadowSpreadOuter2" result="shadowOffsetOuter2"/><feGaussianBlur in="shadowOffsetOuter2" result="shadowBlurOuter2" stdDeviation="3"/><feComposite in="shadowBlurOuter2" in2="SourceAlpha" operator="out" result="shadowBlurOuter2"/><feColorMatrix in="shadowBlurOuter2" result="shadowMatrixOuter2" type="matrix" values="0 0 0 0 0   0 0 0 0 0   0 0 0 0 0  0 0 0 0.202809154 0"/><feMerge><feMergeNode in="shadowMatrixOuter1"/><feMergeNode in="shadowMatrixOuter2"/></feMerge></filter><circle id="k" cx="37" cy="48" r="37"/><filter id="l" height="125.7%" width="125.7%" x="-12.8%" y="-7.4%"><feMorphology in="SourceAlpha" operator="erode" radius="0.5" result="shadowSpreadOuter1"/><feOffset dx="0" dy="2" in="shadowSpreadOuter1" result="shadowOffsetOuter1"/><feGaussianBlur in="shadowOffsetOuter1" result="shadowBlurOuter1" stdDeviation="2"/><feComposite in="shadowBlurOuter1" in2="SourceAlpha" operator="out" result="shadowBlurOuter1"/><feColorMatrix in="shadowBlurOuter1" result="shadowMatrixOuter1" type="matrix" values="0 0 0 0 0   0 0 0 0 0   0 0 0 0 0  0 0 0 0.06 0"/><feMorphology in="SourceAlpha" operator="erode" radius="0.5" result="shadowSpreadOuter2"/><feOffset dx="0" dy="4" in="shadowSpreadOuter2" result="shadowOffsetOuter2"/><feGaussianBlur in="shadowOffsetOuter2" result="shadowBlurOuter2" stdDeviation="3"/><feComposite in="shadowBlurOuter2" in2="SourceAlpha" operator="out" result="shadowBlurOuter2"/><feColorMatrix in="shadowBlurOuter2" result="shadowMatrixOuter2" type="matrix" values="0 0 0 0 0   0 0 0 0 0   0 0 0 0 0  0 0 0 0.1 0"/><feMerge><feMergeNode in="shadowMatrixOuter1"/><feMergeNode in="shadowMatrixOuter2"/></feMerge></filter><rect id="m" height="46" rx="6" width="139" x="26" y="24.5"/><filter id="n" height="141.3%" width="113.7%" x="-6.8%" y="-12%"><feMorphology in="SourceAlpha" operator="erode" radius="0.5" result="shadowSpreadOuter1"/><feOffset dx="0" dy="2" in="shadowSpreadOuter1" result="shadowOffsetOuter1"/><feGaussianBlur in="shadowOffsetOuter1" result="shadowBlurOuter1" stdDeviation="2"/><feComposite in="shadowBlurOuter1" in2="SourceAlpha" operator="out" result="shadowBlurOuter1"/><feColorMatrix in="shadowBlurOuter1" result="shadowMatrixOuter1" type="matrix" values="0 0 0 0 0   0 0 0 0 0   0 0 0 0 0  0 0 0 0.119429155 0"/><feMorphology in="SourceAlpha" operator="erode" radius="0.5" result="shadowSpreadOuter2"/><feOffset dx="0" dy="4" in="shadowSpreadOuter2" result="shadowOffsetOuter2"/><feGaussianBlur in="shadowOffsetOuter2" result="shadowBlurOuter2" stdDeviation="3"/><feComposite in="shadowBlurOuter2" in2="SourceAlpha" operator="out" result="shadowBlurOuter2"/><feColorMatrix in="shadowBlurOuter2" result="shadowMatrixOuter2" type="matrix" values="0 0 0 0 0   0 0 0 0 0   0 0 0 0 0  0 0 0 0.202809154 0"/><feMerge><feMergeNode in="shadowMatrixOuter1"/><feMergeNode in="shadowMatrixOuter2"/></feMerge></filter><circle id="o" cx="37" cy="48" r="37"/><filter id="p" height="125.7%" width="125.7%" x="-12.8%" y="-7.4%"><feMorphology in="SourceAlpha" operator="erode" radius="0.5" result="shadowSpreadOuter1"/><feOffset dx="0" dy="2" in="shadowSpreadOuter1" result="shadowOffsetOuter1"/><feGaussianBlur in="shadowOffsetOuter1" result="shadowBlurOuter1" stdDeviation="2"/><feComposite in="shadowBlurOuter1" in2="SourceAlpha" operator="out" result="shadowBlurOuter1"/><feColorMatrix in="shadowBlurOuter1" result="shadowMatrixOuter1" type="matrix" values="0 0 0 0 0   0 0 0 0 0   0 0 0 0 0  0 0 0 0.06 0"/><feMorphology in="SourceAlpha" operator="erode" radius="0.5" result="shadowSpreadOuter2"/><feOffset dx="0" dy="4" in="shadowSpreadOuter2" result="shadowOffsetOuter2"/><feGaussianBlur in="shadowOffsetOuter2" result="shadowBlurOuter2" stdDeviation="3"/><feComposite in="shadowBlurOuter2" in2="SourceAlpha" operator="out" result="shadowBlurOuter2"/><feColorMatrix in="shadowBlurOuter2" result="shadowMatrixOuter2" type="matrix" values="0 0 0 0 0   0 0 0 0 0   0 0 0 0 0  0 0 0 0.1 0"/><feMerge><feMergeNode in="shadowMatrixOuter1"/><feMergeNode in="shadowMatrixOuter2"/></feMerge></filter><rect id="q" height="46" rx="6" width="139" x="26" y="24.5"/><filter id="r" height="141.3%" width="113.7%" x="-6.8%" y="-12%"><feMorphology in="SourceAlpha" operator="erode" radius="0.5" result="shadowSpreadOuter1"/><feOffset dx="0" dy="2" in="shadowSpreadOuter1" result="shadowOffsetOuter1"/><feGaussianBlur in="shadowOffsetOuter1" result="shadowBlurOuter1" stdDeviation="2"/><feComposite in="shadowBlurOuter1" in2="SourceAlpha" operator="out" result="shadowBlurOuter1"/><feColorMatrix in="shadowBlurOuter1" result="shadowMatrixOuter1" type="matrix" values="0 0 0 0 0   0 0 0 0 0   0 0 0 0 0  0 0 0 0.119429155 0"/><feMorphology in="SourceAlpha" operator="erode" radius="0.5" result="shadowSpreadOuter2"/><feOffset dx="0" dy="4" in="shadowSpreadOuter2" result="shadowOffsetOuter2"/><feGaussianBlur in="shadowOffsetOuter2" result="shadowBlurOuter2" stdDeviation="3"/><feComposite in="shadowBlurOuter2" in2="SourceAlpha" operator="out" result="shadowBlurOuter2"/><feColorMatrix in="shadowBlurOuter2" result="shadowMatrixOuter2" type="matrix" values="0 0 0 0 0   0 0 0 0 0   0 0 0 0 0  0 0 0 0.202809154 0"/><feMerge><feMergeNode in="shadowMatrixOuter1"/><feMergeNode in="shadowMatrixOuter2"/></feMerge></filter><circle id="s" cx="37" cy="48" r="37"/><filter id="t" height="125.7%" width="125.7%" x="-12.8%" y="-7.4%"><feMorphology in="SourceAlpha" operator="erode" radius="0.5" result="shadowSpreadOuter1"/><feOffset dx="0" dy="2" in="shadowSpreadOuter1" result="shadowOffsetOuter1"/><feGaussianBlur in="shadowOffsetOuter1" result="shadowBlurOuter1" stdDeviation="2"/><feComposite in="shadowBlurOuter1" in2="SourceAlpha" operator="out" result="shadowBlurOuter1"/><feColorMatrix in="shadowBlurOuter1" result="shadowMatrixOuter1" type="matrix" values="0 0 0 0 0   0 0 0 0 0   0 0 0 0 0  0 0 0 0.06 0"/><feMorphology in="SourceAlpha" operator="erode" radius="0.5" result="shadowSpreadOuter2"/><feOffset dx="0" dy="4" in="shadowSpreadOuter2" result="shadowOffsetOuter2"/><feGaussianBlur in="shadowOffsetOuter2" result="shadowBlurOuter2" stdDeviation="3"/><feComposite in="shadowBlurOuter2" in2="SourceAlpha" operator="out" result="shadowBlurOuter2"/><feColorMatrix in="shadowBlurOuter2" result="shadowMatrixOuter2" type="matrix" values="0 0 0 0 0   0 0 0 0 0   0 0 0 0 0  0 0 0 0.1 0"/><feMerge><feMergeNode in="shadowMatrixOuter1"/><feMergeNode in="shadowMatrixOuter2"/></feMerge></filter><rect id="u" height="46" rx="6" width="139" x="26" y="24.5"/><filter id="v" height="141.3%" width="113.7%" x="-6.8%" y="-12%"><feMorphology in="SourceAlpha" operator="erode" radius="0.5" result="shadowSpreadOuter1"/><feOffset dx="0" dy="2" in="shadowSpreadOuter1" result="shadowOffsetOuter1"/><feGaussianBlur in="shadowOffsetOuter1" result="shadowBlurOuter1" stdDeviation="2"/><feComposite in="shadowBlurOuter1" in2="SourceAlpha" operator="out" result="shadowBlurOuter1"/><feColorMatrix in="shadowBlurOuter1" result="shadowMatrixOuter1" type="matrix" values="0 0 0 0 0   0 0 0 0 0   0 0 0 0 0  0 0 0 0.119429155 0"/><feMorphology in="SourceAlpha" operator="erode" radius="0.5" result="shadowSpreadOuter2"/><feOffset dx="0" dy="4" in="shadowSpreadOuter2" result="shadowOffsetOuter2"/><feGaussianBlur in="shadowOffsetOuter2" result="shadowBlurOuter2" stdDeviation="3"/><feComposite in="shadowBlurOuter2" in2="SourceAlpha" operator="out" result="shadowBlurOuter2"/><feColorMatrix in="shadowBlurOuter2" result="shadowMatrixOuter2" type="matrix" values="0 0 0 0 0   0 0 0 0 0   0 0 0 0 0  0 0 0 0.202809154 0"/><feMerge><feMergeNode in="shadowMatrixOuter1"/><feMergeNode in="shadowMatrixOuter2"/></feMerge></filter><circle id="w" cx="37" cy="48" r="37"/><filter id="x" height="125.7%" width="125.7%" x="-12.8%" y="-7.4%"><feMorphology in="SourceAlpha" operator="erode" radius="0.5" result="shadowSpreadOuter1"/><feOffset dx="0" dy="2" in="shadowSpreadOuter1" result="shadowOffsetOuter1"/><feGaussianBlur in="shadowOffsetOuter1" result="shadowBlurOuter1" stdDeviation="2"/><feComposite in="shadowBlurOuter1" in2="SourceAlpha" operator="out" result="shadowBlurOuter1"/><feColorMatrix in="shadowBlurOuter1" result="shadowMatrixOuter1" type="matrix" values="0 0 0 0 0   0 0 0 0 0   0 0 0 0 0  0 0 0 0.06 0"/><feMorphology in="SourceAlpha" operator="erode" radius="0.5" result="shadowSpreadOuter2"/><feOffset dx="0" dy="4" in="shadowSpreadOuter2" result="shadowOffsetOuter2"/><feGaussianBlur in="shadowOffsetOuter2" result="shadowBlurOuter2" stdDeviation="3"/><feComposite in="shadowBlurOuter2" in2="SourceAlpha" operator="out" result="shadowBlurOuter2"/><feColorMatrix in="shadowBlurOuter2" result="shadowMatrixOuter2" type="matrix" values="0 0 0 0 0   0 0 0 0 0   0 0 0 0 0  0 0 0 0.1 0"/><feMerge><feMergeNode in="shadowMatrixOuter1"/><feMergeNode in="shadowMatrixOuter2"/></feMerge></filter><rect id="y" height="46" rx="6" width="139" x="26" y="24.5"/><filter id="z" height="141.3%" width="113.7%" x="-6.8%" y="-12%"><feMorphology in="SourceAlpha" operator="erode" radius="0.5" result="shadowSpreadOuter1"/><feOffset dx="0" dy="2" in="shadowSpreadOuter1" result="shadowOffsetOuter1"/><feGaussianBlur in="shadowOffsetOuter1" result="shadowBlurOuter1" stdDeviation="2"/><feComposite in="shadowBlurOuter1" in2="SourceAlpha" operator="out" result="shadowBlurOuter1"/><feColorMatrix in="shadowBlurOuter1" result="shadowMatrixOuter1" type="matrix" values="0 0 0 0 0   0 0 0 0 0   0 0 0 0 0  0 0 0 0.119429155 0"/><feMorphology in="SourceAlpha" operator="erode" radius="0.5" result="shadowSpreadOuter2"/><feOffset dx="0" dy="4" in="shadowSpreadOuter2" result="shadowOffsetOuter2"/><feGaussianBlur in="shadowOffsetOuter2" result="shadowBlurOuter2" stdDeviation="3"/><feComposite in="shadowBlurOuter2" in2="SourceAlpha" operator="out" result="shadowBlurOuter2"/><feColorMatrix in="shadowBlurOuter2" result="shadowMatrixOuter2" type="matrix" values="0 0 0 0 0   0 0 0 0 0   0 0 0 0 0  0 0 0 0.202809154 0"/><feMerge><feMergeNode in="shadowMatrixOuter1"/><feMergeNode in="shadowMatrixOuter2"/></feMerge></filter><circle id="A" cx="37" cy="48" r="37"/><filter id="B" height="125.7%" width="125.7%" x="-12.8%" y="-7.4%"><feMorphology in="SourceAlpha" operator="erode" radius="0.5" result="shadowSpreadOuter1"/><feOffset dx="0" dy="2" in="shadowSpreadOuter1" result="shadowOffsetOuter1"/><feGaussianBlur in="shadowOffsetOuter1" result="shadowBlurOuter1" stdDeviation="2"/><feComposite in="shadowBlurOuter1" in2="SourceAlpha" operator="out" result="shadowBlurOuter1"/><feColorMatrix in="shadowBlurOuter1" result="shadowMatrixOuter1" type="matrix" values="0 0 0 0 0   0 0 0 0 0   0 0 0 0 0  0 0 0 0.06 0"/><feMorphology in="SourceAlpha" operator="erode" radius="0.5" result="shadowSpreadOuter2"/><feOffset dx="0" dy="4" in="shadowSpreadOuter2" result="shadowOffsetOuter2"/><feGaussianBlur in="shadowOffsetOuter2" result="shadowBlurOuter2" stdDeviation="3"/><feComposite in="shadowBlurOuter2" in2="SourceAlpha" operator="out" result="shadowBlurOuter2"/><feColorMatrix in="shadowBlurOuter2" result="shadowMatrixOuter2" type="matrix" values="0 0 0 0 0   0 0 0 0 0   0 0 0 0 0  0 0 0 0.1 0"/><feMerge><feMergeNode in="shadowMatrixOuter1"/><feMergeNode in="shadowMatrixOuter2"/></feMerge></filter><rect id="C" height="46" rx="6" width="139" x="26" y="24.5"/><filter id="D" height="141.3%" width="113.7%" x="-6.8%" y="-12%"><feMorphology in="SourceAlpha" operator="erode" radius="0.5" result="shadowSpreadOuter1"/><feOffset dx="0" dy="2" in="shadowSpreadOuter1" result="shadowOffsetOuter1"/><feGaussianBlur in="shadowOffsetOuter1" result="shadowBlurOuter1" stdDeviation="2"/><feComposite in="shadowBlurOuter1" in2="SourceAlpha" operator="out" result="shadowBlurOuter1"/><feColorMatrix in="shadowBlurOuter1" result="shadowMatrixOuter1" type="matrix" values="0 0 0 0 0   0 0 0 0 0   0 0 0 0 0  0 0 0 0.119429155 0"/><feMorphology in="SourceAlpha" operator="erode" radius="0.5" result="shadowSpreadOuter2"/><feOffset dx="0" dy="4" in="shadowSpreadOuter2" result="shadowOffsetOuter2"/><feGaussianBlur in="shadowOffsetOuter2" result="shadowBlurOuter2" stdDeviation="3"/><feComposite in="shadowBlurOuter2" in2="SourceAlpha" operator="out" result="shadowBlurOuter2"/><feColorMatrix in="shadowBlurOuter2" result="shadowMatrixOuter2" type="matrix" values="0 0 0 0 0   0 0 0 0 0   0 0 0 0 0  0 0 0 0.202809154 0"/><feMerge><feMergeNode in="shadowMatrixOuter1"/><feMergeNode in="shadowMatrixOuter2"/></feMerge></filter><circle id="E" cx="37" cy="48" r="37"/><filter id="F" height="125.7%" width="125.7%" x="-12.8%" y="-7.4%"><feMorphology in="SourceAlpha" operator="erode" radius="0.5" result="shadowSpreadOuter1"/><feOffset dx="0" dy="2" in="shadowSpreadOuter1" result="shadowOffsetOuter1"/><feGaussianBlur in="shadowOffsetOuter1" result="shadowBlurOuter1" stdDeviation="2"/><feComposite in="shadowBlurOuter1" in2="SourceAlpha" operator="out" result="shadowBlurOuter1"/><feColorMatrix in="shadowBlurOuter1" result="shadowMatrixOuter1" type="matrix" values="0 0 0 0 0   0 0 0 0 0   0 0 0 0 0  0 0 0 0.06 0"/><feMorphology in="SourceAlpha" operator="erode" radius="0.5" result="shadowSpreadOuter2"/><feOffset dx="0" dy="4" in="shadowSpreadOuter2" result="shadowOffsetOuter2"/><feGaussianBlur in="shadowOffsetOuter2" result="shadowBlurOuter2" stdDeviation="3"/><feComposite in="shadowBlurOuter2" in2="SourceAlpha" operator="out" result="shadowBlurOuter2"/><feColorMatrix in="shadowBlurOuter2" result="shadowMatrixOuter2" type="matrix" values="0 0 0 0 0   0 0 0 0 0   0 0 0 0 0  0 0 0 0.1 0"/><feMerge><feMergeNode in="shadowMatrixOuter1"/><feMergeNode in="shadowMatrixOuter2"/></feMerge></filter><rect id="G" height="342" rx="16" width="265"/><filter id="H" height="105.6%" width="107.2%" x="-3.6%" y="-1.6%"><feMorphology in="SourceAlpha" operator="erode" radius="0.5" result="shadowSpreadOuter1"/><feOffset dx="0" dy="2" in="shadowSpreadOuter1" result="shadowOffsetOuter1"/><feGaussianBlur in="shadowOffsetOuter1" result="shadowBlurOuter1" stdDeviation="2"/><feComposite in="shadowBlurOuter1" in2="SourceAlpha" operator="out" result="shadowBlurOuter1"/><feColorMatrix in="shadowBlurOuter1" result="shadowMatrixOuter1" type="matrix" values="0 0 0 0 0   0 0 0 0 0   0 0 0 0 0  0 0 0 0.119429155 0"/><feMorphology in="SourceAlpha" operator="erode" radius="0.5" result="shadowSpreadOuter2"/><feOffset dx="0" dy="4" in="shadowSpreadOuter2" result="shadowOffsetOuter2"/><feGaussianBlur in="shadowOffsetOuter2" result="shadowBlurOuter2" stdDeviation="3"/><feComposite in="shadowBlurOuter2" in2="SourceAlpha" operator="out" result="shadowBlurOuter2"/><feColorMatrix in="shadowBlurOuter2" result="shadowMatrixOuter2" type="matrix" values="0 0 0 0 0   0 0 0 0 0   0 0 0 0 0  0 0 0 0.202809154 0"/><feMerge><feMergeNode in="shadowMatrixOuter1"/><feMergeNode in="shadowMatrixOuter2"/></feMerge></filter></defs><g fill="none" fill-rule="evenodd"><g stroke="#9478d2" stroke-linejoin="round" stroke-width="2"><path d="m262 98 89 126"/><path d="m262 189 89 34"/><path d="m255 374 100-148"/><path d="m262 277 93-54"/><path d="m351 225 110-134"/><path d="m832 239-230-15"/><path d="m831 241 233-28"/><path d="m577 215-116-124"/><path d="m820 384 301-169"/><path d="m585 225-162 162"/><path d="m585 226 235 158"/><path d="m577 223 249-156"/><path d="m1104 207-248-137"/><path d="m355 225 69 170"/></g><g transform="translate(316 178)"><use fill="#000" filter="url(#b)" xlink:href="#a"/><use fill="none" xlink:href="#a"/></g><rect fill="#7352ba" height="46" rx="6" width="139" x="342" y="202.5"/><g transform="translate(316 178)"><use fill="#000" filter="url(#d)" xlink:href="#c"/><use fill="none" xlink:href="#c"/></g><circle cx="353" cy="226" fill="#9478d2" r="37"/><text fill="#fff" font-family="Strawford-Medium, Strawford" font-size="18" font-weight="400" letter-spacing="-.135" transform="translate(310 160)"><tspan x="89.602" y="70">Discover</tspan></text><path d="m347.223219 233.467611 3.612-6.366" fill="#00a7fb"/><path d="m347.223219 233.467611 2.276781-2.967611" stroke="#fff"/><g stroke="#fff" stroke-width="1.5" transform="translate(337 203)"><path d="m3.59801916 45.5677112-2.94-1.668c-.629-.357-.846-1.16-.48-1.785l7.096-11.929c.344-.578 1.086-.775 1.671-.443l2.55400004 1.449c.585.332.797 1.07.477 1.661l-6.59900004 12.212c-.349.634-1.149.86-1.779.503z"/><path d="m32.1344192 22.2277112c-4.132 7.015-13.17 9.353-20.185 5.22-7.01600004-4.132-9.35300004-13.17-5.22000004-20.18500003 4.13200004-7.016 13.17000004-9.353 20.18500004-5.22 7.015 4.132 9.353 13.17000003 5.22 20.18500003z"/><path d="m5.50091916 19.5811112 9.51400004-9.511 8.998 11.703 9.628-11.703"/><g fill="#9478d2"><path d="m18.0536192 10.1093112c0 1.6575481-1.3432383 3-2.9994935 3-1.6572683 0-3.0005065-1.3424519-3.0005065-3 0-1.65754815 1.3432382-3.00000003 3.0005065-3.00000003 1.6562552 0 2.9994935 1.34245188 2.9994935 3.00000003z"/><path d="m27.3655192 20.1256112c0 1.6574773-1.3436556 3-3 3-1.6574774 0-3-1.3425227-3-3 0-1.6574774 1.3425226-3 3-3 1.6563444 0 3 1.3425226 3 3z"/></g></g><g transform="translate(431 43)"><use fill="#000" filter="url(#f)" xlink:href="#e"/><use fill="none" xlink:href="#e"/></g><rect fill="#30b09c" height="46" rx="6" width="139" x="457" y="67.5"/><g transform="translate(431 43)"><use fill="#000" filter="url(#h)" xlink:href="#g"/><use fill="none" xlink:href="#g"/></g><circle cx="468" cy="91" fill="#4fceba" r="37"/><text fill="#fff" font-family="Strawford-Medium, Strawford" font-size="18" font-weight="400" letter-spacing="-.135" transform="translate(425 25)"><tspan x="102.0895" y="70">Write</tspan></text><g stroke="#fff" stroke-linecap="round" stroke-linejoin="round" stroke-width="1.5" transform="translate(443 68)"><path d="m9.60253534 12.0749042-5.317 23.428 31.76899996-32.66600002"/><path d="m8.5 36.5 24.593335 4.789104"/><path d="m36.054935 2.836604-26.452 9.238"/><g fill="#4fceba"><path d="m7.54823534 32.7257042c1.534 1.802 1.316 4.507-.486 6.04-1.802 1.534-4.506 1.317-6.04-.485-1.534-1.803-1.317-4.507.486-6.041 1.802-1.534 4.506-1.316 6.04.486z"/><path d="m36.6221353 38.2849042c1.659 1.949 1.424 4.874-.525 6.533-1.95 1.659-4.874 1.424-6.533-.526-1.659-1.949-1.424-4.874.525-6.532 1.949-1.659 4.874-1.424 6.533.525z"/><path d="m12.2289353 9.83950418c1.235 1.45100002 1.059 3.62700002-.391 4.86200002-1.451 1.234-3.62699996 1.059-4.86199996-.391-1.234-1.451-1.059-3.627.391-4.86200002 1.451-1.235 3.62699996-1.06 4.86199996.391z"/><path d="m38.2148353.99820418c1.015 1.193.871 2.983-.322 3.998-1.192 1.016-2.983.872-3.998-.321s-.871-2.983.322-3.999c1.193-1.015 2.983-.871 3.998.322z"/></g><g transform="matrix(.99862953 .05233596 -.05233596 .99862953 23.427366 3.247407)"><path d="m7.917 26.2079328-7.917 2.999 2.832-7.913 16.893-17.48100002 5.085 4.914z"/><path d="m24.8102 8.72703278-5.085-4.914 2.868-2.968c1.062-1.1 2.815-1.13 3.914-.067l1.104 1.066c1.1 1.063 1.129 2.816.067 3.915z"/><path d="m2.8316 21.293533 5.085 4.914"/></g></g><g transform="translate(394 348)"><use fill="#000" filter="url(#j)" xlink:href="#i"/><use fill="none" xlink:href="#i"/></g><rect fill="#30b09c" height="46" rx="6" width="139" x="420" y="372.5"/><g transform="translate(394 348)"><use fill="#000" filter="url(#l)" xlink:href="#k"/><use fill="none" xlink:href="#k"/></g><circle cx="431" cy="396" fill="#4fceba" r="37"/><text fill="#fff" font-family="Strawford-Medium, Strawford" font-size="18" font-weight="400" letter-spacing="-.135" transform="translate(388 330)"><tspan x="107.593" y="70">Test</tspan></text><g stroke="#fff" stroke-linecap="round" stroke-linejoin="round" stroke-width="1.5" transform="translate(408 380)"><path d="m39.8606 9.9806c2.667 3.134 2.289 7.836-.845 10.504-3.134 2.667-7.836 2.288-10.503-.845-2.668-3.134-2.289-7.837.844-10.504 3.134-2.667 7.837-2.289 10.504.845z"/><path d="m7.4838 16.1194 11.94 2.754 1.204-10.169"/><path d="m20.6277 8.704-13.144 7.415" fill="#9478d2"/><g fill="#4fceba"><path d="m22.0291 16.6557c1.225 1.439 1.051 3.598-.388 4.822-1.439 1.225-3.598 1.051-4.822-.387-1.225-1.439-1.051-3.598.388-4.823 1.438-1.224 3.597-1.051 4.822.388z"/><path d="m9.5806 14.3348c.986 1.158.846 2.896-.312 3.881-1.158.986-2.896.846-3.882-.312-.985-1.158-.846-2.896.313-3.881 1.158-.986 2.895-.846 3.881.312z"/><path d="m22.2327916 6.41219102c.9900705 1.16220368.8496783 2.90795079-.3137462 3.89680058-1.1622037.9900705-2.90673.8496783-3.8968005-.31374619-.9888498-1.16220367-.8484575-2.90672998.3137461-3.89680054 1.1622037-.98884977 2.90673-.84845752 3.8968006.31374615z"/></g><path d="m30.2254 13.323 3.422 4.003 9.258-10.829"/><path d="m44.769 28.889h-42.354c-1.334 0-2.415-1.082-2.415-2.416v-24.057c0-1.334 1.081-2.416 2.415-2.416h42.354c1.334 0 2.416 1.082 2.416 2.416v24.057c0 1.334-1.082 2.416-2.416 2.416z"/><path d="m14.2836 34.058h18.617"/><path d="m18.1354 33.9491v-5.06h10.914v5.06"/></g><g transform="translate(546 176)"><use fill="#000" filter="url(#n)" xlink:href="#m"/><use fill="none" xlink:href="#m"/><rect fill="#65686f" height="46" rx="6" width="139" x="26" y="24.5"/><use fill="#000" filter="url(#p)" xlink:href="#o"/><use fill="none" xlink:href="#o"/><circle cx="37" cy="48" fill="#858993" r="37"/><text fill="#fff" font-family="Strawford-Medium, Strawford" font-size="18" font-weight="400" letter-spacing="-.135" transform="translate(-6 -18)"><tspan x="95.182" y="70">Deploy</tspan></text><g stroke="#fff" stroke-linecap="round" stroke-linejoin="round" stroke-width="1.5"><path d="m32.9935 57.7679439.521 6.745c2.122-.962 7.044-3.948 10.946-12.057"/><path d="m30.9335 37.9504439c-8.192 3.853-11.218 8.712-12.196 10.815l6.769.512"/><path d="m55.0353 40.0357439c.587-2.319.906-4.643 1.058-6.82.012-.182.025-.364.035-.548.016-.276.029-.548.04-.818.012-.31.021-.622.027-.935.004-.216.008-.429.009-.64.003-.43.002-.864-.006-1.3-.002-.099-.005-.195-.007-.293-.013-.524-.032-1.051-.062-1.583-3.496-.21-8.299-.177-13.111 1.033"/><path d="m44.3991 43.7863439c-.714.706-1.652 1.059-2.59 1.059s-1.876-.353-2.59-1.059c-.693-.685-1.075-1.597-1.075-2.567s.382-1.882 1.075-2.567c1.428-1.413 3.752-1.412 5.18 0 .693.685 1.075 1.597 1.075 2.567s-.382 1.881-1.075 2.567zm6.337 3.893c.217-.238.429-.482.634-.734.027-.033.056-.065.082-.098.216-.269.423-.549.627-.832.07-.099.139-.198.207-.297.158-.229.311-.463.46-.701.096-.154.189-.309.28-.464.109-.185.215-.371.319-.561.09-.166.181-.332.267-.5.064-.126.124-.254.187-.381.164-.339.322-.68.47-1.024.023-.054.045-.109.068-.163.263-.627.496-1.263.704-1.903l-12.023-11.89c-3.063.989-5.659 2.44-7.745 4.319-.054.048-.108.097-.161.146-.273.251-.539.509-.793.775-.09.095-.177.196-.266.295-2.008 2.22-3.69 5.117-5.125 7.903-.32.642-.624 1.264-.906 1.842-1.119 2.282-4.551 10.66-5.058 12.286l4.235 4.188c1.69-.516 8.536-3.188 10.09-3.871.315-.146.63-.291.943-.441 3.972-1.879 8.47-4.006 11.551-6.917.262-.246.513-.504.76-.767.066-.07.129-.14.193-.21z"/><path d="m20.6016 57.940144-6.509 6.127"/><path d="m23.122 59.585944-10.122 9.528"/><path d="m24.8353 62.100944-6.509 6.127"/></g></g><g transform="translate(1026 165)"><use fill="#000" filter="url(#r)" xlink:href="#q"/><use fill="none" xlink:href="#q"/></g><rect fill="#7352ba" height="46" rx="6" width="139" x="1052" y="189.5"/><g transform="translate(1026 165)"><use fill="#000" filter="url(#t)" xlink:href="#s"/><use fill="none" xlink:href="#s"/></g><circle cx="1063" cy="213" fill="#9478d2" r="37"/><text fill="#fff" font-family="Strawford-Medium, Strawford" font-size="18" font-weight="400" letter-spacing="-.135" transform="translate(1020 147)"><tspan x="102.1165" y="70">Scale</tspan></text><g stroke="#fff" stroke-linecap="round" stroke-linejoin="round" stroke-width="1.5" transform="translate(1042.001577 191.748575)"><g transform="translate(2.998423 2.251425)"><path d="m37.0176 4.5v-4h-4"/><path d="m28.9436.5h-22.407" stroke-dasharray="8.148 4.074"/><path d="m4.5.5h-4v4"/><path d="m.5 8.5743v22.407" stroke-dasharray="8.148 4.074"/><path d="m.5 33.0176v4h4"/><path d="m8.574 37.0176h22.407" stroke-dasharray="8.148 4.074"/><path d="m33.0176 37.0176h4v-4"/><path d="m37.0176 28.9439v-22.407" stroke-dasharray="8.148 4.074"/></g><path d="m3.49842311 39.269225h12.38599999v-12.386h-12.38599999z"/><path d="m15.884023 26.883625 16.6144-16.1322"/><path d="m32.3270231 18.621725v-8.095h-8.095"/><g fill="#9478d2"><path d="m19.6904231 27.651425c-.424 2.102-2.472 3.463-4.574 3.039-2.103-.424-3.463-2.472-3.039-4.575.424-2.102 2.472-3.462 4.574-3.038 2.103.424 3.463 2.472 3.039 4.574z"/><path d="m7.69042311 4.65142498c-.424 2.102-2.472 3.463-4.574 3.039-2.103-.424-3.463-2.472-3.039-4.575.424-2.102 2.472-3.462 4.574-3.038 2.103.424 3.463 2.472 3.039 4.574z"/><path d="m43.6904231 4.65142498c-.424 2.102-2.472 3.463-4.574 3.039-2.103-.424-3.463-2.472-3.039-4.575.424-2.102 2.472-3.462 4.574-3.038 2.103.424 3.463 2.472 3.039 4.574z"/><path d="m43.6904231 39.651425c-.424 2.102-2.472 3.463-4.574 3.039-2.103-.424-3.463-2.472-3.039-4.575.424-2.102 2.472-3.462 4.574-3.038 2.103.424 3.463 2.472 3.039 4.574z"/></g></g><g transform="translate(784 341)"><use fill="#000" filter="url(#v)" xlink:href="#u"/><use fill="none" xlink:href="#u"/><rect fill="#65686f" height="46" rx="6" width="139" x="26" y="24.5"/><use fill="#000" filter="url(#x)" xlink:href="#w"/><use fill="none" xlink:href="#w"/><circle cx="37" cy="48" fill="#858993" r="37"/><text fill="#fff" font-family="Strawford-Medium, Strawford" font-size="18" font-weight="400" letter-spacing="-.135" transform="translate(-6 -18)"><tspan x="96.379" y="70">Secure</tspan></text><g stroke="#fff" stroke-width="1.5"><path d="m58.9813754 62h-19.9618998c-1.6671794 0-3.0194756-1.3473853-3.0194756-3.0095566v-12.9800384c0-1.6621712 1.3522962-3.010405 3.0194756-3.010405h19.9618998c1.6671795 0 3.0186246 1.3482338 3.0186246 3.010405v12.9800384c0 1.6621713-1.3514451 3.0095566-3.0186246 3.0095566z" stroke-linecap="round" stroke-linejoin="round"/><g transform="matrix(-1 0 0 1 36.4631 38)"><path d="m0 10.2772h8.014l6.486-7.307h6.025"/><path d="m23.4941 5.939c1.64 0 2.969-1.329 2.969-2.969s-1.329-2.97-2.969-2.97-2.969 1.33-2.969 2.97 1.329 2.969 2.969 2.969z"/><path d="m0 18.2836h8.014l6.486 7.307h6.025"/><path d="m23.4941 22.6217c1.64 0 2.969 1.329 2.969 2.969s-1.329 2.97-2.969 2.97-2.969-1.33-2.969-2.97 1.329-2.969 2.969-2.969z"/><path d="m0 14.2804h14.887"/><path d="m16.9667 17.2497c1.64 0 2.969-1.329 2.969-2.969s-1.329-2.97-2.969-2.97-2.969 1.33-2.969 2.97 1.329 2.969 2.969 2.969z"/></g><path d="m41 43.2222222v-7.5463751c0-4.2394524 3.5815145-7.6758471 8-7.6758471s8 3.4363947 8 7.6758471v7.5463751" stroke-linecap="round" stroke-linejoin="round"/><path d="m52 52c0 1.6567878-1.3429982 3-2.9995221 3-1.6574797 0-3.0004779-1.3432122-3.0004779-3s1.3429982-3 3.0004779-3c1.6565239 0 2.9995221 1.3432122 2.9995221 3z" stroke-linecap="round" stroke-linejoin="round"/></g></g><g transform="translate(795 192)"><use fill="#000" filter="url(#z)" xlink:href="#y"/><use fill="none" xlink:href="#y"/></g><rect fill="#30b09c" height="46" rx="6" width="139" x="821" y="216.5"/><g transform="translate(795 192)"><use fill="#000" filter="url(#B)" xlink:href="#A"/><use fill="none" xlink:href="#A"/></g><circle cx="832" cy="240" fill="#4fceba" r="37"/><text fill="#fff" font-family="Strawford-Medium, Strawford" font-size="18" font-weight="400" letter-spacing="-.135" transform="translate(789 174)"><tspan x="90.2725" y="70">Observe</tspan></text><g stroke="#fff" stroke-linecap="round" stroke-linejoin="round" stroke-width="1.5" transform="translate(804 223)"><path d="m51.7297783 28.2384783h-36.468c-1.149 0-2.08-.931-2.08-2.08v-20.71400003c0-1.149.931-2.08 2.08-2.08h36.468c1.149 0 2.08.931 2.08 2.08v20.71400003c0 1.149-.931 2.08-2.08 2.08z"/><path d="m30.3704783 10.8428783 10.835-.174 8.329 2.604-6.5344783 7.7271217"/><path d="m43 21-1.794922-10.330922"/><path d="m43 21-11-10"/><path d="m17.8704783 22.9955783c.959 0 1.736.777 1.736 1.736s-.777 1.736-1.736 1.736"/><path d="m17.8704783 12.5786783c.959 0 1.736.777 1.736 1.736s-.777 1.736-1.736 1.736"/><g fill="#4fceba"><path d="m34.1068783 10.8425783c0 .959-.777 1.736-1.736 1.736s-1.736-.777-1.736-1.736c0-.95900003.777-1.73600003 1.736-1.73600003s1.736.777 1.736 1.73600003z"/><path d="m44.9412783 21.3010783c0 .959-.777 1.736-1.736 1.736s-1.736-.777-1.736-1.736.777-1.736 1.736-1.736 1.736.777 1.736 1.736z"/><path d="m42.9412783 10.6689783c0 .959-.777 1.736-1.736 1.736s-1.736-.777-1.736-1.736c0-.95900003.777-1.73600003 1.736-1.73600003s1.736.777 1.736 1.73600003z"/><path d="m50.8571783 13.2731783c0 .959-.777 1.736-1.736 1.736s-1.736-.777-1.736-1.736.777-1.736 1.736-1.736 1.736.777 1.736 1.736z"/><path d="m5.36187827 31.4648783.26-6.816c-3.039-2.207-5.157-5.654-5.555-9.687-.739-7.48700003 4.731-14.15600003 12.21900003-14.89500003 7.487-.739 14.156 4.731 14.895 12.21900003.067.677.083 1.347.052 2.007l4.213 5.656c.329.441.087 1.075-.453 1.184l-1.919.387c-.49.098-.829.547-.791 1.045l.413 5.416c.096 1.256-.927 2.314-2.186 2.259l-3.447-.152c-.434-.019-.785.351-.742.784l-.959 4.703"/></g></g><g transform="translate(789 18)"><use fill="#000" filter="url(#D)" xlink:href="#C"/><use fill="none" xlink:href="#C"/></g><rect fill="#7352ba" height="46" rx="6" width="139" x="815" y="42.5"/><g transform="translate(789 18)"><use fill="#000" filter="url(#F)" xlink:href="#E"/><use fill="none" xlink:href="#E"/></g><circle cx="826" cy="66" fill="#9478d2" r="37"/><text fill="#fff" font-family="Strawford-Medium, Strawford" font-size="18" font-weight="400" letter-spacing="-.135" transform="translate(783)"><tspan x="109.0645" y="70">Run</tspan></text><g stroke="#fff" stroke-width="1.5" transform="translate(802 41)"><path d="m35.6962316 24.2249628c0 6.284-5.094 11.378-11.378 11.378-6.283 0-11.377-5.094-11.377-11.378s5.094-11.378 11.377-11.378c6.284 0 11.378 5.094 11.378 11.378z"/><path d="m29.9923316 25.0096628-8.562 5.206c-.483.293-1.101-.054-1.101-.619v-10.412c0-.565.618-.913 1.101-.619l8.562 5.206c.464.282.464.956 0 1.238z"/><g stroke-linecap="round"><path d="m31.3335316 40.7395628c-5.968 2.614-12.589 1.704-17.536-1.819"/><path d="m40.5258316 17.2206628c.076.173.149.347.219.522 2.21 5.505 1.479 11.503-1.49 16.199"/><path d="m17.0070316 8.02836275c2.522-1.104 5.16-1.58 7.74-1.495 4.456.147 8.736 1.967 11.935 5.10500005"/><path d="m7.81473162 31.5471628c-2.305-5.264-1.87-11.036.682-15.719"/><path d="m15.5636316 39.0497628c-.571 1.204-2.01 1.718-3.214 1.147-1.205-.57-1.718-2.009-1.148-3.214.571-1.204 2.01-1.718 3.215-1.147 1.204.571 1.718 2.01 1.147 3.214z" fill="#9478d2"/><path d="m38.6505316 12.4458628c-.571 1.204-2.01 1.718-3.214 1.147-1.205-.57-1.718-2.009-1.148-3.214.571-1.20400005 2.01-1.71800005 3.215-1.14700005 1.204.571 1.718 2.01000005 1.147 3.21400005z" fill="#9478d2"/><path d="m22.3247316 48.4624628c-2.969-.243-5.943-1.04-8.776-2.44-12.03799998-5.948-16.97599998-20.528-11.02799998-32.567 1.821-3.68500005 4.451-6.70500005 7.56899998-8.95100005"/><path d="m20.1045316.34696275c8.601-1.468 17.708 1.749 23.403 9.144 8.202 10.65100005 6.218 25.93500005-4.433 34.13800005"/><path d="m12.3988316 5.66896275c-.338 1.673-1.968 2.756-3.64099998 2.419-1.674-.338-2.756-1.968-2.419-3.641.338-1.674 1.968-2.757 3.641-2.419 1.67399998.337 2.75699998 1.968 2.41899998 3.641z" fill="#9478d2"/><path d="m41.4397316 44.1060628c-.264 1.306-1.536 2.152-2.843 1.888-1.306-.263-2.152-1.536-1.888-2.842.263-1.307 1.536-2.152 2.843-1.889 1.306.264 2.152 1.537 1.888 2.843z" fill="#9478d2"/></g></g><g transform="translate(5 53)"><use fill="#000" filter="url(#H)" xlink:href="#G"/><use fill="none" xlink:href="#G"/></g><rect fill="#59418d" height="372" rx="16" width="265" x="5" y="53"/><g transform="translate(22 340)"><text fill="#fff" font-family="Strawford-Medium, Strawford" font-size="16" font-weight="400" letter-spacing="-.12"><tspan x="87" y="31">Workflow </tspan><tspan x="87" y="55">Orchestration</tspan></text><circle cx="37" cy="37" fill="#7352ba" r="37"/><g stroke="#fff" stroke-linejoin="round" stroke-width="1.5" transform="translate(11 19)"><path d="m15.934 28.746h21.131v-23.261h-21.131z"/><path d="m6.291 28.746h40.696v-23.261h-40.696z"/><path d="m5.8773 18.1164h40.696"/><g fill="#7352ba"><path d="m12.572 10.97h10.97v-10.97h-10.97z"/><path d="m30.016 10.97h10.97v-10.97h-10.97z"/><path d="m0 34.231h10.97v-10.97h-10.97z"/><path d="m21.154 34.231h10.97v-10.97h-10.97z"/><path d="m42.309 34.231h10.97v-10.97h-10.97z"/><path d="m15.9343 15.4247c1.487 0 2.692 1.205 2.692 2.692 0 1.486-1.205 2.691-2.692 2.691s-2.692-1.205-2.692-2.691c0-1.487 1.205-2.692 2.692-2.692z"/><path d="m23.3547 2.9736c1.487 0 2.692 1.205 2.692 2.692 0 1.486-1.205 2.691-2.692 2.691s-2.692-1.205-2.692-2.691c0-1.487 1.205-2.692 2.692-2.692z"/></g><path d="m47.7939 26.0544c1.487 0 2.692 1.205 2.692 2.692 0 1.486-1.205 2.691-2.692 2.691s-2.692-1.205-2.692-2.691c0-1.487 1.205-2.692 2.692-2.692z"/><path d="m46.9872 2.7934c1.487 0 2.692 1.205 2.692 2.692 0 1.486-1.205 2.691-2.692 2.691s-2.692-1.205-2.692-2.691c0-1.487 1.205-2.692 2.692-2.692z" fill="#7352ba"/><path d="m5.4849 26.3363c1.331 0 2.41 1.079 2.41 2.41s-1.079 2.409-2.41 2.409-2.41-1.078-2.41-2.409 1.079-2.41 2.41-2.41z" fill="#7352ba"/></g></g><g transform="translate(22 248)"><circle cx="37" cy="37" fill="#7352ba" r="37"/><g stroke="#fff" stroke-width="1.5"><path d="m18.2537 38.9524 11.664-16.566 13.825 7.738 12.295-10.478"/><path d="m18.0947 35.8062c1.738 0 3.146 1.409 3.146 3.146 0 1.738-1.408 3.146-3.146 3.146s-3.146-1.408-3.146-3.146c0-1.737 1.408-3.146 3.146-3.146z" fill="#7352ba"/><path d="m14.5 53.623h7.189v-8.396h-7.189z" stroke-linejoin="round"/><path d="m30.3083 19.2404c1.738 0 3.146 1.409 3.146 3.146 0 1.738-1.408 3.146-3.146 3.146s-3.146-1.408-3.146-3.146c0-1.737 1.408-3.146 3.146-3.146z" fill="#7352ba" stroke-linejoin="round"/><path d="m26.714 53.623h7.189v-20.617h-7.189z" stroke-linejoin="round"/><path d="m43.5186 26.9783c1.738 0 3.146 1.409 3.146 3.146 0 1.738-1.408 3.146-3.146 3.146s-3.146-1.408-3.146-3.146c0-1.737 1.408-3.146 3.146-3.146z" fill="#7352ba" stroke-linejoin="round"/><path d="m39.924 53.623h7.189v-16.791h-7.189z" stroke-linejoin="round"/><path d="m55.8132 16.5c1.738 0 3.146 1.409 3.146 3.146 0 1.738-1.408 3.146-3.146 3.146s-3.146-1.408-3.146-3.146c0-1.737 1.408-3.146 3.146-3.146z" fill="#7352ba" stroke-linejoin="round"/><path d="m52.219 53.623h7.189v-23.544h-7.189z" stroke-linejoin="round"/></g><text fill="#fff" font-family="Strawford-Medium, Strawford" font-size="16" font-weight="400" letter-spacing="-.12"><tspan x="87" y="31">Operational </tspan><tspan x="87" y="55">Analytics (BI)</tspan></text></g><g transform="translate(22 64)"><circle cx="37" cy="37" fill="#7352ba" r="37"/><g stroke="#fff" stroke-width="1.5" transform="translate(9 22)"><g transform="translate(27.949022 1.27878)"><path d="m0 10.2772h8.014l6.486-7.307h6.025"/><path d="m23.4941 5.939c1.64 0 2.969-1.329 2.969-2.969s-1.329-2.97-2.969-2.97-2.969 1.33-2.969 2.97 1.329 2.969 2.969 2.969z"/><path d="m0 18.2836h8.014l6.486 7.307h6.025"/><path d="m23.4941 22.6217c1.64 0 2.969 1.329 2.969 2.969s-1.329 2.97-2.969 2.97-2.969-1.33-2.969-2.97 1.329-2.969 2.969-2.969z"/><path d="m0 14.2804h14.887"/><path d="m16.9667 17.2497c1.64 0 2.969-1.329 2.969-2.969s-1.329-2.97-2.969-2.97-2.969 1.33-2.969 2.97 1.329 2.969 2.969 2.969z"/></g><path d="m21.168422 13.4197803c1.183 3.098-.372 6.567-3.47 7.749-3.096 1.181-6.565-.373-7.74600001-3.469-1.183-3.099.37100001-6.568 3.46700001-7.75000005 3.099-1.181 6.569.37200005 7.749 3.47000005zm-12.84100001-12.13600005c-.811.31-.621.947-.284 2.129.342 1.178.386 2.307-.464 3.156-.167.148-.33.294-.487.449-.011.01-.017.01-.028.018-.9.811-2.026.702-3.187.297-1.161-.408-1.788-.632-2.141.159-.354.787-.116.253-.684 1.527-.007.012-.01.02-.017.036-.571 1.27300005-.333.74-.683 1.52400005-.354.793.23 1.111 1.307 1.707 1.068.589 1.89 1.35 1.899 2.537-.014.223-.02.448-.021.672-.002.018-.011.027-.011.046-.06 1.209-.935 1.929-2.044 2.463-1.108.533-1.712.818-1.401 1.627.306.803.097.257.596 1.563.004.013.007.023.013.036.496 1.307.289.759.595 1.56.311.814.949.626 2.131.284 1.177-.339 2.302-.384 3.153.462.147.168.293.333.452.491.01.011.009.02.02.031.806.897.701 2.027.294 3.184-.407 1.163-.63 1.788.158 2.143.788.35.254.112 1.528.685.009.004.014.007.023.012.004.001.007.002.013.004 1.27300001.571.739.329 1.52600001.683.792.3511854 1.108-.231 1.705-1.309.588-1.069 1.355-1.896 2.548-1.9.217.013.435.022.652.02.024.003.032.013.057.013 1.204.064 1.927.938 2.46 2.045s.817 1.71 1.628 1.402c.803-.308.259-.1 1.564-.597.008-.002.012-.005.021-.008.006-.002.01-.003.014-.006 1.304-.497.758-.292 1.563-.596.81-.309.624-.947.281-2.13-.342-1.181-.387-2.314.474-3.163.161-.145.322-.287.474-.438.012-.013.021-.011.035-.023.898-.807 2.025-.7 3.187-.294 1.16.406 1.787.63 2.14-.16.35-.786.112-.251.687-1.525.003-.009.005-.016.008-.023.003-.005.004-.01.006-.013.57-1.275.329-.741.682-1.528.353-.791-.229-1.109-1.307-1.705-1.073-.591-1.902-1.357-1.901-2.557.012-.213.019-.425.019-.639.004-.024.013-.034.014-.06.064-1.206.937-1.926 2.046-2.458 1.105-.537 1.709-.82 1.402-1.63-.308-.803-.101-.258-.597-1.56400005-.003-.009-.005-.013-.009-.022-.001-.005-.003-.01-.006-.014-.499-1.305-.29-.756-.596-1.564-.309-.808-.947-.62-2.131-.28-1.181.344-2.316.386-3.161-.474-.002-.001-.003-.001-.003-.001-.144-.16-.286-.319-.437-.471-.01-.012-.01-.022-.021-.035-.81-.897-.702-2.025-.295-3.187.406-1.161.629-1.786-.16-2.141-.785-.353-.254-.114-1.525-.685-.012-.003-.02-.007-.032-.013 0-.002-.002-.002-.004-.002-1.275-.573-.743-.33-1.528-.683-.792-.354-1.11.23-1.705 1.307-.588 1.071-1.356 1.901-2.555 1.901-.213-.014-.429-.02-.646-.019-.023-.003-.03-.013-.054-.014-1.209-.063-1.93-.935-2.463-2.045s-.818-1.707-1.628-1.401c-.813.311-.239.092-1.59900001.611-1.301.496-.755.289-1.56.593z" fill="#7352ba"/></g><text fill="#fff" font-family="Strawford-Medium, Strawford" font-size="16" font-weight="400" letter-spacing="-.12"><tspan x="87" y="33">Data Integration</tspan> <tspan x="87" y="57">ETL / ELT</tspan></text></g><g transform="translate(22 156)"><text fill="#fff" font-family="Strawford-Medium, Strawford" font-size="16" font-weight="400" letter-spacing="-.12"><tspan x="87" y="31">Data Science / </tspan><tspan x="87" y="55">Machine Learning</tspan></text><circle cx="37" cy="37" fill="#7352ba" r="37"/><g stroke="#fff" stroke-width="1.5" transform="translate(13 16)"><path d="m5.111554 20.423324 21.122 5.46"/><path d="m5.111554 20.423324 30.707-12.424"/><path d="m35.818454 7.999424-9.585 17.884"/><path d="m35.8184541 7.9994242-22.182-3.514-8.52500001 15.938"/><path d="m5.11155409 20.4233242 4.782 17.266 16.34000001-11.806"/><path d="m26.2335541 25.8833242 23.87-1.51-14.285-16.374"/><g fill="#7352ba"><path d="m35.9427541 1.4965242c3.591.069 6.447 3.036 6.379 6.627-.069 3.592-3.036 6.447-6.628 6.379-3.591-.069-6.447-3.036-6.378-6.627.068-3.592 3.036-6.448 6.627-6.379"/><path d="m26.1479541 30.3678242c2.477.047 4.523-1.922 4.57-4.399.048-2.477-1.922-4.523-4.399-4.57-2.476-.047-4.523 1.922-4.57 4.399s1.922 4.523 4.399 4.57"/><path d="m13.7225541.0008242c2.477.047 4.446 2.094 4.399 4.57-.047 2.477-2.094 4.446-4.57 4.399-2.477-.047-4.44700001-2.093-4.39900001-4.57.047-2.477 2.09300001-4.446 4.57000001-4.399"/><path d="m49.3928541 20.4156242c2.177.042 3.909 1.841 3.867 4.018-.041 2.177-1.84 3.909-4.018 3.867-2.177-.041-3.909-1.84-3.867-4.018.042-2.177 1.841-3.909 4.018-3.867"/><path d="m9.83445409 40.7968242c1.71600001.033 3.13400001-1.332 3.16700001-3.048s-1.332-3.134-3.04800001-3.167c-1.716-.033-3.134 1.332-3.167 3.048s1.332 3.134 3.048 3.167"/><path d="m5.01395409 25.5336242c2.822.054 5.15400001-2.19 5.20800001-5.013.054-2.822-2.19000001-5.154-5.01300001-5.208-2.822-.053-5.154 2.191-5.208 5.013s2.191 5.154 5.013 5.208"/></g></g></g></g></svg>