<svg height="772" viewBox="0 0 372 772" width="372" xmlns="http://www.w3.org/2000/svg" xmlns:xlink="http://www.w3.org/1999/xlink"><defs><circle id="a" cx="25" cy="25" r="25"/><filter id="b" height="126%" width="124%" x="-12%" y="-8%"><feMorphology in="SourceAlpha" operator="erode" radius="0.5" result="shadowSpreadOuter1"/><feOffset dx="0" dy="1" in="shadowSpreadOuter1" result="shadowOffsetOuter1"/><feGaussianBlur in="shadowOffsetOuter1" result="shadowBlurOuter1" stdDeviation="1.5"/><feComposite in="shadowBlurOuter1" in2="SourceAlpha" operator="out" result="shadowBlurOuter1"/><feColorMatrix in="shadowBlurOuter1" result="shadowMatrixOuter1" type="matrix" values="0 0 0 0 0   0 0 0 0 0   0 0 0 0 0  0 0 0 0.06 0"/><feMorphology in="SourceAlpha" operator="erode" radius="0.5" result="shadowSpreadOuter2"/><feOffset dx="0" dy="3" in="shadowSpreadOuter2" result="shadowOffsetOuter2"/><feGaussianBlur in="shadowOffsetOuter2" result="shadowBlurOuter2" stdDeviation="2"/><feComposite in="shadowBlurOuter2" in2="SourceAlpha" operator="out" result="shadowBlurOuter2"/><feColorMatrix in="shadowBlurOuter2" result="shadowMatrixOuter2" type="matrix" values="0 0 0 0 0   0 0 0 0 0   0 0 0 0 0  0 0 0 0.1 0"/><feMerge><feMergeNode in="shadowMatrixOuter1"/><feMergeNode in="shadowMatrixOuter2"/></feMerge></filter><circle id="c" cx="25" cy="25" r="25"/><filter id="d" height="126%" width="124%" x="-12%" y="-8%"><feMorphology in="SourceAlpha" operator="erode" radius="0.5" result="shadowSpreadOuter1"/><feOffset dx="0" dy="1" in="shadowSpreadOuter1" result="shadowOffsetOuter1"/><feGaussianBlur in="shadowOffsetOuter1" result="shadowBlurOuter1" stdDeviation="1.5"/><feComposite in="shadowBlurOuter1" in2="SourceAlpha" operator="out" result="shadowBlurOuter1"/><feColorMatrix in="shadowBlurOuter1" result="shadowMatrixOuter1" type="matrix" values="0 0 0 0 0   0 0 0 0 0   0 0 0 0 0  0 0 0 0.06 0"/><feMorphology in="SourceAlpha" operator="erode" radius="0.5" result="shadowSpreadOuter2"/><feOffset dx="0" dy="3" in="shadowSpreadOuter2" result="shadowOffsetOuter2"/><feGaussianBlur in="shadowOffsetOuter2" result="shadowBlurOuter2" stdDeviation="2"/><feComposite in="shadowBlurOuter2" in2="SourceAlpha" operator="out" result="shadowBlurOuter2"/><feColorMatrix in="shadowBlurOuter2" result="shadowMatrixOuter2" type="matrix" values="0 0 0 0 0   0 0 0 0 0   0 0 0 0 0  0 0 0 0.1 0"/><feMerge><feMergeNode in="shadowMatrixOuter1"/><feMergeNode in="shadowMatrixOuter2"/></feMerge></filter><circle id="e" cx="25" cy="25" r="25"/><filter id="f" height="126%" width="124%" x="-12%" y="-8%"><feMorphology in="SourceAlpha" operator="erode" radius="0.5" result="shadowSpreadOuter1"/><feOffset dx="0" dy="1" in="shadowSpreadOuter1" result="shadowOffsetOuter1"/><feGaussianBlur in="shadowOffsetOuter1" result="shadowBlurOuter1" stdDeviation="1.5"/><feComposite in="shadowBlurOuter1" in2="SourceAlpha" operator="out" result="shadowBlurOuter1"/><feColorMatrix in="shadowBlurOuter1" result="shadowMatrixOuter1" type="matrix" values="0 0 0 0 0   0 0 0 0 0   0 0 0 0 0  0 0 0 0.06 0"/><feMorphology in="SourceAlpha" operator="erode" radius="0.5" result="shadowSpreadOuter2"/><feOffset dx="0" dy="3" in="shadowSpreadOuter2" result="shadowOffsetOuter2"/><feGaussianBlur in="shadowOffsetOuter2" result="shadowBlurOuter2" stdDeviation="2"/><feComposite in="shadowBlurOuter2" in2="SourceAlpha" operator="out" result="shadowBlurOuter2"/><feColorMatrix in="shadowBlurOuter2" result="shadowMatrixOuter2" type="matrix" values="0 0 0 0 0   0 0 0 0 0   0 0 0 0 0  0 0 0 0.1 0"/><feMerge><feMergeNode in="shadowMatrixOuter1"/><feMergeNode in="shadowMatrixOuter2"/></feMerge></filter><circle id="g" cx="25" cy="25" r="25"/><filter id="h" height="126%" width="124%" x="-12%" y="-8%"><feMorphology in="SourceAlpha" operator="erode" radius="0.5" result="shadowSpreadOuter1"/><feOffset dx="0" dy="1" in="shadowSpreadOuter1" result="shadowOffsetOuter1"/><feGaussianBlur in="shadowOffsetOuter1" result="shadowBlurOuter1" stdDeviation="1.5"/><feComposite in="shadowBlurOuter1" in2="SourceAlpha" operator="out" result="shadowBlurOuter1"/><feColorMatrix in="shadowBlurOuter1" result="shadowMatrixOuter1" type="matrix" values="0 0 0 0 0   0 0 0 0 0   0 0 0 0 0  0 0 0 0.06 0"/><feMorphology in="SourceAlpha" operator="erode" radius="0.5" result="shadowSpreadOuter2"/><feOffset dx="0" dy="3" in="shadowSpreadOuter2" result="shadowOffsetOuter2"/><feGaussianBlur in="shadowOffsetOuter2" result="shadowBlurOuter2" stdDeviation="2"/><feComposite in="shadowBlurOuter2" in2="SourceAlpha" operator="out" result="shadowBlurOuter2"/><feColorMatrix in="shadowBlurOuter2" result="shadowMatrixOuter2" type="matrix" values="0 0 0 0 0   0 0 0 0 0   0 0 0 0 0  0 0 0 0.1 0"/><feMerge><feMergeNode in="shadowMatrixOuter1"/><feMergeNode in="shadowMatrixOuter2"/></feMerge></filter><circle id="i" cx="25" cy="25" r="25"/><filter id="j" height="126%" width="124%" x="-12%" y="-8%"><feMorphology in="SourceAlpha" operator="erode" radius="0.5" result="shadowSpreadOuter1"/><feOffset dx="0" dy="1" in="shadowSpreadOuter1" result="shadowOffsetOuter1"/><feGaussianBlur in="shadowOffsetOuter1" result="shadowBlurOuter1" stdDeviation="1.5"/><feComposite in="shadowBlurOuter1" in2="SourceAlpha" operator="out" result="shadowBlurOuter1"/><feColorMatrix in="shadowBlurOuter1" result="shadowMatrixOuter1" type="matrix" values="0 0 0 0 0   0 0 0 0 0   0 0 0 0 0  0 0 0 0.06 0"/><feMorphology in="SourceAlpha" operator="erode" radius="0.5" result="shadowSpreadOuter2"/><feOffset dx="0" dy="3" in="shadowSpreadOuter2" result="shadowOffsetOuter2"/><feGaussianBlur in="shadowOffsetOuter2" result="shadowBlurOuter2" stdDeviation="2"/><feComposite in="shadowBlurOuter2" in2="SourceAlpha" operator="out" result="shadowBlurOuter2"/><feColorMatrix in="shadowBlurOuter2" result="shadowMatrixOuter2" type="matrix" values="0 0 0 0 0   0 0 0 0 0   0 0 0 0 0  0 0 0 0.1 0"/><feMerge><feMergeNode in="shadowMatrixOuter1"/><feMergeNode in="shadowMatrixOuter2"/></feMerge></filter><rect id="k" height="273" rx="16" width="362"/><filter id="l" height="107%" width="105.2%" x="-2.6%" y="-2%"><feMorphology in="SourceAlpha" operator="erode" radius="0.5" result="shadowSpreadOuter1"/><feOffset dx="0" dy="2" in="shadowSpreadOuter1" result="shadowOffsetOuter1"/><feGaussianBlur in="shadowOffsetOuter1" result="shadowBlurOuter1" stdDeviation="2"/><feComposite in="shadowBlurOuter1" in2="SourceAlpha" operator="out" result="shadowBlurOuter1"/><feColorMatrix in="shadowBlurOuter1" result="shadowMatrixOuter1" type="matrix" values="0 0 0 0 0   0 0 0 0 0   0 0 0 0 0  0 0 0 0.119429155 0"/><feMorphology in="SourceAlpha" operator="erode" radius="0.5" result="shadowSpreadOuter2"/><feOffset dx="0" dy="4" in="shadowSpreadOuter2" result="shadowOffsetOuter2"/><feGaussianBlur in="shadowOffsetOuter2" result="shadowBlurOuter2" stdDeviation="3"/><feComposite in="shadowBlurOuter2" in2="SourceAlpha" operator="out" result="shadowBlurOuter2"/><feColorMatrix in="shadowBlurOuter2" result="shadowMatrixOuter2" type="matrix" values="0 0 0 0 0   0 0 0 0 0   0 0 0 0 0  0 0 0 0.202809154 0"/><feMerge><feMergeNode in="shadowMatrixOuter1"/><feMergeNode in="shadowMatrixOuter2"/></feMerge></filter></defs><g fill="none" fill-rule="evenodd"><g stroke="#9478d2" stroke-linejoin="round" stroke-width="2"><path d="m180 342-128-82"/><path d="m180 342-145 77"/><path d="m148 502-113-83"/><path d="m180 748-162-147"/><path d="m187 748-71-108"/><path d="m187 748 75-161"/><path d="m148 502-130 92"/><path d="m148 502-32 138"/><path d="m148 502 121 85"/><path d="m180 342 82 92"/><path d="m148 502 121-83"/><path d="m180 342-32-82"/><path d="m180 342 76-82"/><path d="m180 342 151-82"/></g><g transform="translate(172 319.5)"><rect fill="#7352ba" height="39" rx="6" width="129"/><rect fill="#7352ba" height="39" rx="6" width="129"/><text fill="#fff" font-family="Strawford-Medium, Strawford" font-size="18" font-weight="400" letter-spacing="-.135"><tspan x="47" y="27.5">Discover</tspan></text></g><circle cx="183" cy="340" fill="#9478d2" r="25"/><circle cx="183" cy="340" fill="#9478d2" r="25"/><g transform="translate(138 482.5)"><rect fill="#7352ba" height="39" rx="6" width="118"/><rect fill="#7352ba" height="39" rx="6" width="118"/><text fill="#fff" font-family="Strawford-Medium, Strawford" font-size="18" font-weight="400" letter-spacing="-.135"><tspan x="47" y="27.5">Deploy</tspan></text></g><circle cx="149" cy="503" fill="#9478d2" r="25"/><circle cx="149" cy="503" fill="#9478d2" r="25"/><path d="m172.580783 344.984408 2.325079-4.175606" fill="#00a7fb"/><path d="m172.580783 344.984408 1.465585-1.946524" stroke="#fff" stroke-width=".657"/><g stroke="#fff" transform="translate(172 325)"><path d="m2.31607918 29.8889119-1.89250598-1.0940796c-.40489329-.2341645-.54457825-.7608707-.30898057-1.1708226l4.56776273-7.8245061c.22143608-.3791235.69906854-.5083403 1.0756386-.2905739l1.64403411.9504325c.37657007.2177665.51303649.7018377.30704944 1.0894882l-4.2478391 8.0101323c-.22465462.4158552-.73962224.5640938-1.14515923.3299292z"/><path d="m20.6852314 14.579668c-2.6598077 4.6013002-8.4776543 6.1348483-12.99327656 3.4239183-4.51626597-2.710274-6.02061511-8.63850649-3.36016368-13.23980666 2.65980772-4.6019561 8.47765434-6.13484826 12.99327664-3.4239183 4.5156222 2.71027402 6.0206151 8.63850652 3.3601636 13.23980666z"/><path d="m3.54099402 12.8437021 6.12425234-6.2384841 5.79209824 7.6762674 6.1976352-7.6762674"/><g fill="#9478d2"><path d="m11.6212865 6.63093018c0 1.08722402-.8646553 1.96776914-1.93080254 1.96776914-1.06679936 0-1.93145459-.88054512-1.93145459-1.96776914 0-1.08722401.86465523-1.96776914 1.93145459-1.96776914 1.06614724 0 1.93080254.88054513 1.93080254 1.96776914z"/><path d="m17.6154451 13.2008522c0 1.0871776-.8649239 1.9677691-1.9311285 1.9677691-1.066934 0-1.9311286-.8805915-1.9311286-1.9677691s.8641946-1.9677691 1.9311286-1.9677691c1.0662046 0 1.9311285.8805915 1.9311285 1.9677691z"/></g></g><g transform="translate(25 401.5)"><rect fill="#30b09c" height="39" rx="6" width="104"/><rect fill="#30b09c" height="39" rx="6" width="104"/><text fill="#fff" font-family="Strawford-Medium, Strawford" font-size="18" font-weight="400" letter-spacing="-.135"><tspan x="47" y="27.5">Write</tspan></text></g><g transform="translate(11 397)"><use fill="#000" filter="url(#b)" xlink:href="#a"/><use fill="none" xlink:href="#a"/></g><circle cx="36" cy="422" fill="#4fceba" r="25"/><g stroke="#fff" stroke-linecap="round" stroke-linejoin="round" transform="translate(19 406)"><path d="m6.29744678 7.88809061-3.48694624 15.30465039 20.83445466-21.33949588"/><path d="m5.574392 23.844107 16.128576 3.128546"/><path d="m23.645218 1.853049-17.347509 6.034846"/><g fill="#4fceba"><path d="m4.95021457 21.3784984c1.00601383 1.1771803.86304707 2.9442573-.31872407 3.9457098-1.18177113 1.0021057-2.95508365.8603476-3.96109748-.3168327-1.00601383-1.1778336-.86370288-2.9442573.31872407-3.946363 1.18177114-1.0021058 2.95508365-.8596944 3.96109748.3174859z"/><path d="m24.0171934 25.0101192c1.0879902 1.27321.9338746 3.1840049-.3443007 4.2677685-1.2788311 1.0837637-3.196422.9302468-4.2844122-.3436164-1.0879902-1.27321-.9338747-3.1840049.3443007-4.2671153 1.2781753-1.0837636 3.196422-.9302468 4.2844122.3429632z"/><path d="m8.01986838 6.42778604c.80992638.94788491.69450368 2.36938564-.25642204 3.1761657-.95158153.80612676-2.37862592.69180576-3.18855231-.25542591-.80927058-.94788491-.69450368-2.36938565.25642204-3.17616571.95158153-.80678005 2.37862592-.69245899 3.18855231.25542592z"/><path d="m25.0617033.65209007c.665648.779343.5712113 1.94868413-.2111711 2.61174629-.7817265.66371541-1.9562837.56964551-2.6219317-.20969749s-.5712113-1.94868414.2111711-2.61239956c.7823823-.66306215 1.9562837-.56899225 2.6219317.21035076z"/></g><g transform="matrix(.99862953 .05233596 -.05233596 .99862953 15.361974 2.119514)"><path d="m5.19205443 17.1206782-5.19205443 1.9591363 1.8572563-5.1692717 11.0786125-11.41969411 3.3347982 3.21013538z"/><path d="m16.2707981 5.7010494-3.3347981-3.21013539 1.8808655-1.93888519c.6964711-.71858953 1.8461075-.73818742 2.5668436-.04376863l.7240152.69637857c.7213919.69441879.7404104 1.83958919.0439393 2.55752545z"/><path d="m1.856994 13.910282 3.334798 3.210135"/></g></g><g transform="translate(255 401.5)"><rect fill="#30b09c" height="39" rx="6" width="93"/><rect fill="#30b09c" height="39" rx="6" width="93"/><text fill="#fff" font-family="Strawford-Medium, Strawford" font-size="18" font-weight="400" letter-spacing="-.135"><tspan x="47" y="27.5">Test</tspan></text></g><g transform="translate(241 397)"><use fill="#000" filter="url(#d)" xlink:href="#c"/><use fill="none" xlink:href="#c"/></g><circle cx="266" cy="422" fill="#4fceba" r="25"/><g stroke="#fff" stroke-linecap="round" stroke-linejoin="round" transform="translate(250 411)"><path d="m27.0327265 6.64256612c1.8087104 2.08582673 1.5523577 5.21523238-.5730635 6.99091378-2.1254212 1.775016-5.3142312 1.5227734-7.1229416-.5623878-1.8093886-2.0858267-1.5523577-5.21589793.5723853-6.99091385 2.1254212-1.77501591 5.3149094-1.52343886 7.1236198.56238787z"/><path d="m5.07537565 10.7282308 8.09748865 1.8329186.8165306-6.76795535"/><path d="m13.989327 5.792928-8.914019 4.935037" fill="#9478d2"/><g fill="#4fceba"><path d="m14.9397308 11.0851641c.8307725.9577232.7127689 2.3946409-.2631344 3.2092713-.9759034.8152961-2.4400975.6994908-3.2701918-.2575669-.8307725-.9577233-.7127689-2.3946409.2631344-3.209937.9752252-.8146304 2.4394194-.6994907 3.2701918.2582326z"/><path d="m6.49738688 9.54049424c.66868708.77070436.57374166 1.92742636-.21159267 2.58299096-.78533432.6562301-1.96401398.5630534-2.63270107-.207651-.6680089-.7707043-.57374165-1.92742631.21227085-2.58299086.78533433-.65623011 1.96333581-.56305342 2.63202289.2076509z"/><path d="m15.0778707 4.26761947c.6714477.77350206.5762362 1.93538017-.2127769 2.59350693-.7881851.65893926-1.9712908.56550151-2.6427385-.20881306-.6706197-.77350207-.5754083-1.93456767.2127769-2.59350693.7881852-.65812676 1.9712909-.56468901 2.6427385.20881306z"/></g><path d="m20.4983109 8.867093 2.3207375 2.6641877 6.2786055-7.20721681"/><path d="m30.3615132 19.2270097h-28.72370457c-.90469429 0-1.63780863-.7201227-1.63780863-1.6079635v-16.01108278c0-.88784073.73311434-1.60796342 1.63780863-1.60796342h28.72370457c.9046943 0 1.6384868.72012269 1.6384868 1.60796342v16.01108278c0 .8878408-.7337925 1.6079635-1.6384868 1.6079635z"/><path d="m9.686875 22.667226h12.625707"/><path d="m12.2990951 22.594748v-3.3676718h7.4016742v3.3676718"/></g><g stroke="#fff" stroke-linecap="round" stroke-linejoin="round" transform="translate(134 488)"><path d="m13.4197435 21.1870533.349698 4.6446612c1.4242977-.662441 4.7279702-2.7186246 7.3470134-8.3025471"/><path d="m12.0370606 7.54056364c-5.498514 2.65320676-7.52958129 5.99915316-8.18602009 7.44729586l4.54338879.3525673"/><path d="m28.2143169 8.97651797c.3939975-1.59688203.608112-3.19720709.7101352-4.69630677.0080545-.12532666.0167801-.25065332.0234922-.3773572.0107393-.19005582.019465-.3773572.0268482-.56328137.0080545-.21346849.0140953-.4283142.0181226-.64384851.0026848-.14873933.0053696-.29541284.0060408-.44070914.0020136-.29610145.0013424-.59495734-.0040272-.89519044-.0013424-.06817219-.0033561-.13427856-.0046985-.20176215-.0087256-.36083061-.0214785-.72372704-.0416147-1.09006651-2.3465338-.14460769-5.5703329-.12188363-8.8001729.71133209"/><path d="m21.0752429 11.5592112c-.4792406.4861573-1.1088312.729236-1.7384218.729236s-1.2591812-.2430787-1.7384218-.729236c-.4651452-.4716965-.7215457-1.099707-.7215457-1.76765677 0-.66794979.2564005-1.29596031.7215457-1.76765681.9584812-.97300315 2.5183624-.97231454 3.4768436 0 .4651453.4716965.7215457 1.09970702.7215457 1.76765681 0 .66794977-.2564004 1.29527167-.7215457 1.76765677zm4.2534281 2.6807511c.1456515-.1638887.2879471-.3319091.4255442-.5054383.0181225-.0227241.0375875-.0447595.0550388-.0674836.1449803-.1852355.2839198-.3780458.4208457-.5729219.0469844-.0681721.0932976-.1363443.1389395-.2045165.1060505-.1576913.2087449-.3188256.3087545-.4827143.0644357-.1060456.1268578-.2127798.1879375-.3195141.0731613-.1273925.1443091-.2554736.2141145-.3863091.0604084-.1143089.1214881-.2286179.1792118-.344304.0429571-.0867646.0832294-.1749065.1255154-.2623597.1100776-.2334381.2161281-.4682534.3154665-.7051346.0154377-.0371848.0302042-.0750583.0456419-.1122431.176527-.43175724.3329179-.86971195.4725286-1.31042109l-8.0699016-8.18754948c-2.0559018.68103334-3.7983508 1.68020359-5.1984851 2.97409808-.0362451.03305319-.0724902.06679498-.1080641.10053677-.183239.17284062-.3617797.35050149-.5322658.53367123-.0604085.06541776-.1188034.13496717-.1785406.20313937-1.3477803 1.52870982-2.4767477 3.52360729-3.4399273 5.44206922-.2147857.4420864-.4188321.8704006-.608112 1.268416-.75107875 1.5714036-3.0546554 7.3405616-3.39495649 8.4602383l2.84255452 2.8838904c1.13433697-.3553217 5.72940857-2.1952824 6.77246167-2.6656017.2114297-.1005367.4228593-.2003849.6329466-.3036761 2.6660275-1.2938945 5.685109-2.7585638 7.7530926-4.7631017.1758558-.1693976.3443283-.3470585.5101161-.5281624.0442995-.0482026.0865854-.0964051.1295426-.1446077z"/><path d="m5.102234 21.305632-4.368875 4.219101"/><path d="m6.79394 22.438943-6.79394 6.561057"/><path d="m7.943916 24.170792-4.368875 4.219101"/></g><g transform="translate(173 726.5)"><rect fill="#7352ba" height="39" rx="6" width="104"/><rect fill="#7352ba" height="39" rx="6" width="104"/><text fill="#fff" font-family="Strawford-Medium, Strawford" font-size="18" font-weight="400" letter-spacing="-.135"><tspan x="47" y="27.5">Scale</tspan></text></g><circle cx="184" cy="747" fill="#9478d2" r="25"/><circle cx="184" cy="747" fill="#9478d2" r="25"/><g stroke="#fff" stroke-linecap="round" stroke-linejoin="round" transform="translate(169 733)"><g transform="translate(2.055223 1.526646)"><path d="m25.3731471 3.05136049v-2.71232044h-2.7417388"/><path d="m19.838947.33904h-15.358535" stroke-dasharray="5.4999 2.74995"/><path d="m3.08445609.33904005h-2.74173875v2.71232044"/><path d="m.342717 5.814062v15.193741" stroke-dasharray="5.4999 2.74995"/><path d="m.34271734 22.3885778v2.7123204h2.74173875"/><path d="m5.876917 25.100898h15.358535" stroke-dasharray="5.4999 2.74995"/><path d="m22.6314083 25.1008982h2.7417388v-2.7123204"/><path d="m25.373147 19.626283v-15.193741" stroke-dasharray="5.4999 2.74995"/></g><path d="m2.39794055 26.6276803h8.48979405v-8.3987002h-8.48979405z"/><path d="m10.88746 18.229251 11.388087-10.938924"/><path d="m22.158063 12.6270213v-5.48905848h-5.5485938"/><g fill="#9478d2"><path d="m13.496499 18.7498813c-.2906243 1.4253243-1.6943945 2.3481914-3.1351782 2.0606854-1.4414692-.287506-2.37366037-1.676214-2.08303606-3.1022165.2906243-1.4253244 1.69439454-2.3475133 3.13517826-2.0600074 1.4414691.287506 2.3736603 1.6762141 2.083036 3.1015385z"/><path d="m5.27128276 3.15403876c-.29062431 1.42532439-1.69439455 2.34819142-3.13517826 2.06068545-1.44146915-.28750597-2.37366032-1.67621403-2.08303602-3.1022165.29062431-1.42532439 1.69439455-2.34751334 3.13517827-2.06000737 1.44146914.28750597 2.37366032 1.67621403 2.08303601 3.10153842z"/><path d="m29.9469315 3.15403876c-.2906243 1.42532439-1.6943945 2.34819142-3.1351782 2.06068545-1.4414692-.28750597-2.3736604-1.67621403-2.0830361-3.1022165.2906243-1.42532439 1.6943946-2.34751334 3.1351783-2.06000737 1.4414691.28750597 2.3736603 1.67621403 2.083036 3.10153842z"/><path d="m29.9469315 26.8868426c-.2906243 1.4253244-1.6943945 2.3481914-3.1351782 2.0606854-1.4414692-.2875059-2.3736604-1.676214-2.0830361-3.1022165.2906243-1.4253244 1.6943946-2.3475133 3.1351783-2.0600074 1.4414691.287506 2.3736603 1.6762141 2.083036 3.1015385z"/></g></g><g transform="translate(251 565.5)"><rect fill="#65686f" height="39" rx="6" width="116"/><rect fill="#858993" height="39" rx="6" width="116"/><text fill="#fff" font-family="Strawford-Medium, Strawford" font-size="18" font-weight="400" letter-spacing="-.135"><tspan x="47" y="27.5">Secure</tspan></text></g><g transform="translate(237 561)"><use fill="#000" filter="url(#f)" xlink:href="#e"/><use fill="none" xlink:href="#e"/></g><circle cx="262" cy="586" fill="#9ba0a8" r="25"/><g stroke="#fff" stroke-width="1.0125" transform="translate(245 571)"><path d="m32.9682334 22.924895h-13.435894c-1.1221401 0-2.0323394-.9084902-2.0323394-2.0292284v-8.7519417c0-1.1207383.9101993-2.0298006 2.0323394-2.0298006h13.435894c1.1221401 0 2.0317666.9090623 2.0317666 2.0298006v8.7519417c0 1.1207382-.9096265 2.0292284-2.0317666 2.0292284z" stroke-linecap="round" stroke-linejoin="round"/><g transform="matrix(-1 0 0 1 17.811702 6.742616)"><path d="m0 6.92952151h5.39403846l4.36557692-4.92682965h4.05528842"/><path d="m15.8133365 4.00443975c1.1038462 0 1.9983654-.89609369 1.9983654-2.00188274 0-1.10578906-.8945192-2.00255701-1.9983654-2.00255701-1.1038461 0-1.9983653.89676795-1.9983653 2.00255701 0 1.10578905.8945192 2.00188274 1.9983653 2.00188274z"/><path d="m0 12.3279297h5.39403846l4.36557692 4.9268297h4.05528842"/><path d="m15.8133365 15.2529441c1.1038462 0 1.9983654.8960937 1.9983654 2.0018827 0 1.1057891-.8945192 2.002557-1.9983654 2.002557-1.1038461 0-1.9983653-.8967679-1.9983653-2.002557 0-1.105789.8945192-2.0018827 1.9983653-2.0018827z"/><path d="m0 9.628726h10.020096"/><path d="m11.4198942 11.6308106c1.1038462 0 1.9983654-.8960936 1.9983654-2.0018827 0-1.10578906-.8945192-2.00255701-1.9983654-2.00255701-1.1038461 0-1.99836535.89676795-1.99836535 2.00255701 0 1.1057891.89451925 2.0018827 1.99836535 2.0018827z"/></g><g stroke-linecap="round" stroke-linejoin="round"><path d="m20.8653846 10.2637602v-5.08823113c0-2.85850002 2.4106348-5.17552907 5.3846154-5.17552907s5.3846154 2.31702905 5.3846154 5.17552907v5.08823113"/><path d="m28.2692308 16.1822788c0 1.1171084-.9039412 2.0227849-2.0189091 2.0227849-1.1156113 0-2.0195525-.9056765-2.0195525-2.0227849s.9039412-2.0227848 2.0195525-2.0227848c1.1149679 0 2.0189091.9056764 2.0189091 2.0227848z"/></g></g><g transform="translate(107 613.5)"><rect fill="#65686f" height="39" rx="6" width="128"/><rect fill="#858993" height="39" rx="6" width="128"/><text fill="#fff" font-family="Strawford-Medium, Strawford" font-size="18" font-weight="400" letter-spacing="-.135"><tspan x="47" y="27.5">Observe</tspan></text></g><g transform="translate(93 609)"><use fill="#000" filter="url(#h)" xlink:href="#g"/><use fill="none" xlink:href="#g"/></g><circle cx="118" cy="634" fill="#9ba0a8" r="25"/><g stroke="#fff" stroke-linecap="round" stroke-linejoin="round" transform="translate(99 621)"><path d="m34.6084314 19.0506197h-24.3979448c-.76870791 0-1.39156868-.6280836-1.39156868-1.4032374v-13.97435558c0-.77515374.62286077-1.40323741 1.39156868-1.40323741h24.3979448c.7687078 0 1.3915686.62808367 1.3915686 1.40323741v13.97435558c0 .7751538-.6228608 1.4032374-1.3915686 1.4032374z"/><path d="m20.3185602 7.3149675 7.2488683-.1173862 5.5722958 1.75674529-4.3717187 5.21297421"/><path d="m28.768006 14.167301-1.200845-6.969585"/><path d="m28.768006 14.167301-7.359258-6.746334"/><path d="m11.9557679 15.5135845c.6415934 0 1.1614246.5241901 1.1614246 1.1711635s-.5198312 1.1711635-1.1614246 1.1711635"/><path d="m11.9557679 8.48599611c.6415934 0 1.1614246.52419013 1.1614246 1.17116353 0 .64697336-.5198312 1.17116356-1.1614246 1.17116356"/><g fill="#9ba0a8"><path d="m22.8182991 7.31476511c0 .64697341-.5198311 1.17116353-1.1614245 1.17116353-.6415935 0-1.1614246-.52419012-1.1614246-1.17116353 0-.6469734.5198311-1.17116353 1.1614246-1.17116353.6415934 0 1.1614245.52419013 1.1614245 1.17116353z"/><path d="m30.0667661 14.3704182c0 .6469734-.5198312 1.1711635-1.1614246 1.1711635s-1.1614246-.5241901-1.1614246-1.1711635.5198312-1.1711635 1.1614246-1.1711635 1.1614246.5241901 1.1614246 1.1711635z"/><path d="m28.7287193 7.19764876c0 .6469734-.5198311 1.17116353-1.1614246 1.17116353-.6415934 0-1.1614246-.52419013-1.1614246-1.17116353s.5198312-1.17116353 1.1614246-1.17116353c.6415935 0 1.1614246.52419013 1.1614246 1.17116353z"/><path d="m34.0246416 8.95452898c0 .6469734-.5198312 1.17116352-1.1614246 1.17116352-.6415935 0-1.1614246-.52419012-1.1614246-1.17116352s.5198311-1.17116353 1.1614246-1.17116353c.6415934 0 1.1614246.52419013 1.1614246 1.17116353z"/><path d="m3.58722195 21.2272569.17394608-4.5983011c-2.03316207-1.4889158-3.4501536-3.8143771-3.7164249-6.5351734-.49440828-5.05098008 3.16514963-9.55011003 8.17479674-10.04866409 5.00897813-.49855406 9.47069503 3.19169048 9.96510333 8.24334515.0448246.45672679.0555289.90873115.0347892 1.35398917l2.8185955 3.81572637c.2201087.2975133.0582051.7252308-.3030676.7987659l-1.2838558.2610831c-.3278215.0661141-.5546204.3690244-.5291975.7049919l.2763066 3.6538143c.0642263.8473395-.6201847 1.5611016-1.4624851 1.5239968l-2.3061236-.1025443c-.2903562-.012818-.5251834.2367963-.4964154.5289126l-.6415934 3.1728007"/></g></g><g transform="translate(19 566.5)"><rect fill="#65686f" height="39" rx="6" width="90"/><rect fill="#858993" height="39" rx="6" width="90"/><text fill="#fff" font-family="Strawford-Medium, Strawford" font-size="18" font-weight="400" letter-spacing="-.135"><tspan x="47" y="27.5">Run</tspan></text></g><g transform="translate(5 562)"><use fill="#000" filter="url(#j)" xlink:href="#i"/><use fill="none" xlink:href="#i"/></g><circle cx="30" cy="587" fill="#9ba0a8" r="25"/><g stroke="#fff" stroke-width=".9855" transform="translate(14 571)"><path d="m23.5207539 15.9958608c0 4.1493558-3.3565089 7.5129488-7.4971258 7.5129488-4.1399579 0-7.49646681-3.363593-7.49646681-7.5129488s3.35650891-7.51294877 7.49646681-7.51294877c4.1406169 0 7.4971258 3.36359297 7.4971258 7.51294877z"/><path d="m19.7623732 16.514002-5.6416234 3.4375472c-.3182555.1934693-.7254645-.0356565-.7254645-.4087288v-6.8750942c0-.3730723.407209-.6028584.7254645-.4087287l5.6416234 3.4375471c.3057362.186206.3057362.6312515 0 .8174574z"/><g stroke-linecap="round"><path d="m20.6461089 26.9005315c-3.9323999 1.726037-8.2950708 1.1251595-11.55471938-1.2010945"/><path d="m26.7030459 11.3708874c.0500775.1142328.0981783.2291258.1443023.3446792 1.4562003 3.6349783.9745341 7.5954868-.9817822 10.6962785"/><path d="m11.2061746 5.301167c1.6617817-.72897658 3.3999973-1.04328169 5.099996-.98715578 2.9361216.09706482 5.7562744 1.29881967 7.8641409 3.37085634"/><path d="m5.14923764 20.8307451c-1.51879724-3.4758448-1.23216956-7.2871245.44937948-10.3793322"/><path d="m10.2550979 25.7847484c-.37624002.795007-1.32441756 1.1344037-2.11775026.7573697-.79399161-.3763738-1.13201459-1.3265525-.7564335-2.1222199.37624001-.795007 1.32441755-1.1344037 2.11840916-.7573697.7933327.3770341 1.1320146 1.3272128.7557746 2.1222199z" fill="#9ba0a8"/><path d="m25.4673841 8.21806374c-.37624.79500706-1.3244175 1.13440376-2.1177502.75736969-.7939916-.37637378-1.1320146-1.32655248-.7564335-2.12221985.37624-.79500705 1.3244175-1.13440376 2.1184092-.75736968.7933326.37703408 1.1320145 1.32721278.7557745 2.12221984z" fill="#9ba0a8"/><path d="m14.7100827 32c-1.9563163-.1604541-3.9159271-.6867171-5.78263104-1.6111439-7.93200914-3.9274933-11.18572747-13.5547383-7.2665058-21.50414856 1.19988276-2.43322344 2.93282711-4.42734413 4.98732158-5.91038886"/><path d="m13.2471614.22910119c5.667321-.96932754 11.6680526 1.15487322 15.420569 6.0378277 5.4044143 7.03290711 4.0971285 17.12500671-2.9209666 22.54148751"/><path d="m8.16976622 3.74324369c-.222713 1.10469005-1.29674314 1.81980022-2.3991066 1.59727748-1.10302237-.22318305-1.81596754-1.29947998-1.59391345-2.40417002.222713-1.10535035 1.29674314-1.82046052 2.3991066-1.59727748 1.10302237.22252274 1.81662645 1.29947998 1.59391345 2.40417002z" fill="#9ba0a8"/><path d="m27.3052276 29.1234479c-.1739533.8623581-1.0120922 1.4209761-1.873293 1.2466556-.860542-.1736602-1.4179834-1.0142283-1.2440301-1.8765865.1732945-.8630184 1.0120923-1.420976 1.8732931-1.2473159.860542.1743205 1.4179834 1.0148886 1.24403 1.8772468z" fill="#9ba0a8"/></g></g><g transform="translate(5 1)"><use fill="#000" filter="url(#l)" xlink:href="#k"/><use fill="none" xlink:href="#k"/></g><rect fill="#59418d" height="273" rx="16" width="362" x="5" y="1"/><g transform="translate(40 201)"><text fill="#fff" font-family="Strawford-Medium, Strawford" font-size="17" font-weight="400" letter-spacing="-.12"><tspan x="63" y="30">Workflow Orchestration</tspan></text><circle cx="25" cy="25" fill="#7352ba" r="25"/><g stroke="#fff" stroke-linejoin="round" stroke-width="1.013514" transform="translate(7.432432 12.837838)"><path d="m10.7662162 19.422973h14.2777027v-15.71689192h-14.2777027z"/><path d="m4.25067568 19.422973h27.49729732v-15.71689192h-27.49729732z"/><path d="m3.971149 12.240811h27.497297"/><g fill="#7352ba"><path d="m8.49459459 7.41216216h7.41216221v-7.41216216h-7.41216221z"/><path d="m20.2810811 7.41216216h7.4121621v-7.41216216h-7.4121621z"/><path d="m0 23.1290541h7.41216216v-7.4121622h-7.41216216z"/><path d="m14.2932432 23.1290541h7.4121622v-7.4121622h-7.4121622z"/><path d="m28.5871622 23.1290541h7.4121621v-7.4121622h-7.4121621z"/><path d="m10.7664189 10.4220946c1.0047297 0 1.8189189.8141892 1.8189189 1.8189189 0 1.0040541-.8141892 1.8182433-1.8189189 1.8182433-1.00472971 0-1.8189189-.8141892-1.8189189-1.8182433 0-1.0047297.81418919-1.8189189 1.8189189-1.8189189z"/><path d="m15.7802027 2.00918919c1.0047297 0 1.8189189.81418919 1.8189189 1.81891892 0 1.00405405-.8141892 1.81824324-1.8189189 1.81824324s-1.8189189-.81418919-1.8189189-1.81824324c0-1.00472973.8141892-1.81891892 1.8189189-1.81891892z"/></g><path d="m32.2931757 17.6043243c1.0047297 0 1.8189189.8141892 1.8189189 1.8189189 0 1.0040541-.8141892 1.8182433-1.8189189 1.8182433-1.0047298 0-1.8189189-.8141892-1.8189189-1.8182433 0-1.0047297.8141891-1.8189189 1.8189189-1.8189189z"/><path d="m31.7481081 1.88743243c1.0047297 0 1.8189189.81418919 1.8189189 1.81891892 0 1.00405406-.8141892 1.81824324-1.8189189 1.81824324s-1.8189189-.81418918-1.8189189-1.81824324c0-1.00472973.8141892-1.81891892 1.8189189-1.81891892z" fill="#7352ba"/><path d="m3.70601351 17.7947973c.89932433 0 1.62837838.7290541 1.62837838 1.6283784s-.72905405 1.6277027-1.62837838 1.6277027c-.89932432 0-1.62837837-.7283784-1.62837837-1.6277027s.72905405-1.6283784 1.62837837-1.6283784z" fill="#7352ba"/></g></g><g transform="translate(40 143)"><circle cx="25" cy="25" fill="#7352ba" r="25"/><g stroke="#fff" stroke-width="1.013514"><path d="m12.3335811 26.3191892 7.8810811-11.1932433 9.3412162 5.2283784 8.3074324-7.0797297"/><path d="m12.2261486 24.1933784c1.1743244 0 2.1256757.952027 2.1256757 2.1256757 0 1.1743243-.9513513 2.1256756-2.1256757 2.1256756-1.1743243 0-2.1256756-.9513513-2.1256756-2.1256756 0-1.1736487.9513513-2.1256757 2.1256756-2.1256757z" fill="#7352ba"/><path d="m9.7972973 36.2317568h4.8574324v-5.672973h-4.8574324z" stroke-linejoin="round"/><path d="m20.4785811 13.0002703c1.1743243 0 2.1256757.952027 2.1256757 2.1256756 0 1.1743244-.9513514 2.1256757-2.1256757 2.1256757s-2.1256757-.9513513-2.1256757-2.1256757c0-1.1736486.9513514-2.1256756 2.1256757-2.1256756z" fill="#7352ba" stroke-linejoin="round"/><path d="m18.05 36.2317568h4.8574324v-13.9304054h-4.8574324z" stroke-linejoin="round"/><path d="m29.4044595 18.2285811c1.1743243 0 2.1256756.952027 2.1256756 2.1256757 0 1.1743243-.9513513 2.1256756-2.1256756 2.1256756-1.1743244 0-2.1256757-.9513513-2.1256757-2.1256756 0-1.1736487.9513513-2.1256757 2.1256757-2.1256757z" fill="#7352ba" stroke-linejoin="round"/><path d="m26.9756757 36.2317568h4.8574324v-11.3452703h-4.8574324z" stroke-linejoin="round"/><path d="m37.7116216 11.1486486c1.1743243 0 2.1256757.9520271 2.1256757 2.1256757 0 1.1743243-.9513514 2.1256757-2.1256757 2.1256757s-2.1256757-.9513514-2.1256757-2.1256757c0-1.1736486.9513514-2.1256757 2.1256757-2.1256757z" fill="#7352ba" stroke-linejoin="round"/><path d="m35.2831081 36.2317568h4.8574324v-15.9081082h-4.8574324z" stroke-linejoin="round"/></g><text fill="#fff" font-family="Strawford-Medium, Strawford" font-size="17" font-weight="400" letter-spacing="-.12"><tspan x="63" y="30">Operational Analytics (BI)</tspan></text></g><g transform="translate(40 27)"><circle cx="25" cy="25" fill="#7352ba" r="25"/><g stroke="#fff" stroke-width="1.013514" transform="translate(6.081081 14.864865)"><g transform="translate(18.884474 .864041)"><path d="m0 6.94405405h5.41486486l4.38243244-4.93716216h4.0709459"/><path d="m15.8743919 4.01283784c1.1081081 0 2.0060811-.89797298 2.0060811-2.00608108 0-1.10810811-.897973-2.00675676-2.0060811-2.00675676s-2.0060811.89864865-2.0060811 2.00675676c0 1.1081081.897973 2.00608108 2.0060811 2.00608108z"/><path d="m0 12.3537838h5.41486486l4.38243244 4.9371621h4.0709459"/><path d="m15.8743919 15.2849324c1.1081081 0 2.0060811.897973 2.0060811 2.0060811s-.897973 2.0067568-2.0060811 2.0067568-2.0060811-.8986487-2.0060811-2.0067568.897973-2.0060811 2.0060811-2.0060811z"/><path d="m0 9.648919h10.058784"/><path d="m11.4639865 11.6552027c1.1081081 0 2.0060811-.897973 2.0060811-2.00608108 0-1.10810811-.897973-2.00675676-2.0060811-2.00675676s-2.00608109.89864865-2.00608109 2.00675676c0 1.10810808.89797299 2.00608108 2.00608109 2.00608108z"/></g><path d="m14.3029878 9.06741909c.7993244 2.09324321-.2513513 4.43716221-2.3445946 5.23581081-2.09189186.797973-4.43581078-.252027-5.23378375-2.3439189-.79932432-2.09391894.25067568-4.43783786 2.34256757-5.2364865 2.09391888-.79797298 4.43851348.25135135 5.23581078 2.34459459zm-8.67635132-8.2c-.54797298.20945946-.4195946.63986487-.19189189 1.43851351.23108108.79594595.26081081 1.55878379-.31351352 2.13243244-.11283784.1-.22297297.19864865-.32905405.30337837-.00743243.00675676-.01148649.00675676-.01891892.01216217-.60810811.54797297-1.36891892.47432432-2.15337838.20067567-.78445946-.27567567-1.20810811-.42702702-1.44662162.10743244-.23918919.53175675-.07837838.17094594-.46216216 1.03175675-.00472973.00810811-.00675676.01351352-.01148649.02432433-.38581081.86013513-.225.5-.46148649 1.02972973-.23918919.53581081.15540541.75067567.88310811 1.15337837.72162162.39797298 1.27702703.91216217 1.28310811 1.71418923-.00945946.1506756-.01351351.3027027-.01418919.454054-.00135135.0121622-.00743243.0182433-.00743243.0310811-.04054054.8168919-.63175676 1.3033784-1.38108108 1.6641892-.74864865.3601351-1.15675676.5527027-.94662162 1.0993243.20675675.5425676.06554054.1736487.4027027 1.0560811.0027027.0087838.00472973.0155405.00878378.0243243.33513514.8831081.19527027.5128379.40202703 1.0540541.21013513.55.64121622.4229729 1.43986486.1918919.79527027-.2290541 1.55540541-.2594595 2.13040541.3121621.09932432.1135135.19797297.225.30540541.3317568.00675675.0074324.00608108.0135135.01351351.0209459.54459459.6060811.47364865 1.3695946.19864865 2.1513514-.275.7858108-.42567568 1.2081081.10675675 1.447973.53243244.2364864.17162163.0756756 1.03243244.4628378.00608108.0027027.00945946.0047297.01554054.0081081.0027027.0006757.00472973.0013514.00878378.0027027.86013514.3858108.49932433.2222973 1.03108108.4614865.53513514.2372875.74864865-.1560811 1.15202703-.8844595.3972973-.7222973.91554054-1.2810811 1.72162167-1.2837838.1466216.0087838.2939189.0148649.4405405.0135136.0162162.002027.0216216.0087837.0385135.0087837.8135135.0432433 1.302027.6337838 1.6621622 1.3817568.3601351.747973.552027 1.1554054 1.1.9472973.5425675-.2081081.175-.0675676 1.0567567-.4033784.0054054-.0013513.0081081-.0033784.0141892-.0054054.0040541-.0013513.0067568-.002027.0094595-.004054.8810811-.3358109.5121621-.1972973 1.0560811-.4027027.5472973-.2087838.4216216-.6398649.1898648-1.4391892-.2310811-.797973-.2614865-1.5635135.3202703-2.1371622.1087838-.097973.2175676-.1939189.3202703-.2959459.0081081-.0087838.0141891-.0074325.0236486-.0155406.6067568-.5452703 1.3682433-.472973 2.1533784-.1986486.7837838.2743243 1.2074324.4256756 1.4459459-.1081081.2364865-.5310811.0756757-.1695946.4641892-1.0304054.002027-.0060811.0033784-.0108109.0054054-.0155406.0020271-.0033784.0027027-.0067567.0040541-.0087838.3851351-.8614865.2222973-.5006756.4608108-1.0324324.2385135-.5344595-.1547297-.7493243-.8831081-1.152027-.725-.3993244-1.2851352-.9168919-1.2844595-1.7277027.0081081-.1439189.0128379-.2871622.0128379-.4317568.0027027-.0162162.0087837-.022973.0094594-.0405405.0432433-.81486489.6331081-1.30135138 1.3824325-1.66081084.7466216-.36283784 1.1547297-.55405405.9472973-1.10135135-.2081082-.54256757-.0682433-.17432432-.4033784-1.05675676-.0020271-.00608108-.0033784-.00878378-.0060811-.01486486-.0006757-.00337838-.002027-.00675676-.0040541-.00945946-.3371621-.88175676-.1959459-.51081081-.4027027-1.05675676-.2087837-.54594594-.6398648-.41891892-1.4398648-.18918919-.797973.23243243-1.5648649.26081081-2.1358108-.32027027-.0013514-.00067567-.0020271-.00067567-.0020271-.00067567-.0972973-.10810811-.1932432-.21554054-.2952702-.31824325-.0067568-.0081081-.0067568-.01486486-.0141892-.02364865-.5472973-.60608108-.4743244-1.36824324-.1993244-2.15337837.2743244-.78445946.425-1.20675676-.1081081-1.44662163-.5304054-.23851351-.1716216-.07702702-1.0304054-.46283783-.0081081-.00202703-.0135135-.00472973-.0216216-.00878379 0-.00135135-.0013513-.00135135-.0027027-.00135135-.8614865-.38716216-.502027-.22297297-1.0324324-.46148648-.5351352-.23918919-.75.1554054-1.152027.8831081-.3972973.72364865-.9162163 1.28445946-1.7263514 1.28445946-.1439189-.00945946-.2898649-.01351351-.4364865-.01283784-.0155405-.00202702-.0202703-.00878378-.0364865-.00945945-.81689187-.04256757-1.30405403-.63175676-1.66418916-1.38175676-.36013514-.75-.55270271-1.15337838-1.1-.94662162-.54932433.21013513-.16148649.06216216-1.08040541.41283784-.87905405.33513513-.51013513.19527027-1.05405405.40067567z" fill="#7352ba"/></g><text fill="#fff" font-family="Strawford-Medium, Strawford" font-size="17" font-weight="400" letter-spacing="-.12"><tspan x="63" y="30">Data Integration: ETL / ELT</tspan></text></g><g transform="translate(40 85)"><text fill="#fff" font-family="Strawford-Medium, Strawford" font-size="17" font-weight="400" letter-spacing="-.12"><tspan x="63" y="30">Data Science /Machine Learning</tspan></text><circle cx="25" cy="25" fill="#7352ba" r="25"/><g stroke="#fff" stroke-width="1.013514" transform="translate(8.783784 10.810811)"><path d="m3.453753 13.799543 14.271621 3.68919"/><path d="m3.453753 13.799543 20.747973-8.394594"/><path d="m24.201658 5.405016-6.476351 12.083784"/><path d="m24.2016582 5.40501635-14.98783787-2.37432432-5.76013513 10.76891887"/><path d="m3.45375276 13.7995434 3.23108109 11.6662162 11.04054055-7.977027"/><path d="m17.7253744 17.4887326 16.1283784-1.0202703-9.6520271-11.06351351"/><g fill="#7352ba"><path d="m24.2856447 1.011165c2.4263513.04662162 4.356081 2.05135135 4.3101351 4.47770271-.0466216 2.42702702-2.0513514 4.35608108-4.4783784 4.31013513-2.4263513-.04662162-4.3560811-2.05135135-4.3094594-4.4777027.0459459-2.42702703 2.0513513-4.35675676 4.4777027-4.31013514"/><path d="m17.6675365 20.5188001c1.6736487.0317568 3.0560811-1.2986486 3.0878379-2.9722973.0324324-1.6736486-1.2986487-3.056081-2.9722973-3.0878378-1.672973-.0317568-3.0560811 1.2986487-3.0878378 2.9722973-.0317568 1.6736486 1.2986486 3.0560811 2.9722972 3.0878378"/><path d="m9.27199601.0005569c1.67364869.03175675 3.00405409 1.41486486 2.97229729 3.08783783-.0317568 1.67364865-1.4148649 3.00405406-3.08783783 2.9722973-1.67364865-.03175676-3.00472973-1.41418919-2.9722973-3.08783784.03175676-1.67364865 1.41418919-3.00405405 3.08783784-2.97229729"/><path d="m33.3735501 13.7943407c1.4709459.0283784 2.6412162 1.2439189 2.6128378 2.7148648-.0277027 1.470946-1.2432432 2.6412163-2.7148649 2.6128379-1.4709459-.0277027-2.6412162-1.2432433-2.6128378-2.7148649.0283784-1.4709459 1.2439189-2.6412162 2.7148649-2.6128378"/><path d="m6.64490141 27.5654218c1.15945946.0222973 2.11756757-.9 2.13986487-2.0594595s-.9-2.1175676-2.05945946-2.1398649-2.11756757.9-2.13986487 2.0594595c-.02229729 1.1594595.9 2.1175676 2.05945946 2.1398649"/><path d="m3.38780682 17.2524488c1.90675676.0364865 3.48243243-1.4797297 3.51891892-3.3871622.03648648-1.9067567-1.47972973-3.4824324-3.38716216-3.5189189-1.90675676-.0358108-3.48243244 1.4804054-3.51891892 3.3871622-.03648649 1.9067567 1.4804054 3.4824324 3.38716216 3.5189189"/></g></g></g></g></svg>