<svg height="64" viewBox="0 0 168 64" width="168" xmlns="http://www.w3.org/2000/svg"><g fill="none" fill-rule="evenodd"><path d="m87.1343284 3.09090909-.358209-1.09090909.358209-1.90909091-.1791045-.09090909-4.9253732 4.18181818v.09090909zm-75.2238806 19.81818181c-.8944405.9312417-2.12175932 1.4558373-3.40298511 1.4545455-3.94029851 0-4.92537314-3.5454546-4.92537314-7.7272728 0-4.1818181.89552239-7.72727269 4.8358209-7.72727269 1.23512039-.0304592 2.41849405.5034535 3.22388055 1.45454549l2.238806 3.4545454h.1791045v-5.18181816h-.1791045l-2.0597015 1.09090909c-.9508862-.81852594-2.15626623-1.26934193-3.40298505-1.27272728-3.85074627 0-8.41791045 3.00000005-8.41791045 8.27272725 0 5.2727273 4.47761194 8.2727273 8.50746269 8.2727273 1.31545874-.0094109 2.58489481-.4926622 3.58208951-1.3636364l1.9701493 1.1818182h.1791045v-5.4545454h-.1791045zm14.6865671-14.54545454c-3.761194 0-8.2388059 3.27272724-8.2388059 8.27272724s4.4776119 8.2727273 8.2388059 8.2727273c3.7611941 0 8.238806-3.2727273 8.238806-8.2727273s-4.3880597-8.27272724-8.238806-8.27272724zm0 16.00000004c-3.761194 0-4.7462686-3.3636364-4.7462686-7.7272728 0-4.3636363.9850746-7.72727269 4.7462686-7.72727269 3.7611941 0 4.7462687 3.36363639 4.7462687 7.72727269 0 4.3636364-.8955224 7.7272728-4.7462687 7.7272728zm22.477612-15.27272731h1.9701492v10.00000001h-.0895522l-6.9850746-10.45454546h-6.2686568v.45454545h1.8805971v15.09090911h-1.8805971v.4545454h4.477612v-.4545454h-1.9701493v-15.09090911l11.2835821 15.81818181h.1791045v-15.81818181h1.880597v-.45454545h-4.4776119zm14.9552238-.45454545h-7.0746268v.45454545h2.0597015v15.09090911h-2.0597015v.4545454h7.0746268c3.4925374 0 9.3134329-1.5454545 9.3134329-8.0909091 0-6.5454545-5.8208955-7.90909086-9.3134329-7.90909086zm-.1791044 15.54545456h-1.7014926v-15.09090911h1.7014926c4.119403 0 6 3.00000001 6 7.54545451 0 4.5454546-1.880597 7.5454546-6 7.5454546zm23.5522388 0h-5.9104478v-7.9090909h2.9552239c.843482.9130695 1.5387142 1.9563758 2.0597015 3.0909091h.1791045v-6.6363637h-.1791045c-.5209873 1.1345333-1.2162195 2.1778395-2.0597015 3.0909091h-2.9552239v-6.72727271h5.2835821c1.5223881 1.00000001 2.8656716 3.81818181 2.8656716 3.81818181h.1791045v-4.27272726h-13.522388v.45454545h2.0597015v15.09090911h-2.0597015v.4545454h13.9701492v-5.3636363h-.1791045c-.6473696 1.7641426-1.5530729 3.4191094-2.6865671 4.9090909zm24.1791049-15.09090911h1.970149v10.00000001h-.089552l-6.985075-10.45454546h-6.358209v.45454545h1.970149v15.09090911h-1.970149v.4545454h4.477612v-.4545454h-1.880597v-15.09090911l11.283582 15.81818181h.089552v-15.81818181h1.970149v-.45454545h-4.477611zm14.597014-1h-.179104l-6.716418 16.00000001h-1.880597v.4545454h4.208955v-.4545454h-1.791044l2.41791-5.7272727h5.104478l2.597015 5.7272727h-2.059702v.4545454h7.343284v-.4545454h-1.880597zm-3.671641 9.90909091 2.328358-5.5454545 2.41791 5.5454545zm23.820895-2.7272727-3.134328-1.0909091c-1.522388-.5454546-2.77612-1.2727273-2.77612-2.8181818 0-1.54545458 1.343284-2.54545458 3.402986-2.54545458 1.041282-.08832022 2.064809.31388687 2.776119 1.09090909l2.238806 3.45454549h.179104v-5.09090913h-.179104l-2.059702 1.09090909c-.818493-.7217605-1.871218-1.11037001-2.955223-1.09090909-1.289244-.07439654-2.552693.38768702-3.498968 1.27968393-.946274.8919969-1.493674 2.1368935-1.515958 3.4475888 0 2.2727273 1.61194 3.4545455 3.313433 4.0909091l3.134328 1.1818182c1.701493.6363636 2.77612 1.3636363 2.77612 3 0 1.6363636-1.074627 3-3.761194 3-1.30483-.0645353-2.557198-.5412892-3.58209-1.3636364l-2.328358-3.9090909h-.268657v5.5454545h.268657l1.970149-1.090909c1.085761.8363781 2.399156 1.312555 3.761194 1.3636363 3.402985 0 5.641791-2.4545454 5.641791-5.1818182 0-2.7272727-1.432836-3.7272727-3.402985-4.3636363zm7.074627-6.63636366v4.99999996h.179105c.765573-1.6099087 1.696081-3.1334676 2.776119-4.54545451h2.776119v15.09090911h-2.507462v.4545454h8.149253v-.4545454h-2.507462v-15.09090911h2.776119c1.080038 1.41198691 2.010546 2.93554581 2.77612 4.54545451h.179104v-4.90909087h-14.597015z" fill="#fff" fill-rule="nonzero" transform="translate(0 16)"/><path d="m1 0h167v64h-167z" transform="matrix(-1 0 0 1 169 0)"/></g></svg>