<svg height="64" viewBox="0 0 159 64" width="159" xmlns="http://www.w3.org/2000/svg"><g fill="none" fill-rule="evenodd"><g transform="translate(0 6)"><path d="m69.6895161 21.3888889h-10.3306451v2.3671497h.3387096c.0846775-.3381642.6774194-1.0144927 1.4395162-1.0144927h2.2862903v12.089372h2.2862903s0-12.0048309 0-12.089372h2.3709678c.7620967 0 1.2701613.4227053 1.3548387.8454106v.0845411h.3387096zm-67.31854836-.7608696c-1.52419355 1.5217392-2.37096774 3.7198068-2.37096774 5.8333334 0 2.4516908 1.01612903 4.6497584 2.70967742 6.1714975 1.69354839 1.5217392 3.97983871 2.3671498 6.35080645 2.3671498 1.27016133 0 3.72580643-.2536232 6.18145163-1.6908213l.0846774-.084541.2540323-3.3816425-.4233871-.0845411-.0846775.1690821c-1.7782258 3.6352657-4.4879032 3.6352657-5.58870963 3.6352657-4.65725807 0-6.77419355-3.8888889-6.77419355-7.4396135 0-3.4661836 2.11693548-7.0169082 6.77419355-7.0169082 1.43951613 0 4.06451613.5072464 5.41935483 3.6352657l.0846774.1690821.4233871-.1690821-.1693548-3.4661836-.0846774-.084541c-2.2016129-.9299517-3.9798387-1.352657-5.75806455-1.352657-2.87903226.084541-5.33467742 1.0144927-7.02822581 2.789855zm15.49596776.7608696-.0846774.3381642c.1693548.0845411.4233871.5917875.4233871 1.1835749v11.8357488h2.2016129s0-6.0024154 0-6.0869565h.9314516c.8467742.0845411 1.1854838.5917874 1.6935484 1.352657 0 0 .0846774.0845411.0846774.0845411l.2540322.5072463c.5080646.7608696 1.1008065 1.8599034 1.7782258 2.8743962.5080646.7608695 1.1008065 1.0990338 1.8629033 1.2681159.5080645.0845411 1.6088709.0845411 2.032258-.0845411 0 0 .5080646-.084541.5080646-.084541l.1693548-.0845411-.6774194-.1690821c-.2540322-.0845411-.6774193-.2536232-1.2701613-.9299517-.3387096-.4227053-.9314516-1.352657-1.7782258-2.705314 0 0-.8467742-1.352657-.8467742-1.352657-.2540322-.3381643-.5927419-.8454106-1.2701612-1.2681159 1.2701612-.4227054 2.4556451-1.5217392 2.4556451-3.2125604 0-.5072464-.0846774-1.4371981-.9314516-2.1980677-.8467742-.7608695-2.1169355-1.1835748-3.8951613-1.1835748zm3.8104839 1.2681159c2.2862903.0845411 2.3709677 2.0289855 2.3709677 2.2826087 0 1.9444445-1.4395161 2.620773-2.625 2.620773 0 0-.7620968 0-.9314516 0 0-.0845411 0-4.7342995 0-4.8188406.2540322-.0845411.6774193-.1690821 1.1854839-.0845411zm18.9677419-1.2681159v.3381642c.1693548.0845411.3387097.5917875.3387097 1.0144928v12.0048309h3.8104838c2.5403226 0 4.5725807-.7608696 6.0120968-2.2826087 1.1854839-1.2681159 1.8629032-2.8743961 1.8629032-4.6497584 0-1.0144928-.3387096-2.620773-1.3548387-3.8888889-1.3548387-1.6908213-3.3870967-2.620773-6.1814516-2.620773zm2.625 1.352657h1.1854839c.3387096 0 1.1008064 0 1.6935483.0845411 3.7258065.5917874 4.1491936 3.7198067 4.1491936 5.0724637 0 1.0990338-.1693548 2.620773-1.1008065 3.8888889-.9314516 1.1835749-2.3709677 1.7753623-4.3185483 1.7753623-.4233871 0-1.0161291 0-1.608871 0 0-.1690821 0-10.7367149 0-10.821256zm14.0564516-1.352657h-2.625v.3381642c.2540323.0845411.4233871.5917875.4233871 1.0990339v11.9202898h2.2016129zm44.8790321 0h-2.6249998v.3381642c.2540322.0845411.4233868.5917875.4233868 1.0990339v11.9202898h2.201613zm-64.439516 0h-7.4516129l.0846774.3381642c.1693549.0845411.4233871.5917875.4233871 1.1835749v11.8357488h7.4516129l.5080646-2.3671497-.3387097-.0845411-.0846774.1690821c-.592742.9299517-1.2701613 1.0990338-3.3870968 1.0990338-.7620968 0-1.5241936-.084541-2.0322581-.084541 0-.0845411 0-5.326087 0-5.410628h3.8104839v-1.268116s-3.641129 0-3.8104839 0c0-.0845411 0-4.057971 0-4.1425121h3.0483871c.6774194 0 1.4395162.6763285 1.5241936 1.0990338v.0845411h.3387097zm95.516129 0h-7.451613v.3381642c.169355.0845411.423387.5072464.423387 1.1835749v11.8357488h7.451613l.508065-2.3671497-.33871-.0845411-.084677.1690821c-.592742.9299517-1.270162 1.0990338-3.387097 1.0990338-.762097 0-1.524194-.084541-2.032258-.084541 0-.0845411 0-5.326087 0-5.410628h3.810484v-1.268116s-3.641129 0-3.810484 0c0-.0845411 0-4.057971 0-4.1425121h3.048387c.846774 0 1.439516.6763285 1.439516 1.0990338v.0845411h.33871zm-57.0725806-2.4516908c-.7620968.5917874-1.6935484 1.6062802-1.7782258 3.3816425v.084541c0 2.1135266 1.3548387 3.2971015 3.5564516 4.3961353.0846774.0845411.2540323.1690821.8467742.4227053 1.8629032.9299517 3.1330645 1.6062802 3.1330645 3.4661836 0 .6763285-.2540322 1.6062802-.9314516 2.2826087-.5927419.5917874-1.3548387.8454106-2.2862903.8454106-2.7943548 0-3.8104839-2.4516908-4.0645161-3.5507246l-.0846774-.1690821-.5080646.084541.1693549 3.4661836.2540322-.0845411c.9314516.5072464 2.3709678 1.352657 4.5725807 1.4371981 1.5241935 0 3.0483871-.5917874 4.1491935-1.6908213.9314516-.9299516 1.4395162-2.1135265 1.4395162-3.3816425 0-2.789855-2.0322581-3.8888889-4.1491936-4.9879227l-.4233871-.2536232c-2.2016129-1.0990338-3.2177419-1.7753623-3.2177419-3.1280193 0-.9299517.7620967-2.4516908 2.625-2.4516908 2.2016129 0 3.3870967 1.6908212 3.641129 2.705314l.0846774.1690821.5080645-.084541-.1693548-3.0434783-.0846774-.0845411c-1.2701613-.8454106-2.8790323-1.0144927-3.5564516-1.0144927-1.5241936.0845411-2.7943549.5072464-3.7258065 1.1835749zm29.6370966 5.8333333c0 1.8599034 1.100807 2.7898551 2.879032 3.7198068 0 0 .67742.3381642.67742.3381642 1.439516.6763285 2.370968 1.1835749 2.370968 2.5362319 0 .2536232-.084678 1.0144928-.67742 1.6908213-.423387.4227053-1.016129.6763285-1.778226.5917874-2.116935 0-2.879032-1.6908213-3.217742-2.620773l-.084677-.1690821-.423387.0845411.084677 2.7898551.084678.084541c.677419.4227053 1.862903 1.0990338 3.641129 1.0990338 1.185484 0 2.455645-.5072463 3.302419-1.352657.762097-.7608695 1.100807-1.6908212 1.100807-2.705314 0-2.3671497-1.608871-3.2125604-3.30242-4.057971 0 0-.338709-.1690821-.338709-.1690821-1.862904-.9299517-2.455646-1.352657-2.455646-2.3671498 0-.7608695.508065-1.7753623 2.032258-1.7753623 1.778226 0 2.540323 1.352657 2.709678 2.0289855l.084677.1690821.423387-.084541-.169354-2.4516908-.084678-.0845411c-1.016129-.6763285-2.28629-.7608696-2.794355-.7608696-1.94758 0-4.064516 1.1835749-4.064516 3.4661836zm9.991936 0c0 1.8599034 1.100806 2.7898551 2.879032 3.7198068l.677419.3381642c1.439516.6763285 2.370968 1.1835749 2.370968 2.5362319 0 .2536232-.084677 1.0144928-.677419 1.6908213-.423387.4227053-1.016129.6763285-1.778226.5917874-2.116936 0-2.879032-1.6908213-3.217742-2.620773l-.084677-.1690821-.423388.0845411.084678 2.7898551.084677.084541c.67742.4227053 1.862903 1.0990338 3.641129 1.0990338 1.185484 0 2.455645-.5072463 3.30242-1.352657.762096-.7608695 1.100806-1.6908212 1.100806-2.705314 0-2.3671497-1.608871-3.2125604-3.302419-4.057971 0 0-.33871-.1690821-.33871-.1690821-1.862903-.9299517-2.455645-1.352657-2.455645-2.3671498 0-.4227053.169355-.9299517.508064-1.2681159.33871-.3381643.846775-.5072464 1.439517-.5072464 1.778225 0 2.540322 1.352657 2.709677 2.0289855l.084677.1690821.423387-.084541-.169354-2.4516908-.084678-.0845411c-1.016129-.6763285-2.28629-.7608696-2.794355-.7608696-1.778225 0-3.979838 1.1835749-3.979838 3.4661836zm-19.1370971-3.3816425h-1.7782258v.3381642c.0846774.0845411.3387097.2536232.3387097 1.0990339v7.6086956c0 1.4371981-.5080645 3.2125604-3.1330645 3.2125604-2.4556452 0-2.9637097-1.4371981-2.9637097-3.6352657v-8.6231884h-2.7943549v.3381642c.1693549.0845411.5080646.4227054.5080646 1.1835749v7.1014493c0 4.3961353 2.8790322 4.9033816 5.0806451 4.9033816 1.1008065 0 4.5725807-.3381642 4.5725807-4.4806763z" fill="#fff" fill-rule="nonzero"/><g transform="translate(125.915323)"><path d="m26.5887097 17.5845411c1.6088709.5072463 3.2177419 1.1835748 4.9959677 2.1980676-4.3185484-7.1014493-11.9395161-14.79468599-19.4758064-19.7826087 1.9475806 1.94444444 5.0806451 6.17149758 5.9274193 10.6521739 3.0483871 2.1980676 5.9274194 4.5652174 8.5524194 6.9323672z" fill="#fff" fill-rule="nonzero"/><path d="m26.5887097 17.5845411c-3.7258065-1.1835749-6.858871-1.268116-9.1451613-1.0144928.8467742-1.9444444.9314516-3.9734299.5927419-5.9178744-5.6733871-4.057971-12.02419353-7.60869564-18.0362903-10.22946859 4.40322581 2.9589372 9.31451613 11.66666669 11.3467742 20.96618359 4.4032258-1.268116 11.0927419-2.1980676 19.8145161.7608696-1.4395161-1.5217392-2.9637097-3.0434783-4.5725806-4.5652174z" fill="#fff" fill-rule="nonzero"/><path d="m17.9516129 10.6521739c.3387097 1.9444445.2540323 3.97343-.5080645 5.9178744 2.3709677-.2536232 5.5040322-.1690821 9.1451613 1.0144928-2.625-2.3671498-5.5040323-4.7342996-8.6370968-6.9323672z"/></g></g><path d="m0 0h159v64h-159z"/></g></svg>