<svg height="64" viewBox="0 0 65 64" width="65" xmlns="http://www.w3.org/2000/svg"><g fill="none" fill-rule="evenodd"><path d="m63.2858339 14.0086086c-.1548413-.2178833-.4076435-.347232-.6762457-.3453482-.2515382 0-.4879082.1218137-.6320054.326511-.1643214.2386043-.3728832.5211619-.6320054.8413939-.2496421.3541389-.5201404.693836-.8089669 1.0172075-.2692343.2856972-.5561647.553813-.8595273.8037195-.1535773.1525812-.353291.2499066-.5688048.2762786-.0695206 0-.2085618 0-.2401621-.3516273-.0195922-.4784642.0360243-.9575564.1643214-1.4190673.1706415-.6611848.3817313-1.3110674.6320054-1.9465082.4759-1.2558117.9903524-2.4883909 1.5420931-3.69836557.2085618-.46465035.3412829-.76604517.3981634-.8979054.1706415-.36418541.1004889-.79430093-.1769615-1.08627716-.2774504-.3101855-.6433815-.52932466-1.0491289-.62790588-.4468278-.1073719-.9119838-.1073719-1.3588116 0-.5062363.11051144-.940424.43074343-1.1944902.87906823-.3627711.6096966-.6920459 1.23823038-.9859284 1.88371762-.4215476.92930066-.8045428 1.87555486-1.1502498 2.83813456-.2212018.6279059-.4234436 1.2558117-.6320053 1.8837176-.3071547 1.060533-.936632 2.001136-1.8012154 2.6937162-.2995705.2499066-.6117812.4847434-.9353679.7032546-.1472573.0960696-.2989386.1864881-.4550439.2699995-.0246482.0125582-.0556165.0031396-.0682566-.0213488-.0088481-.0175813-.0069521-.0389301.005056-.0539999.2610183-.3390691.5182445-.7057662.7710466-1.0988353.5669088-.9035565 1.0371208-1.8629967 1.403052-2.8632507.3981633-1.0103006.6718217-2.0645546.8152869-3.1395294.1106009-.8231846.0701526-1.65955525-.120081-2.46767011-.1403052-.62790587-.471476-1.19804441-.9480081-1.63255527-.468948-.41127835-1.0750411-.63481284-1.7000945-.62790588-.7603024-.00125581-1.5048048.21662753-2.1424982.62790588-.4272356.26937162-.8285591.57578968-1.2008102.91674257h-.0758407c-.0897447-.13625557-.2003457-.2568135-.3286428-.35790634-.3204267-.25744141-.7008939-.43011553-1.1060094-.5023247-.4221796-.07597661-.8563673-.04583713-1.2640108.08790682-.4468278.14379044-.8102309.4703015-.9985685.8979054-.4594679.98769594-.8803835 1.98795-1.2640107 3.00139013-.5353086 1.2972535-1.0131046 2.5995303-1.4346522 3.9055745-.3564511 1.0266261-1.0175287 1.9220199-1.8960162 2.568135-.2275219.1689067-.4613639.3390692-.707846.4897666-.1472573.0960696-.2989385.1858601-.4550439.2699995-.0246482.0125582-.0556165.0031396-.0682566-.0213488-.008848-.0175813-.006952-.0389301.0050561-.0546278.2736583-.3553947.5308845-.7220917.7710465-1.0982074.5669089-.9035565 1.0371209-1.8629967 1.403052-2.8632507.3981634-1.0103006.6718217-2.0645546.8152869-3.1401573.1213451-.820673.0910088-1.65704363-.0884807-2.46767011-.1403052-.62727797-.471476-1.19741651-.9480081-1.63255528-.468948-.41065044-1.0750411-.63418493-1.7000945-.62803465-.7603024-.00049913-1.5041728.21738421-2.1424982.62803465-.4266036.26999953-.8285591.57641759-1.2008102.91674258h-.0758407c-.0897447-.13562767-.2003457-.2561856-.3286428-.35790635-.3197947-.25744141-.7002619-.43011552-1.1060094-.5023247-.4221796-.0753487-.8563673-.04520922-1.2640108.08790682-.4493558.14253464-.8152869.4696736-1.0048885.8979054-.4594679.98832385-.8803835 1.98857791-1.2640108 3.00139004-.4215476 1.0799982-.821607 2.1687869-1.2008102 3.2651106-.2704983.8112544-.7400783 1.5427647-1.3651316 2.1286009-.1643214.1569765-.3286428.3013948-.4866442.4332551-.1535773.1525811-.353291.2499065-.5688048.2762786-.0758406 0-.2085618 0-.240162-.3516273-.0195922-.4784643.0353923-.9569286.1643214-1.4190673.1700094-.6611849.3810992-1.3110675.6320053-1.9465082.2717623-.7095337.5435247-1.387672.815287-2.028136s.5182444-1.20557928.7268062-1.67022963c.1390411-.29699948.2698663-.59651058.3918433-.8979054.1725375-.36355751.1023849-.79492884-.1769615-1.08627717-.2831384-.31269712-.6560216-.53183627-1.0680891-.62790587-.4468278-.106744-.9119838-.106744-1.3588116 0-.5011802.11051143-.9322079.42509228-1.1881701.86651011l-.1832815.30767387c-.0094801.02637205-.0385524.03955807-.0650966.02951158-.0139041-.00502325-.0246482-.01569765-.0297043-.02951158-.0537204-.24990653-.1434652-.49039448-.2654422-.71581269-.1921296-.34785986-.4790601-.63544075-.8279271-.82883576-.4082754-.22165077-.8690074-.33027849-1.3335313-.31395294-1.4333882.06781384-2.7877758.67123138-3.7920323 1.68906681-1.2324105 1.09883528-2.2499392 2.85697177-3.0336258 5.22417687-.3393869 1.0172075-.5511087 2.0714615-.6320054 3.1395294-.0707846.8194172.0082161 1.6451134.233842 2.4362748.1788575.6272779.5391006 1.1886258 1.0364888 1.6137181.4809561.4081388 1.0933693.6304175 1.7253747.6279059.475268.0018837.9461121-.0828836 1.3904118-.2511624.4108035-.160116.7994868-.3710924 1.1565699-.6279059.2660742-.1852322.5131883-.3955807.7394463-.6279058.1143929-.1211859.3065226-.1274649.4284996-.013814.0391844.0364186.0682566.0822557.0834247.1331161.0714166.2235345.1756975.4351387.3096827.6279058.356451.4853713.93916.7534871 1.5420931.7095337.8399352-.0251163 1.649534-.3208599 2.3068196-.8413939.3621391-.2637205.7103741-.546906 1.0428089-.8476729.0423444-.0357907.1061769-.0313953.1428332.0106744.0214882.0244883.0297043.0583952.0214882.0897905-.1959216.6279059-.3728832 1.2558118-.5308845 1.7958108-.2654423.9355798-.4550439 1.7518574-.6446455 2.3797633-.122609.4100225-.2054017.8307195-.2464821 1.2558117-.0145361.5042085.1668494.993975.5056043 1.3688348.3058906.340325.6926779.5996502 1.1249696.7534871.2572262.0929301.5289885.1419067.8026468.1450651.1384092 0 .2761864-.0144607.4108035-.0439723.4152276-.0766045.7356543-.4075109.7963268-.8225567.0442404-.2951157.1264011-.6906964.2528022-1.1867421.126401-.4960456.2780823-1.0925562.4550438-1.7267411s.3728832-1.3374395.6320054-2.1537172c.1093369-.3767435.2256259-.7723242.347603-1.1867421.0233842-.0502324.0840567-.0722091.1346171-.0489766.0214882.0100465.0385523.0276278.0486644.0489766.0556165.0954417.116921.1877439.1832816.2762786.4449318.5305805 1.1211775.813766 1.8138554.7597661h.4929642c1.1546739.0031396 2.2998676-.2097205 3.3749088-.6279059.944848-.3641854 1.8454557-.8319752 2.6860228-1.393951.0467684-.0301395.109337-.0169535.1396732.0301395.0158002.0244883.0202242.0546278.0120081.0828836-.2148818.6944639-.4253396 1.3895557-.6320054 2.0846475-.2319459.7993241-.4424037 1.6011599-.6320053 2.4048795-.1226091.4093946-.2054018.8300915-.2464821 1.2558117-.0145362.5035805.1668494.9933471.5056043 1.3688348.3096826.3346739.6983659.587092 1.1312896.7346499.2553302.0916743.5245645.1406509.7963268.1444372.1403052.0006091.2799784-.0144607.4171235-.0439723.4126995-.0791161.7299663-.4093946.7900068-.8225567.0442403-.2951157.126401-.6906964.2528021-1.1867421.1264011-.4960456.2780824-1.0925562.4550439-1.7267411s.3792032-1.3374395.6320054-2.1537172c.1093369-.3767435.2256259-.7723242.3476029-1.1867421.0233842-.0502324.0840567-.0722091.1346172-.0483487.0214882.0094186.0385523.0269999.0486644.0483487.0556165.0954417.116921.1877439.1832815.2762786.4442998.5312084 1.1205456.8150218 1.8138555.7597661h.4929642c1.1546738.0031396 2.2998676-.2097205 3.3749087-.6279059 1.1028494-.4225806 2.1437623-.9883238 3.0968264-1.6827877l.4360837-.3390692c.0436084-.0345348.1074409-.0276278.1422012.0156977.0151681.0182092.0227522.0420697.0221202.0659301v.106744c-.0297043.6053013.1270331 1.2055793.4487238 1.7204621.3564511.4853712.93916.753487 1.5420932.7095336.825399-.0370464 1.6185657-.3290226 2.2688993-.8351148.7546144-.5525572 1.4479243-1.1842305 2.0666576-1.8837176.590293-.6498826 1.1376097-1.3380674 1.6368939-2.0595313.3242188-.4690457.6427495-.9437425.9543281-1.4253463.1308251-.2053252.1308251-.4665341 0-.6718593m-39.1843336-3.5853425c-.0676246.5695106-.1731695 1.1333701-.3160027 1.6890668-.1674814.6618127-.3785712 1.3123232-.6320054 1.9465082-.2490101.6323012-.5289885 1.2602071-.8405671 1.8837176-.2471141.493534-.5346766.9663471-.8595273 1.4127882-.2123538.2894646-.46326.5494177-.7457664.7723242-.0859527.0784883-.1940256.1293486-.3096826.1444184h-.0442404c-.0316003 0-.1390412-.0879068-.1959217-.426976-.0505604-.3962086-.0505604-.7968126 0-1.1930212.0562485-.5632315.1554734-1.1214399.2970426-1.6702296.1674814-.6618128.3785712-1.3123233.6320053-1.9465082.2483782-.6360687.5289885-1.2639745.8405672-1.8837176.2509061-.4966736.5403646-.9732541.8658474-1.42534637.2148818-.31206922.474636-.59148733.7710465-.82883576.0859528-.07786032.1940257-.1287207.3096827-.14441835h-.0063201c.0316003 0 .1516813.08790683.2212019.43325506.0600405.3955807.0600405.79744046 0 1.19302112m13.7524371.0125582c-.1074409.5663711-.2464821 1.1258352-.4171236 1.6765086-.1984496.6762547-.4348197 1.3405791-.707846 1.9904617-.2951465.6360686-.6155732 1.2639745-.9606482 1.8837176-.2806104.4991852-.5978771.9776494-.948008 1.4316254-.2370021.307046-.5157164.5795571-.8279271.8099986-.0935368.0784882-.2072978.1287207-.3286428.1444183h-.0442404s-.1390411-.0816277-.1832815-.4206969c-.0391844-.400604-.0176962-.8049753.0632005-1.1993002.1055449-.5707665.2445861-1.134626.4171236-1.6890668.1990817-.6655803.4348197-1.3198582.707846-1.9590664.2704983-.6473709.583341-1.2765326.935368-1.8837176.2875624-.4841154.6086211-.94751.9606481-1.38767198.2382661-.3095576.5163484-.58583618.8279271-.8225567.0929048-.07848823.2072978-.1287207.3286428-.14441835h.0442404s.1390411.08790682.1832815.42069694c.0379203.39432489.0170642.79241719-.0632005 1.18046309m12.7096282 0c-.1074409.5663711-.2464821 1.1258352-.4171236 1.6765086-.2041377.6655803-.4442997 1.3198582-.7204861 1.9590664-.2951465.6360686-.6155732 1.2639745-.9606482 1.8837176-.2812424.4991852-.5978771.9776494-.948008 1.4316254-.235738.3152087-.5144524.5965106-.8279271.8351148-.0935368.0784882-.2072978.1287207-.3286428.1444184h-.0442404c-.0316002 0-.1327211-.0816278-.1832815-.420697-.0372883-.4012318-.0139041-.8049753.0695206-1.1993002.1118649-.5820688.2597542-1.1566026.4424037-1.7204621.2035058-.6636965.4436678-1.3154628.7204862-1.9527873.2723943-.6473709.587133-1.2765326.941688-1.8837176.2875624-.4954177.6105172-.9694867.9669682-1.41906728.237634-.3101855.5157164-.58646408.8279271-.82255669.0929048-.07848824.2072977-.12872071.3286428-.14441835h.00632s.1327211.08790682.1832816.42069693c.0360243.3949528.0126401.79241719-.0695206 1.18046309m13.4364344-7.60394019c.0139041 1.55343914-1.2425226 2.82432063-2.8061039 2.83813456s-2.8427602-1.23446295-2.8566643-2.78790209c-.0139041-1.55343913 1.2425226-2.82432063 2.8061039-2.83816308h.0505604c1.5566292-.00687844 2.824432 1.24139844 2.8313841 2.78793061m-56.93736477 13.70718529c-.13082511.4476969-.25280215.8979054-.36656312 1.3499976l-.37288317 1.4755788c-.11376097.4332551-.18960162.7848823-.23384199 1.0360447-.07647265.4363946-.43039567.7723242-.87216743.8288357-.43987574.0784883-.8923916.0439535-1.31457119-.1004649-.46262794-.1494416-.88227951-.4056272-1.22609044-.747208-.37288317-.3629296-.57891693-.8627427-.56880484-1.3813929.04297636-.7252313.15926535-1.4448114.34760296-2.1474381.22752193-.9732541.55616473-2.13488.97328828-3.4409242.46325995-1.42723.96064818-2.8425299 1.4915327-4.24464371.51382038-1.314207 1.07188113-2.62276284 1.67481426-3.92441172.1997137-.42697599.60925319-.71958013 1.0807292-.77232423.9271519-.1287207 1.87010393-.09920912 2.78714375.08790683.4120675.09104635.6724537.49667354.5808129.90669608-.0113761.05086038-.0284402.10046494-.0499284.14818579-.4973882 1.08816088-.9606482 2.1913915-1.39041184 3.30906396-.33306683.85834733-.65538958 1.7204621-.96696823 2.5869722-.01959216.0521162.00695206.1098835.0587765.1293486.02654423.0094186.05498447.0081628.08026469-.0037674.41522753-.1959067.81655095-.420697 1.20081022-.6718593.64148546-.406883 1.22798646-.8947659 1.74433486-1.45046258.5157164-.54816183.94232-1.17292817 1.2640108-1.85232233.3160026-.67876625.477796-1.41843937.474004-2.16627527.0714166-.80999858-.233842-1.60743904-.8279271-2.16627527-.6781417-.48348752-1.5060688-.71455688-2.3384199-.65302211-.99856847-.00439534-1.98007283.2561856-2.84402418.75348705-.84183117.46402244-1.59834161 1.06743999-2.23729905 1.78325269-.59345306.673743-1.07883319 1.43413702-1.44097227 2.25418209-.30209857.63858027-.47400404 1.32990464-.50560431 2.03441503.01390412.39055746-.25027413.7365336-.63200538.8288358-.36972314.1098835-.76662252.0923021-1.12496957-.0502325-.40511545-.173302-.75524643-.45334805-1.01120861-.80999859-.34823497-.47658056-.52203645-1.05739349-.4929642-1.64511339.05056043-.75411496.28945846-1.48311368.69520592-2.12232186.52330045-.8866031 1.19638618-1.67713659 1.99081695-2.33580986.97581631-.81376601 2.07676968-1.46678812 3.26114776-1.93395009 1.42327612-.55946413 2.94388107-.83448691 4.47459814-.80999858.9518001-.01004649 1.9017042.08916264 2.8313841.29511576.8885995.19716245 1.7411748.52995256 2.5280215.98581223.704054.4282318 1.3088831.99962615 1.7759351 1.67650868.4746361.67688254.7223822 1.4856253.707846 2.31069362.0037921.9085798-.2129858 1.80460149-.6320053 2.61208844-.4247077.80748696-.9916165 1.53271824-1.6748143 2.14115904-.7369183.65365-1.5597893 1.2049514-2.4458608 1.6388343-.7811587.3886738-1.5926536.7145569-2.4269007.9732541-.0467684.0094186-.0771046.0539999-.0695206.100465 0 .4144179.0505604.8225567.0884808 1.2181374.0379203.3955807.1137609.8916263.1896016 1.3123233.0758406.4206969.1643214.8099985.2717623 1.1930211.1264011.4583713.2806104.9092077.4613639 1.3499976.1415692.3076739.2995706.607185.4740041.8979054.1485212.2712554.3128426.5330921.4929642.7848824.1643214.2329531.3438109.4552318.5372045.6655802.1788576.1927671.3709872.373604.5751249.5399991.1990817.1582323.4108035.3007669.6320054.426976.6035652.3641854 1.286131.5795571 1.990817.6279058.23953.0175814.4803241.0175814.7204861 0 .2496421-.033279.4967562-.0835114.7394463-.1506974.2635462-.0609068.5233004-.1387672.7773666-.2323251.3855233-.1450463.7596705-.3189762 1.1186495-.5211619.3318029-.1883718.7533504-.0992091.9796084.2072089.2237299.3057902.1744335.7321383-.113761.9795332-.4588359.3974644-.939792.7685568-1.4409723 1.1113934-.3160027.219767-.6320053.4206969-.9606481.6279059l-.4992843.2637204c-.3210587.1594881-.6497015.3020228-.9859284.426976-.3185307.1174184-.6433815.2159996-.9732883.2951158-.3141066.0753487-.6332694.1299765-.9543281.1632555-.3096826.0213488-.6199973.0213488-.9290479 0-.4487238-.020093-.8942876-.0891626-1.3272113-.2072089-.4240756-.1167905-.8336151-.2813019-1.2197704-.4897666-.2578582-.1393951-.5049723-.2969995-.7394463-.4709294-.1940256-.1450463-.3798352-.300139-.5561647-.4646504-.2237299-.1965345-.43481973-.4062551-.63200541-.6279058-.1997137-.2367206-.38489127-.4841155-.55616473-.740929-.17064145-.2769065-.32674678-.5613478-.46768398-.853952-.15168129-.2888367-.29704253-.5965105-.42344361-.9104635-.12640107-.3139529-.25280215-.6279059-.36024306-.9858122-.10744092-.3579064-.20856178-.7032546-.29072248-1.0611609-.0821607-.3579064-.1643214-.7534871-.22120188-1.1302306-.05688049-.3767435-.10112086-.6969755-.13904119-1.0486028-.01390412-.0539999-.06888858-.086651-.12324105-.0728371-.0360243.0094186-.06383254.0370464-.07268062.0728371" fill="#fff" transform="translate(0 18)"/><path d="m0 0h65v64h-65z" transform="matrix(-1 0 0 1 65 0)"/></g></svg>