<svg height="64" viewBox="0 0 91 64" width="91" xmlns="http://www.w3.org/2000/svg"><g fill="none" fill-rule="evenodd"><path d="m80.8682774 8.88140076c.8473975.65047463 1.9678792 1.16852704 3.6217609 1.70254584 3.2327708 1.0384502 3.2327708 1.8452516 3.2327708 2.2491935 0 .9231671-1.0203118 1.8748391-2.74478 1.8748391-1.4513839 0-2.5718656-.721196-2.98927-1.0384501l-.2298331-.1722932-2.5718657 1.7447622.2866621.3309654c.0864122.1015718 2.070207 2.4077754 5.5054757 2.4077754 1.6516337 0 3.174773-.5329363 4.281587-1.4994022 1.1067241-.9653834 1.7392149-2.2925825 1.7392149-3.6767016 0-1.4709874-.6472376-2.7113183-1.9110503-3.67679187-.8485663-.64930195-1.9689581-1.16843682-3.6217608-1.70137318-3.2339398-1.03845014-3.2339398-1.84633404-3.2339398-2.25027599 0-.92208455 1.0204018-1.87375663 2.74478-1.87375663 1.4514738 0 2.5730346.72119604 2.9893599 1.03845014l.2298332.17229324 2.5729446-1.74476222-.287741-.33096539c-.0865022-.10157182-2.070297-2.40777546-5.5043967-2.40777546-1.6527127 0-3.1758521.53293636-4.2826661 1.49831974-1.1068139.96655605-1.7380459 2.30737631-1.7380459 3.67787431.0136677 1.47089715.6460686 2.71014559 1.9109603 3.67670164zm-20.0484486.15975462c0 3.17236052 2.5434512 5.75360192 5.6624744 5.75360192 3.132691 0 5.6624744-2.5812414 5.6624744-5.75360192 0-3.17236054-2.5434511-5.75468439-5.6624744-5.75468439-3.1190232 0-5.6624744 2.58124138-5.6624744 5.75351171zm-3.2623542 0c0-4.94562782 4.0096717-8.96926129 8.9396653-8.96926129 4.9287347 0 8.9384064 4.02363347 8.9384064 8.96926129s-4.0096717 8.96926132-8.9384064 8.96926132c-4.9299936 0-8.9396653-4.0236335-8.9396653-8.96926132zm-47.4109154.07189409c-.84856637-.64930196-1.96904806-1.16744456-3.62185072-1.70146339-3.23384989-1.03845014-3.23384989-1.84516137-3.23384989-2.24919352 0-.92316702 1.02031183-1.8748391 2.74478-1.8748391 1.45138391 0 2.57303455.72119604 2.9893599 1.03845014l.22974326.17346591 2.57303455-1.74593489-.287831-.33096539c-.0853332-.10157183-2.06912799-2.42256923-5.51797441-2.42256923-1.65397161 0-3.175942.53401884-4.28266607 1.49940221-1.10681399.96655605-1.73930482 2.29366502-1.73930482 3.67670164 0 1.47206983.64723756 2.71131827 1.91105026 3.67787432.84856639.64812928 1.96895816 1.16735433 3.62176082 1.70029073 3.23393981 1.0247388 3.23393981 1.846334 3.23393981 2.250276 0 .923167-1.02031183 1.8749293-2.74478 1.8749293-1.45147384 0-2.57303455-.7211961-2.98935991-1.0384502l-.22974325-.1734659-2.57303455 1.7459349.28774106.3309654c.08650216.1003992 2.07029696 2.4077755 5.50439665 2.4077755 1.65280266 0 3.17585208-.5329364 4.28266611-1.4994924 1.1068139-.9665561 1.7381358-2.3073764 1.7381358-3.6767017 0-1.4571858-.6313219-2.6816405-1.8962136-3.66299033zm20.0483587-.14378818c0-3.17236054-2.5445302-5.75360192-5.6772211-5.75360192-3.132691 0-5.6624744 2.58124138-5.6624744 5.75360192 0 3.17227031 2.5434511 5.75351171 5.6624744 5.75351171 3.1326909 0 5.6761421-2.5812414 5.6761421-5.75351171zm3.2760219 0c0 4.94562781-4.0096717 8.96926131-8.9384963 8.96926131-4.9299036 0-8.9395754-4.0236335-8.9395754-8.96926131 0-4.94562782 4.0096718-8.96926129 8.9396653-8.96926129 4.9287347 0 8.9384064 4.02363347 8.9384064 8.96926129zm15.8226114-8.3348433h3.1906888v17.13063871l-10.7777912-10.06472159v9.54549649h-3.1906888v-17.08724965l10.7777912 10.07960555z" fill="#fff" transform="translate(0 22)"/><path d="m0 0h91v64h-91z" transform="matrix(-1 0 0 1 91 0)"/></g></svg>