<svg height="64" viewBox="0 0 104 64" width="104" xmlns="http://www.w3.org/2000/svg"><g fill="none" fill-rule="evenodd"><path d="m93.5091353 13.75005 7.3241977 6.24995v-5l-5.8558465-4.9972 5.8558465-5.0028v-5l-10.2338107 8.74295v-2.493l-7.324198-6.24995v5l5.8558468 4.9972-5.8558468 5.0028v5l10.233811-8.7428zm-83.3254451-5.35005-3.28590611-.625c-1.83109969-.35-2.63369133-.775-2.63369133-1.775 0-1.400025 1.58021078-2.12503 3.56175752-2.12503 2.08187822 0 3.93801062.8 4.33933652 2.50003h3.5117022c-.401326-3.24999-3.3360719-5.375-7.85103872-5.375-4.1637464 0-7.44960439 1.825055-7.44960439 5.12505 0 2.875 2.45812829 4.325 5.74396922 4.95l3.28585599.625c1.8310997.35 2.7591157.925 2.7591157 2.05 0 1.52495-1.7056352 2.375-3.81259624 2.375-2.58353563 0-4.31423861-1.25-4.71556454-3.125h-3.63702602c.52673508 3.75 3.48652379 6 8.35259056 6 4.33933654 0 7.70044114-1.75 7.70044114-5.37505 0-3.2-2.5835356-4.6-5.8693415-5.225zm14.2219874-5.274995v-1.875005h-3.6370162v1.375005c0 1.624995-.7524861 2.374995-2.3828726 2.374995h-1.0283977v2.75h2.8845301v6.75005c0 3 1.4798893 4.25 4.9914911 4.25h2.9848616v-2.75005h-2.6587843c-1.2541435 0-1.6805523-.375-1.6805523-1.5v-6.75h4.3393366v-2.75h-5.3928171zm31.4540696 13.124995c-2.6337013 0-4.3142536-1.85-4.3142536-4.35s1.6805523-4.35 4.3142536-4.35c2.0317125 0 3.486519 1.125 3.862762 2.5h3.5868504c-.6521546-3.25001-3.4865189-5.25001-7.4496124-5.25001-4.7406624 0-8.0266188 2.85001-8.0266188 7.10001s3.2859564 7.1 8.0266188 7.1c3.9630935 0 7.0733694-2 7.5750268-5.375h-3.5868504c-.3762431 1.25-1.7307181 2.625-3.9881764 2.625zm-18.059817-11.45001c-4.8911095 0-8.0265184 2.85001-8.0265184 7.10001s3.1353588 7.1 8.0265184 7.1c4.8911597 0 8.0265686-2.85 8.0265686-7.1s-3.1353587-7.10001-8.0265686-7.10001zm0 11.45001c-2.6337013 0-4.3142536-1.85-4.3142536-4.35s1.6805523-4.35 4.3142536-4.35c2.6337014 0 4.3143039 1.85 4.3143039 4.35s-1.6805523 4.35-4.3143039 4.35zm35.0158372-4.79995 7.5499439-6.45h-4.8911597l-6.170386 5.4v-9.15005h-3.6370162v17.50005h3.6370162v-4.3l2.1807047-1.86295 5.2939906 6.16295h4.6152481l-6.2707175-7.3z" fill="#fff" fill-rule="nonzero" transform="translate(1.454545 21)"/><path d="m.454545 0h103v64h-103z"/></g></svg>
