<svg height="64" viewBox="0 0 136 64" width="136" xmlns="http://www.w3.org/2000/svg"><g fill="none" fill-rule="evenodd"><path d="m126.04798 2.43197279h-2.792705v12.97619051h2.792705v-9.27721092c.771767-1.13144832 2.040697-1.80529535 3.394725-1.80272109 1.92312 0 3.219136 1.19897959 3.219136 3.14625851v7.9336735h2.792704v-8.48639459c0-2.76360544-1.964927-4.71088436-4.983389-4.71088436-1.872952 0-3.428171.79081633-4.431538 2.14285715v-1.92176871zm-11.145735 1.77721088c1.973288 0 3.336195 1.18197279 3.762626 3.29081633h-7.441639c.401347-2.09183673 1.772615-3.29081633 3.679013-3.29081633zm.050168 11.46258503c3.093715 0 5.368013-1.6666667 6.195791-4.4217687h-2.742536c-.51421 1.4656429-1.898693 2.4272013-3.428171 2.3809524-2.22413 0-3.737542-1.5646259-3.879686-4.2346939h10.401572v-.52721088c0-4.27721089-2.876319-6.67517007-6.54697-6.67517007-3.84624 0-6.664029 2.59353742-6.664029 6.74319728 0 4.11564627 2.775982 6.73469387 6.664029 6.73469387zm-14.933446-11.46258503c1.964928 0 3.336196 1.18197279 3.762627 3.29081633h-7.4416389c.3929854-2.09183673 1.7558923-3.29081633 3.6790119-3.29081633zm.050169 11.46258503c3.093715 0 5.368013-1.6666667 6.18743-4.4217687h-2.734175c-.51857 1.4622162-1.900245 2.421825-3.428171 2.3809524-2.2241302 0-3.7375421-1.5646259-3.8796858-4.2346939h10.4015708v-.52721088c0-4.27721089-2.876318-6.67517007-6.546969-6.67517007-3.8462404 0-6.6640294 2.59353742-6.6640294 6.74319728 0 4.11564627 2.7592593 6.73469387 6.6640294 6.73469387zm-11.4467454-13.23979591h-2.7927049v12.97619051h2.8010663v-8.86904765c.8361391-1.47108844 2.5920314-2.04081633 4.3479236-1.75170068v-2.59353742c-1.964927-.10204082-3.4281705.76530612-4.3479236 2.39795918v-2.15986394zm-11.5721661 8.95408161c-2.1237935 0-3.6790124-1.25-3.6790124-3.50340134 0-2.32993197 1.5301347-3.61394558 3.6790124-3.61394558 2.157239 0 3.6873737 1.27551021 3.6873737 3.61394558 0 2.25340134-1.5635802 3.50340134-3.6790123 3.50340134zm-3.4281706 4.0221089h-2.6756454c.66055 3.1207483 3.2609428 4.5918367 6.7727273 4.5918367 3.4950617 0 5.8362514-1.6326531 5.8362514-4.1156463 0-1.9472789-1.3963524-2.8316326-3.5201459-3.4353741 2.0762147-.5251839 3.4979001-2.46957763 3.394725-4.64285715 0-1.25-.4180696-2.35544218-1.153872-3.24829932.6172462-.14631838 1.2572763-.16367572 1.8813131-.05102041v-2.39795918c-1.1908627-.09347619-2.3555402.38849754-3.1438833 1.30102041-1.187407-.78170427-2.5739411-1.19260897-3.9883838-1.18197279-3.7124579 0-6.3630191 2.31292517-6.3630191 5.57823129 0 4.30272105 3.5452301 5.31462585 6.9483165 6.11394555 2.6756454.6207483 3.2358586 1.25 3.2358586 2.159864 0 1.0204081-.7776094 1.8962585-3.1940516 1.8962585-2.0652638 0-3.4867004-.7653061-4.0301908-2.5680272zm-7.7510101-3.6564626v-7.21088437h4.0218294v-2.10884354h-4.013468v-2.43197279h-2.7676207v2.43197279h-3.24422v2.11734694h3.2358586v7.72108847c0 2.1598639 1.1287879 3.2482993 3.9716611 3.2482993.8528619 0 1.7558922-.1020408 2.8094276-.3826531v-2.0663265c-.9197531.2380952-1.6304714.3061224-2.199046.3061224-1.5886645 0-1.8227834-.5952381-1.8227834-1.6241496zm-12.8849046-7.54251703c1.964927 0 3.3278339 1.18197279 3.7542648 3.29081633h-7.4416386c.4013468-2.09183673 1.7809765-3.29081633 3.6790124-3.29081633zm.0501683 11.46258503c3.0937149 0 5.3680135-1.6666667 6.1874299-4.4217687h-2.7425365c-.5120059 1.467371-1.8979117 2.4299181-3.4281706 2.3809524-2.2241302 0-3.7375421-1.5646259-3.8713244-4.2346939h10.4015713v-.52721088c0-4.27721089-2.8846801-6.67517007-6.5469697-6.67517007-3.8546016 0-6.6723906 2.59353742-6.6723906 6.74319728 0 4.11564627 2.7759821 6.73469387 6.6723906 6.73469387zm-14.9334455-11.46258503c1.964927 0 3.3278338 1.18197279 3.7542648 3.29081633h-7.4416386c.4013468-2.09183673 1.7642537-3.29081633 3.6790124-3.29081633zm.0418069 11.46258503c3.0937149 0 5.3680135-1.6666667 6.1957913-4.4217687h-2.7425365c-.5163979 1.4639247-1.8994699 2.4245037-3.4281706 2.3809524-2.2241302 0-3.7375421-1.5646259-3.8796858-4.2346939h10.4099327v-.52721088c0-4.27721089-2.8846801-6.67517007-6.5553311-6.67517007-3.8462402 0-6.6640292 2.59353742-6.6640292 6.74319728 0 4.11564627 2.7592593 6.73469387 6.6640292 6.73469387zm-13.512009-.2636054h2.8261504l3.5703143-12.97619051h-2.5753087l-2.4415263 9.60884351-2.7592593-9.60884351h-2.4582492l-2.7174523 9.46428571-2.4080808-9.46428571h-2.7425364l3.5953984 12.97619051h2.8261504l2.625477-9.37925174zm-18.03552185.255102c3.38636363 0 5.74427605-1.6751701 5.74427605-4.0561224 0-5.13605446-9.45673397-2.90816331-9.45673397-5.84183678 0-.95238095.98664422-1.62414966 2.85959596-1.62414966 2.03181819 0 3.3278339.81632653 3.82115601 2.60204082h2.625477c-.5852974-2.94217687-2.9264871-4.58333333-6.42154883-4.58333333-3.44489338 0-5.56868687 1.55612244-5.56868687 3.91156462 0 5.00850343 9.44837262 2.69557823 9.44837262 5.82482993 0 1.0204082-.93647587 1.8027211-3.06026936 1.8027211-2.1237935 0-3.46997756-.9353742-3.9298541-2.8826531h-2.65892256c.58529742 3.2397959 3.02682379 4.8469388 6.59713805 4.8469388z" fill="#fff" fill-rule="nonzero" transform="translate(0 22)"/><path d="m0 0h135v64h-135z" transform="matrix(-1 0 0 1 135 0)"/></g></svg>