<svg height="114" viewBox="0 0 300 114" width="300" xmlns="http://www.w3.org/2000/svg"><g fill="none" fill-rule="evenodd"><path d="m1.84454889 113.54509 54.76334541-55.9497217c.3430618-.3504845.4088097-.8923779.1227028-1.2903992-3.3312968-4.6346419-9.4749679-5.4379214-11.7524321-8.5515839-6.7462608-9.2234068-8.4579728-14.4438936-11.3568785-14.1200988-.2025064.0226398-.3830302.1312574-.5253176.27659l-19.7834095 20.2119836c-11.38102602 11.6274691-13.01312766 37.2283102-13.3125594 58.665031-.01340733.968663 1.16577276 1.451334 1.84454889.758199z" fill="#017cee" fill-rule="nonzero"/><path d="m113.925265 112.16214-56.1365719-54.5813116c-.3516551-.3419199-.8953581-.4075155-1.2947087-.1223609-4.6500531 3.3202751-5.4560153 9.4434306-8.5801428 11.7133807-9.2542092 6.7235404-14.4921305 8.4298205-14.1672542 11.3192101.0227153.2018323.1316957.3817553.2775803.5231707l20.2794169 19.717826c11.6663003 11.343112 37.3526381 12.969721 58.8609494 13.267945.971897.013819 1.456181-1.161323.760731-1.83786z" fill="#00ad46" fill-rule="nonzero"/><path d="m54.3033182 100.732055c-6.3727565-6.195722-9.3293499-18.4537181 2.8878478-43.731561-19.8554858 8.843776-26.8135124 20.4690542-23.3906213 23.7972964z" fill="#04d659"/><path d="m112.536364.45564535-54.7632586 55.94964235c-.3430618.3504845-.4088098.8923115-.1227029 1.2903329 3.3312969 4.6346418 9.4752344 5.4379214 11.7520991 8.5516502 6.7466605 9.2232076 8.4586389 14.4436281 11.3570117 14.120298.2025064-.0225734.3830302-.1314566.525584-.2768556l19.7830097-20.2119836c11.381659-11.6276019 13.013701-37.2281775 13.312909-58.66511744.013211-.96871565-1.165856-1.45144686-1.844652-.75796681z" fill="#00c7d4" fill-rule="nonzero"/><path d="m101.068773 59.8787296c-6.2170793 6.3512792-18.5160123 9.29843-43.8782732-2.8782356 8.8733108 19.7891979 20.5374128 26.7245295 23.8767699 23.3126331z" fill="#11e1ee"/><path d="m.45716691 1.83840281 56.13647199 54.58102639c.351655.34192.8952914.4075155 1.2947086.1223609 4.6500532-3.3202087 5.4560153-9.4434306 8.5798097-11.7133143 9.2546756-6.723806 14.4925302-8.4298205 14.1674542-11.3190773-.0226488-.2018323-.1318957-.3817552-.2771141-.523569l-20.27975-19.7175607c-11.6664335-11.34316439-37.3525714-12.9698336-58.86108227-13.2682688-.97195077-.01336923-1.45629412 1.16188598-.76049812 1.83840281z" fill="#e43921" fill-rule="nonzero"/><path d="m60.0783476 13.2679368c6.37249 6.196187 9.3294831 18.4538511-2.8878478 43.7318269 19.855286-8.8436433 26.8137788-20.4691207 23.3904881-23.7971636z" fill="#ff7557"/><path d="m13.3132256 54.1219264c6.2168798-6.3515448 18.5154796-9.2982972 43.8778738 2.8782356-8.8732442-19.789397-20.5374794-26.7242639-23.8766367-23.3127659z" fill="#0cb6ff"/><g fill-rule="nonzero"><ellipse cx="57.199" cy="56.993" fill="#4a4848" rx="2.449" ry="2.441" transform="matrix(.99992344 -.01237407 .01237407 .99992344 -.700856 .71216)"/><path d="m129.638829 37.1858679c-.115242 0-.216496-.043155-.303094-.1295313-.086598-.0863762-.129897-.1871596-.129897-.3022837 0-.1151906.007328-.1943301.021317-.237485l5.373081-13.9700524c.115242-.3166909.346392-.4750363.693451-.4750363h1.472834c.346393 0 .577543.1583454.693451.4750363l5.351099 13.9700524.043299.237485c0 .1151241-.043299.2159075-.129898.3022837-.086598.0863763-.187851.1295313-.303759.1295313h-1.104459c-.159208 0-.281777-.0359846-.368376-.1079538-.086598-.0863763-.144552-.1727525-.173196-.2590624l-1.191723-3.0661257h-7.10571l-1.191723 3.0661257c-.028644.0863099-.093926.1726861-.195179.2590624-.086598.0719692-.201841.1079538-.346393.1079538zm9.31596-5.2899996-2.925018-7.6651813-2.924352 7.6651813zm6.454225 9.3925078c-.144552 0-.267121-.0503917-.368375-.1511087-.086598-.0863763-.129897-.2015668-.129897-.3455051v-14.337135c0-.1439383.043299-.2590624.129897-.3454387.101254-.1007834.223823-.1511751.368375-.1511751h.996545c.144552 0 .259794.0503917.346393.1511751.101253.0863763.151879.2015004.151879.3454387v.9500727c.808694-1.1084181 1.99309-1.662594 3.552522-1.662594 1.5168 0 2.650569.4750364 3.401308 1.4251091.765395.9500063 1.177069 2.1735486 1.235023 3.6706268.014655.1583454.021982.4030672.021982.7340988 0 .331098-.007327.5758197-.021982.7341652-.057954 1.4826047-.469628 2.7062134-1.235023 3.6706268-.765394.9500727-1.899163 1.4251091-3.401308 1.4251091-1.501478 0-2.671885-.5398352-3.509223-1.6194391v5.0093596c0 .1439383-.043299.2591288-.129897.3455051-.086598.100717-.202506.1511087-.347058.1511087zm4.592366-5.6355047c1.025855 0 1.769266-.3166909 2.231567-.9500727.476956-.6333818.73675-1.468264.780049-2.5046466.014656-.1439383.021983-.3526755.021983-.6262114 0-2.7205541-1.0112-4.0808644-3.033599-4.0808644-.996545 0-1.747284.331098-2.252884.9932277-.490945.6477225-.758066 1.4250426-.801366 2.3319604l-.021982.8204751.021982.842119c.028644.8492229.303094 1.5905584.823349 2.2239402.519589.6333818 1.263666.9500727 2.230901.9500727zm10.934013 1.7489704c-.70744 0-1.364254-.1440048-1.971107-.4318814-.606853-.2878767-1.09047-.6765368-1.451517-1.1659803-.346393-.5037841-.520255-1.05796-.520255-1.662594 0-.9500063.390357-1.7273265 1.170407-2.331894.794038-.6189747 1.862526-1.0220419 3.206129-1.2092016l3.228112-.4533925v-.6262114c0-1.4681976-.845331-2.2023628-2.534661-2.2023628-.635497 0-1.155752.1367679-1.560099.4102375-.404346.2591289-.70744.568583-.909946.9284952-.043299.1295313-.101253.2230779-.173196.2807064-.057954.057562-.144553.0863098-.259795.0863098h-.931929c-.129897 0-.245139-.0431549-.346392-.1295312-.086598-.1007834-.129898-.2159075-.129898-.3454387.013989-.3455051.173197-.7341652.47629-1.1659802.317749-.4462222.801366-.8277119 1.451518-1.1444028.650152-.331098 1.451518-.4966138 2.404764-.4966138 1.617386 0 2.780466.3814897 3.487906 1.1444027.70744.748506 1.061826 1.6841716 1.061826 2.8069304v6.9958149c0 .1439384-.050627.2662993-.15188.3670826-.086598.0863763-.202506.1295313-.346392.1295313h-.996545c-.144552 0-.267122-.043155-.368375-.1295313-.086598-.1007833-.129897-.2231442-.129897-.3670826v-.9284288c-.317749.4606292-.78005.8492893-1.386903 1.1659802-.606186.3166909-1.378908.4750364-2.318165.4750364zm.454973-1.6194391c.939257 0 1.704651-.3022838 2.296849-.9068514.606187-.6189747.909947-1.5042486.909947-2.6558217v-.6045676l-2.513344.3670162c-1.025189.1440048-1.797911.3886601-2.318166.7341652-.519589.331098-.780049.7557427-.780049 1.273934 0 .5757534.238478 1.0220419.715434 1.3386664.476289.3023502 1.039843.4534589 1.689329.4534589zm12.907119 1.6194391c-1.545444 0-2.75915-.4318814-3.639786-1.2955779-.866648-.8780371-1.328949-2.1015794-1.386903-3.6706268l-.021316-.8636964.021316-.86363c.057954-1.5690474.520255-2.7854194 1.386903-3.6491158.880636-.8780371 2.094342-1.3170889 3.639786-1.3170889 1.039843 0 1.92048.1871597 2.642575.5614126.722095.374253 1.257005.8348822 1.603398 1.3818878.361047.5470055.556226 1.094011.58487 1.6409501.014655.1440048-.028644.2591289-.129897.3455052-.101253.0863762-.223823.1295312-.368375.1295312h-1.039844c-.144552 0-.253133-.0287478-.325076-.0863763-.071943-.057562-.144552-.1726862-.216495-.3454387-.245806-.6909439-.592198-1.1803874-1.039844-1.468264-.447646-.3022838-1.0112-.4534589-1.689996-.4534589-.895291 0-1.610059.2807063-2.144969.8421189-.519589.5470056-.801366 1.3890581-.844665 2.5262905l-.021316.7773202.021316.7340988c.043299 1.1515731.325076 2.0008624.844665 2.5478679.520255.5470055 1.235023.8204751 2.144969.8204751.678796 0 1.24235-.1439383 1.689996-.431815.447646-.3022838.794038-.7988976 1.039844-1.4898415.071943-.1727526.144552-.2879431.216495-.3455051.071943-.0719692.180524-.1079538.325076-.1079538h1.039844c.144552 0 .267122.0503917.368375.1511751.101253.0863099.144552.2015004.129897.3454387-.028644.5325985-.223823 1.079604-.58487 1.6410166-.346393.5470055-.881303 1.0076348-1.603398 1.3818877-.70744.374253-1.588743.5614127-2.642575.5614127zm7.923729-.2159739c-.144553 0-.267122-.043155-.368376-.1295313-.086598-.1007833-.129897-.2231442-.129897-.3670826v-14.3370685c0-.1440047.043299-.2591288.129897-.3455051.101254-.1007834.223823-.1511087.368376-.1511087h1.083142c.144553 0 .259795.0503253.346393.1511087.101253.0863763.15188.2015004.15188.3455051v5.0309371c.419001-.5325984.909946-.9356656 1.472834-1.2092016.563554-.2878767 1.263667-.431815 2.10167-.431815 1.386236 0 2.462718.4462221 3.228112 1.3387328.780049.8780371 1.169741 2.0511877 1.169741 3.5194517v6.0889635c0 .1439384-.050627.2662993-.15188.3670826-.086598.0863763-.20184.1295313-.346393.1295313h-1.083142c-.144553 0-.267122-.043155-.368375-.1295313-.086599-.1007833-.129898-.2231442-.129898-.3670826v-5.9809433c0-1.0220419-.253133-1.8137692-.758066-2.3751818-.491611-.5613463-1.206379-.8420526-2.144969-.8420526-.909947 0-1.63937.2878767-2.188269.8636965-.534243.5613462-.801365 1.3459031-.801365 2.3535379v5.9809433c0 .1439384-.050627.2662993-.15188.3670826-.086598.0863763-.20184.1295313-.346393.1295313zm17.18773.2159739c-1.487489 0-2.679213-.4534589-3.574504-1.3603103-.881303-.9212585-1.36492-2.173615-1.451518-3.7570031l-.021983-.7341652.021983-.7125213c.100587-1.5546403.592198-2.7925897 1.472834-3.7138482.895292-.9212585 2.07236-1.3818877 3.531205-1.3818877 1.603398 0 2.845748.5110209 3.726385 1.5330628.881302 1.0076348 1.32162 2.3751154 1.32162 4.1024419v.3670826c0 .1439383-.050626.2662992-.15188.3670826-.086598.0863762-.20184.1295312-.346392.1295312h-7.496067v.19433c.043299.9356656.325076 1.7345632.845331 2.3966929.534243.6477889 1.234356.9716501 2.101003.9716501.664808 0 1.206379-.1295312 1.624715-.38866.433656-.2734696.751405-.5541759.953245-.8420526.130563-.1727525.223823-.2735359.281777-.3022838.072609-.0432213.195179-.0647988.368375-.0647988h1.061827c.129897 0 .237811.0359846.324409.1079538.087265.0719691.130564.1727525.130564.3022838 0 .3166909-.202507.6981806-.606853 1.1444027-.389692.4462221-.945918.8348822-1.668013 1.1659802-.708107.3166909-1.524128.4750364-2.448063.4750364zm2.967651-6.6503762v-.0647988c0-.9932277-.274449-1.7992956-.823348-2.4182703-.534244-.6333818-1.256339-.9500727-2.166286-.9500727-.909946 0-1.632041.3166909-2.166285.9500727-.519589.6189747-.780049 1.4250426-.780049 2.4182703v.0647988z" fill="#51504f"/><path d="m129.335735 37.0563366-.117906.1173815zm-.10858-.5397687-.155211-.0594875-.002664.0069712zm5.373081-13.9700524.15521.0593547.001332-.0026557zm2.859736 0-.156543.056699.000667.0024565zm5.351099 13.9700524.16387-.0297437c-.001999-.0100253-.004663-.0199177-.00866-.0294782zm.043299.237485h.166534c0-.0099589-.001332-.0199177-.002664-.0296774zm-.129898.3022837.117241.1173815zm-1.776594.0215775-.117906.1173815c.00333.0035188.007327.0069048.011324.010158zm-.173196-.2590624.157875-.0525827-.002664-.0073695zm-1.191723-3.0661257.15521-.0598858c-.024647-.0639357-.086598-.1060947-.15521-.1060947zm-7.10571 0v-.1659805c-.068612 0-.130563.042159-.15521.1060947zm-1.191723 3.0661257-.155211-.0600186-.002665.0075023zm-.195179.2590624.106582.1275395.001998-.001527zm7.864442-5.1820458v.1659806c.054624 0 .105916-.0268225.137225-.07177.030642-.0449475.03797-.102244.018652-.1532332zm-2.925018-7.6651813.155876-.0590226c-.024647-.0644005-.086598-.1069579-.155876-.1069579-.068613 0-.130564.0425574-.155211.1069579zm-2.924352 7.6651813-.155877-.0590226c-.019318.0509892-.012657.1082857.018652.1532332.031308.0449475.082601.07177.137225.07177zm-3.46659 5.124019c-.067946 0-.127899-.0235692-.185187-.0809321l-.235813.2347629c.115908.1153897.258462.1781303.421.1781303zm-.185187-.0809321c-.057288-.0572965-.081269-.1166511-.081269-.1849023h-.33307c0 .1620634.062617.3042755.178526.4196652zm-.081269-.1849023c0-.116452.007994-.1704289.013323-.1850352l-.316416-.1049661c-.023981.07177-.029977.1761386-.029977.2900013zm.010658-.1781304 5.372415-13.9700523-.311087-.1187757-5.372415 13.9700523zm5.373747-13.972708c.048628-.1326517.115909-.2203558.197844-.2761917.081935-.0561014.191182-.0895631.339065-.0895631v-.3319611c-.199176 0-.378368.0456779-.527583.1479219-.149881.1025096-.255131.2523568-.322411.4363297zm.536909-.3657548h1.472834v-.3319611h-1.472834zm1.472834 0c.147883 0 .25713.0334617.339065.0895631.081269.0558359.149215.14354.197843.2761917l.313086-.1134643c-.06728-.1839729-.17253-.3338201-.322411-.4363297-.149216-.102244-.328407-.1479219-.527583-.1479219zm.537575.3682113 5.351098 13.9700523.311087-.1183773-5.351098-13.9700523zm5.343104 13.9405742.043299.237485.327741-.0593547-.043299-.2375513zm.040635.2078077c0 .0682512-.023981.1276058-.081269.1849023l.235147.2347629c.115908-.1153897.179191-.2576018.179191-.4196652zm-.081269.1849023c-.057288.0573629-.117241.0809321-.185853.0809321v.3319611c.162538 0 .305758-.0627406.421-.1781303zm-.185853.0809321h-1.104459v.3319611h1.104459zm-1.104459 0c-.135893 0-.215163-.030806-.261793-.0694462l-.213165.2550125c.126567.105298.292435.1463948.474958.1463948zm-.250469-.0593546c-.074607-.0740274-.115242-.1391581-.133228-.1941973l-.31575.1049661c.039302.1177134.11391.2253352.213165.3239941zm-.135892-.2016332-1.191724-3.0660593-.310421.119838 1.191724 3.0661256zm-1.346934-3.172154h-7.10571v.3319611h7.10571zm-7.26092.1060947-1.191724 3.0660593.310421.1199043 1.191724-3.0661256zm-1.194389 3.0734952c-.015987.0476696-.057288.1103439-.145218.1855663l.216495.2520249c.11391-.0975302.202507-.2075421.244474-.3326251zm-.143886.1841057c-.048628.0408312-.123235.0694462-.23981.0694462v.3319611c.17253 0 .329073-.0432877.452975-.1463948zm-.23981.0694462h-1.105125v.3319611h1.105125zm8.366712-5.1830416-2.925019-7.6651813-.311087.1179789 2.924353 7.6651813zm-3.236106-7.6651813-2.925018 7.6651813.311753.1179789 2.924352-7.6651813zm-2.769141 7.8901845h5.84937v-.3319611h-5.84937zm11.93522 9.0753521-.117906.1173815zm0-15.0280124.117907.1173814zm1.711313 0-.126567.1080201c.005995.0064401.011991.0124818.017986.0179923zm.151879 1.2955114h-.166534c0 .0719028.046629.1356394.115242.1578144.068612.0222414.14322-.0020582.185853-.0602178zm6.95383-.2374849-.130563.1027087.000666.0011951zm1.235023 3.6706268-.166535.0063736.000666.008631zm0 1.468264-.165869-.015071-.000666.0086309zm-1.235023 3.6706268.129897.1039038.000667-.0009295zm-6.910531-.19433.131896-.1015137c-.043965-.0561679-.118573-.0784756-.185853-.0555703-.06728.0229717-.112577.0861107-.112577.157084zm-.129897 5.3547983-.117906-.117315c-.003331.0029876-.005996.006108-.00866.0093613zm5.415714-6.4344023-.133228-.0995883-.001332.0019918zm.780049-2.5046466-.165868-.0165316c0 .0031868-.000666.0063736-.000666.0096268zm-5.2645-3.7138481-.132561-.1005178v.0004647zm-.801366 2.3319604-.166534-.0079007v.0035188zm-.021982.8204751-.166535-.0043819v.008631zm.021982.8420526-.166534.0043155v.0013278zm.823349 2.2240066.128565-.1050988zm-2.361465 6.4195968c-.100587 0-.181189-.0332625-.250468-.1025095l-.235813.2346965c.132561.1322533.297764.1997742.486281.1997742zm-.250468-.1025095c-.04996-.0497278-.081269-.1197716-.081269-.2281237h-.33307c0 .1795245.05529.3398618.178526.4628202zm-.081269-.2281237v-14.337135h-.33307v14.337135zm0-14.337135c0-.1083521.031309-.1783295.081269-.2280573l-.235813-.2347629c-.123236.1230248-.178526.2833621-.178526.4628202zm.081269-.2280573c.069279-.0693134.149881-.1025759.250468-.1025759v-.3319611c-.188517 0-.35372.0675208-.486281.1997741zm.250468-.1025759h.996545v-.3319611h-.996545zm.996545 0c.100587 0 .167867.0325985.219826.0932146l.253133-.2160402c-.121237-.1409507-.284441-.2091355-.472959-.2091355zm.237812.1112069c.061285.0519188.093926.1193069.093926.2194263h.333069c0-.1877572-.068612-.3506837-.209834-.4714511zm.093926.2194263v.9500727h.333069v-.9500727zm.301095 1.0476693c.772721-1.0592215 1.90316-1.59421 3.417961-1.59421v-.3319612c-1.60473 0-2.842417.5733633-3.687082 1.7309781zm3.417961-1.59421c1.479496 0 2.559308.4615587 3.270745 1.3618372l.261793-.2054839c-.790708-.9998005-1.978434-1.4883145-3.532538-1.4883145zm3.271411 1.3630323c.738749.9164118 1.141763 2.1033056 1.198385 3.5730966l.33307-.0127473c-.058621-1.524299-.478955-2.7845562-1.271661-3.7682234zm1.199051 3.5817276c.013989.1504448.021317.3889257.021317.7190942h.333069c0-.3319611-.007327-.5829237-.022648-.7491699zm.021317.7190942c0 .3302349-.007328.5686494-.021317.7190942l.331738.0300756c.015321-.1662461.022648-.4172087.022648-.7491698zm-.021983.7277251c-.056622 1.4549192-.459636 2.6425433-1.199051 3.5740926l.261127.2059486c.792039-.9973439 1.212373-2.2568044 1.270994-3.7671611zm-1.198385 3.5731631c-.726092.9018719-1.80657 1.3630323-3.271411 1.3630323v.3319611c1.540115 0 2.727175-.4889787 3.531205-1.4871858zm-3.271411 1.3630323c-1.456181 0-2.574629-.5203822-3.377327-1.5549722l-.263791.2030274c.872643 1.1246178 2.093676 1.6839059 3.641118 1.6839059zm-3.675757-1.4534585v5.0093596h.333069v-5.0093596zm0 5.0093596c0 .1083521-.031309.1783959-.081269.2281237l.235813.2346965c.123236-.1229584.178525-.2832957.178525-.4628202zm-.089929.237485c-.051959.0605497-.119905.0931482-.220492.0931482v.3319612c.188517 0 .352387-.0681849.473625-.2091355zm-.220492.0931482h-1.061161v.3319612h1.061161zm3.531205-5.3035435c1.06116 0 1.863858-.3295046 2.366127-1.0183903l-.26912-.1952595c-.421666.5778115-1.106458.8816887-2.097007.8816887zm2.364795-1.0164649c.502269-.6673746.768725-1.5377103.813356-2.5973302l-.333069-.0138096c-.041967 1.0131454-.295766 1.8126405-.746743 2.4119631zm.81269-2.5877697c.015321-.1523038.022649-.3675473.022649-.6426767h-.33307c0 .2719425-.007327.4741069-.021316.6096798zm.022649-.6426767c0-1.3759124-.255131-2.4380552-.791374-3.1594731-.542903-.7307128-1.35626-1.0873718-2.40876-1.0873718v.3319611c.969899 0 1.673342.3234629 2.140972.9530603.474958.638826.726092 1.6171818.726092 2.9618235zm-3.200134-4.2468449c-1.037179 0-1.841876.3470985-2.385445 1.0586904l.265123.2010356c.46763-.6127338 1.165078-.9277649 2.120322-.9277649zm-2.385445 1.0591551c-.513594.6775326-.790708 1.4879825-.835339 2.4241128l.333069.0158014c.041967-.8776388.299097-1.6218292.768059-2.239808zm-.835339 2.4276316-.021983.8204751.33307.0087638.021982-.8205415zm-.021983.8291061.021983.842119.333069-.0085646-.021982-.8420526zm.021983.8434468c.029976.8841452.317082 1.6608015.860652 2.3234622l.257796-.2101977c-.495608-.6040365-.758067-1.3100514-.785379-2.1244848zm.860652 2.3234622c.557559.6789933 1.352929 1.0109544 2.360132 1.0109544v-.3319611c-.927266 0-1.619385-.3014207-2.102336-.889191zm11.323038 2.1620628.071277-.1498473zm-1.451517-1.1659803-.137225.093945.003331.0043819zm.650152-3.994488.101919.1309918.000666-.0002655zm3.206129-1.2092016.022649.1643872h.000666zm3.228112-.4533925.023315.1643208c.081935-.0115523.14322-.0815961.14322-.1643208zm-4.09476-2.4183367.089929.1396892.003331-.0023237zm-.909946.9284952-.145218-.0811313c-.00533.0090958-.009326.0187227-.012657.0286151zm-.173196.2807064-.103918-.1296641c-.005329.0038508-.009326.0079671-.013989.0122826zm-1.538116-.0432214-.126567.1080202c.005329.00644.011325.0124817.017986.0179923zm-.129898-.3454387-.166534-.0069712v.0069712zm.47629-1.1659802-.135892-.0960696-.000666.0008631zm1.451518-1.1444028.073275.149117.002665-.0013279zm5.89267.6477889-.121904.1126676.000666.0011287zm.909946 10.1698279.117907.1173815zm-1.711312 0-.126566.1080202c.005329.00644.011324.0124817.017985.0179923zm-.129897-1.2955114h.166535c0-.0726995-.047962-.1369672-.117241-.1585446-.069945-.0215111-.145218.004581-.186519.0645332zm-1.386903 1.1659802-.077272-.1470588zm.433657-2.0512541-.119239-.1159872v.0000664zm.909947-3.2603893h.166535c0-.0482671-.021317-.0940778-.057955-.1256141-.036637-.0315363-.085265-.0456114-.133227-.0386402zm-2.513344.3670162.023314.1643872.000667-.0001328zm-2.318166.7341652.089929.1398884.002665-.0017925zm-.064615 2.6126004-.092594.1381622.002665.0019254zm1.234356 1.9069174c-.684125 0-1.316291-.1390253-1.89983-.4157481l-.14322.2996945c.630168.299097 1.312295.4480147 2.04305.4480147zm-1.89983-.4157481c-.584204-.2773203-1.045172-.6492495-1.3889-1.1144598l-.267788.1966537c.378367.5136767.884633.9190676 1.513468 1.2175006zm-1.38557-1.1100116c-.32774-.4764305-.490945-.9980078-.490945-1.5687154h-.333069c0 .638494.183854 1.2253349.549565 1.7564727zm-.490945-1.5687154c0-.8966934.365045-1.6264103 1.105792-2.2009022l-.204505-.2620501c-.818685.6347097-1.234356 1.4595666-1.234356 2.4629523zm1.106458-2.2011677c.764062-.5958039 1.802574-.9911032 3.126193-1.1755407l-.045964-.3287743c-1.362255.1898817-2.461385.6007168-3.2854 1.242796zm3.126859-1.1755407 3.228112-.4534589-.04663-.3287079-3.228112.4534589zm3.371332-.6177797v-.6262114h-.33307v.6262114zm0-.6262114c0-.7660335-.221825-1.3690741-.690787-1.7768551-.464965-.4039967-1.145094-.5914883-2.010409-.5914883v.3319611c.824015 0 1.41155.179591 1.791249.5097595.375703.3263178.576877.8244586.576877 1.5266228zm-2.701196-2.3683434c-.659478 0-1.214372.1418802-1.653358.438919l.186519.2746646c.369707-.2499667.854657-.3816225 1.466839-.3816225zm-1.650027.4365953c-.423665.2714114-.748075.5998537-.965236.9869867l.290436.1621962c.187186-.3325586.469629-.6231574.854657-.8699372zm-.977893 1.0156018c-.03797.1129332-.081935.1734165-.119239.2035585l.207835.2592617c.106583-.0850485.178526-.2116584.227154-.3578541zm-.133228.2158411c-.015321.0154694-.051959.0377108-.141888.0377108v.3319611c.141222 0 .27778-.0352543.377701-.1349754zm-.141888.0377108h-.931929v.3319611h.931929zm-.931929 0c-.089263 0-.166535-.0282831-.237812-.0895631l-.217161.2520249c.130563.1114725.284441.1694993.454973.1694993zm-.219826-.0715708c-.061951-.0715044-.089929-.1485858-.089929-.2374186h-.333069c0 .1701633.057954.3233965.169865.4534589zm-.090595-.2305138c.012657-.3012879.153212-.6592084.44698-1.077745l-.273117-.1903465c-.31242.4451599-.490279.8645595-.506266 1.2542155zm.446314-1.0768155c.297098-.4176071.756068-.7830963 1.3889-1.0913553l-.14655-.2982339c-.666806.3251227-1.175736.7225466-1.514135 1.1974501zm1.391565-1.0926832c.620176-.316027 1.39423-.4784223 2.328824-.4784223v-.3319612c-.971898 0-1.801242.1687027-2.480704.5148053zm2.328824-.4784223c1.596736 0 2.703193.3770414 3.366002 1.0910897l.244473-.2253352c-.753403-.8118441-1.971772-1.1977157-3.610475-1.1977157zm3.366668 1.0922184c.676132.7147787 1.016529 1.608418 1.016529 2.6931341h.33307c0-1.160868-.367709-2.1384935-1.107124-2.920793zm1.016529 2.6931341v6.9958149h.33307v-6.9958149zm0 6.9958149c0 .1004515-.033307.1804541-.103251.2497012l.235813.2347629c.132562-.1322533.200508-.2969724.200508-.4844641zm-.103251.2497012c-.049961.0497278-.119906.0809321-.228486.0809321v.3319611c.179857 0 .341063-.0551055.464299-.1781303zm-.228486.0809321h-.996545v.3319611h.996545zm-.996545 0c-.108581 0-.191848-.0312707-.26046-.0895631l-.216496.2520249c.133894.1143938.296432.1694993.476956.1694993zm-.241808-.0715708c-.058621-.068052-.089929-.1511087-.089929-.2590625h-.33307c0 .1799894.05529.3416544.169866.4751028zm-.089929-.2590625v-.9284288h-.33307v.9284288zm-.30376-1.0224402c-.299763.4339396-.738749.806068-1.32695 1.1129328l.154545.2940512c.625505-.3264506 1.110454-.7316423 1.446855-1.2189612zm-1.32695 1.1129328c-.575544.3004912-1.318956.4561146-2.240893.4561146v.3319611c.956576 0 1.757942-.1611339 2.395438-.4940245zm-1.78592-.8313634c.978559 0 1.788585-.3167573 2.416088-.9569111l-.238478-.2318416c-.557558.5689813-1.278321.8567916-2.17761.8567916zm2.416088-.9568447c.645489-.659142.957243-1.5916871.957243-2.7718089h-.33307c0 1.1230245-.295766 1.9610271-.862651 2.5398345zm.957243-2.7718089v-.6045676h-.33307v.6045676zm-.191182-.7688219-2.512678.3670826.047962.3284423 2.513344-.3670826zm-2.512012.3669498c-1.035847.145399-1.837213.3949009-2.386778.7603901l.184521.2761917c.489612-.3254547 1.23369-.5653962 2.248886-.7078739zm-2.384113.7585975c-.557559.3549992-.857322.8276455-.857322 1.4138224h.33307c0-.450272.221158-.8268487.703443-1.1340456zm-.857322 1.4138224c0 .6307261.26579 1.1289998.789375 1.4768286l.184521-.276258c-.42966-.285553-.640826-.6797236-.640826-1.2005706zm.79204 1.478754c.507598.3216703 1.102461.4793518 1.779258.4793518v-.3319611c-.62284 0-1.154419-.1446022-1.600067-.4274995zm11.046591.6372325-.118573.116452.001998.0019254zm-1.386903-3.6706268-.165869.0041827v.0019254zm-.021316-.8636964-.166535-.0041163v.008299zm.021316-.86363-.165869-.0061081v.0019253zm1.386903-3.6491158.117906.1173815zm6.282361-.7556763-.076606.147258zm1.603398 1.3818878-.141222.0886336.001998.0025893zm.58487 1.6409501-.166535.0087638.000666.0077679zm-.129897.3455052.108581.1260124zm-1.733295.0431549.103918-.1295976zm-.216495-.3454387-.157209.0555039.00333.008299zm-1.039844-1.468264-.09326.1374319.002665.0020581zm-3.834965.38866-.120571-.114261v.0001328zm-.844665 2.5262905-.166535-.0063073v.0016599zm-.021316.7773202-.166535-.0046475v.0094941zm.021316.7340988-.166535.0048466v.0013942zm.844665 2.5478679-.120571.1141282zm3.834965.3886601.089929.13949.00333-.0020581zm1.039844-1.4898415-.153879-.0639357-.00333.0084982zm.216495-.3455051.103918.1295976c.004663-.0037844.009326-.0079007.013989-.0122162zm1.733295.0432213-.117907.1173151c.003331.003054.005995.0059089.009326.0086973zm.129897.3454387-.165869-.0165316-.000666.0075687zm-.58487 1.6410166-.140556-.0895631-.000666.0009295zm-1.603398 1.3818877-.076606-.1472579-.001332.0005975zm-2.642575.3954321c-1.513469 0-2.680546-.421989-3.523212-1.2479082l-.233149.2366883c.919273.9014072 2.178276 1.343181 3.756361 1.343181zm-3.521214-1.2459828c-.830009-.8410567-1.282318-2.0209129-1.33894-3.5603494l-.332404.0122162c.058621 1.5986583.530914 2.8658867 1.434199 3.7809043zm-1.33894-3.5583576-.021316-.8636964-.33307.008299.021982.8636964zm-.021316-.8553974.021316-.8636964-.332404-.0082991-.021982.8636965zm.021316-.8617711c.056622-1.5395028.508931-2.7114583 1.338274-3.5377759l-.235813-.2346965c-.903951.9010088-1.376244 2.1617971-1.434865 3.7603227zm1.338274-3.5377759c.842667-.8397953 2.009077-1.2684898 3.52188-1.2684898v-.3319612c-1.578751 0-2.838421.449409-3.757693 1.3657545zm3.52188-1.2684898c1.019859 0 1.873184.1836408 2.565969.54269l.153878-.2945159c-.752071-.3895232-1.660686-.5801353-2.719847-.5801353zm2.565969.54269c.702777.3640949 1.211708.8066655 1.538782 1.3232634l.281777-.1772673c-.365711-.5774131-.925268-1.056101-1.666681-1.440512zm1.54078 1.3258527c.347725.5272206.530914 1.0462086.557559 1.558491l.33307-.0174611c-.030643-.5816623-.238478-1.1566853-.612182-1.7234758zm.558225 1.5662589c.009992.0956712-.016653.1554906-.072609.202961l.217162.2520249c.14655-.1252821.206503-.2957773.187185-.4879828zm-.072609.202961c-.067946.0582924-.151214.0895631-.259794.0895631v.3319612c.180523 0 .342395-.0551056.476956-.1694994zm-.259794.0895631h-1.039844v.3319612h1.039844zm-1.039844 0c-.126566 0-.191182-.0259593-.221158-.0499933l-.207836.2592616c.11391.0910902.266456.1226929.428994.1226929zm-.221158-.0499933c-.037304-.0298765-.096591-.1112734-.166535-.2797104l-.307757.1276722c.073942.1771345.159208.3259858.266456.4112998zm-.163204-.2712786c-.2538-.7125878-.618178-1.2381486-1.107124-1.5523166l-.180524.2789801c.407011.2616518.735418.7149115.97323 1.3842115zm-1.103794-1.5502584c-.481618-.3251227-1.079812-.4820076-1.783255-.4820076v.3319611c.654149 0 1.182398.1454654 1.596736.4249103zm-1.783255-.4820076c-.933261 0-1.694659.2942504-2.26554.8938385l.241808.2285221c.497607-.5232372 1.166411-.7903995 2.023732-.7903995zm-2.26554.8939713c-.558891.5879695-.846663 1.4764967-.890629 2.6341114l.33307.0125482c.042633-1.1167836.318415-1.912428.799367-2.4184031zm-.890629 2.6357713-.021316.7773201.332403.0092285.021983-.7773201zm-.021316.7868142.021316.7340988.33307-.0097597-.021983-.7340988zm.021316.735493c.043966 1.1712916.331072 2.0673875.890629 2.6557553l.241808-.2283228c-.480952-.5055768-.756734-1.3080596-.799367-2.4399142zm.890629 2.6557553c.557559.5867081 1.320288.8723275 2.26554.8723275v-.3319612c-.873975 0-1.541447-.2613861-2.023732-.7686891zm2.26554.8723275c.702111 0 1.298972-.1489842 1.779925-.4583056l-.180524-.2789801c-.414339.266432-.94392.4053245-1.599401.4053245zm1.783255-.4603637c.486282-.3282432.849994-.859381 1.103794-1.5719023l-.314418-.1108086c-.237812.6693664-.566885 1.1314563-.975895 1.4078471zm1.100463-1.5634705c.069944-.1683707.129231-.2498339.166535-.2797104l-.207836-.2591952c-.107248.0852476-.192514.2341653-.266456.4112334zm.180524-.2919266c.029976-.0298765.088596-.0593546.207169-.0593546v-.3319611c-.169866 0-.328407.042491-.442983.1565528zm.207169-.0593546h1.039844v-.3319611h-1.039844zm1.039844 0c.100587 0 .18119.0332625.250468.1025096l.235814-.2346965c-.133228-.1322534-.298431-.1997742-.486282-.1997742zm.259794.1112069c.055956.0474705.082601.1072899.072609.2028947l.331738.0330633c.019318-.1922719-.040635-.3627671-.187185-.4880492zm.071943.2104634c-.026645.4976097-.209168 1.0171952-.558891 1.5604164l.280445.1791262c.373038-.5796041.580207-1.1540296.611516-1.7216167zm-.559557 1.5613459c-.327074.5165979-.836005.9591684-1.538782 1.3232634l.153878.2945159c.741413-.384411 1.30097-.8630989 1.666681-1.4405121zm-1.540114 1.3238609c-.677464.3581861-1.529457.5420925-2.564637.5420925v.3319611c1.07315 0 1.982431-.1904129 2.720513-.5807991zm4.990716.3625679-.126566.1080202c.005329.00644.011324.0124817.017986.0179923zm0-15.0496562.117907.1173814zm1.797911 0-.126567.1080201c.005996.0064401.011991.0124818.017986.0179923zm.15188 5.3764422h-.166535c0 .0707741.044631.1337803.111911.1568848s.141888.0011951.185853-.054508zm1.472834-1.2092016.073275.1492497.002665-.001527zm5.329782.9069178-.126567.1078209.001999.002191zm1.017861 9.9754978-.117907-.1173814zm-1.79791 0-.126567.1080202c.005329.00644.011991.0124817.017986.0179923zm-.887964-8.7232077-.125901.1090824.001333.0017926zm-4.333238.0216439-.120571-.1143275v.0000664zm-.953245 8.7015638-.117907-.1173814zm-1.429535-.0364493c-.108581 0-.191849-.0312707-.259795-.0895631l-.217161.2520249c.133894.1143938.296432.1694993.476956.1694993zm-.241809-.0715708c-.05862-.068052-.089929-.1511087-.089929-.2590625h-.33307c0 .1799894.05529.3416544.169866.4751028zm-.089929-.2590625v-14.3370685h-.33307v14.3370685zm0-14.3370685c0-.1084185.031309-.1783959.081269-.2281237l-.235813-.2347629c-.123236.1230248-.178526.283362-.178526.4628866zm.081269-.2281237c.069279-.0693135.149215-.1025096.250469-.1025096v-.3319611c-.188518 0-.35372.0674545-.486282.1997078zm.250469-.1025096h1.083142v-.3319611h-1.083142zm1.083142 0c.100587 0 .167867.0325322.219826.0931483l.253133-.2160403c-.121237-.1409507-.284441-.2090691-.472959-.2090691zm.237812.1111406c.061285.0519187.093926.1193068.093926.2194927h.33307c0-.1877572-.068613-.3507501-.209834-.4715176zm.093926.2194927v5.0309371h.33307v-5.0309371zm.297764 5.1333139c.404347-.5144734.875974-.9007433 1.41488-1.1623287l-.145884-.298433c-.588201.2854202-1.098464.7052846-1.531455 1.2560081zm1.417545-1.1638557c.533578-.2726065 1.206378-.4135571 2.02573-.4135571v-.3319612c-.855989 0-1.58408.1469924-2.17761.4501393zm2.02573-.4135571c1.3476 0 2.373455.4316158 3.101545 1.2805731l.253133-.2157083c-.802698-.9359975-1.92914-1.396826-3.354678-1.396826zm3.103544 1.2827641c.746076.8405919 1.127774 1.9711187 1.127774 3.4094398h.33307c0-1.4982069-.398352-2.7139813-1.211708-3.6294636zm1.127774 3.4094398v6.0889635h.33307v-6.0889635zm0 6.0889635c0 .1004515-.033307.1804541-.103252.2497012l.235814.2347629c.132561-.1322533.200508-.2969724.200508-.4844641zm-.103252.2497012c-.049294.0497278-.119905.0809321-.228486.0809321v.3319611c.179858 0 .341064-.0551055.4643-.1781303zm-.228486.0809321h-1.083142v.3319611h1.083142zm-1.083142 0c-.108581 0-.191848-.0312707-.259795-.0895631l-.217161.2520249c.133894.1143938.296432.1694993.476956.1694993zm-.241809-.0715708c-.05862-.068052-.089929-.1511087-.089929-.2590625h-.33307c0 .1799894.05529.3416544.169866.4751028zm-.089929-.2590625v-5.9809433h-.33307v5.9809433zm0-5.9809433c0-1.0482668-.259794-1.8847425-.800699-2.4859904l-.24847.2216836c.469628.5215773.716099 1.2684898.716099 2.2643068zm-.799367-2.4841978c-.530247-.606493-1.296974-.8990171-2.270203-.8990171v.3319611c.903951 0 1.567426.2688221 2.019068.7851544zm-2.270203-.8990171c-.948583 0-1.723969.3017526-2.30884.9153495l.241143.2285885c.512927-.5379762 1.196386-.8119769 2.067697-.8119769zm-2.30884.9154159c-.572214.6006505-.847329 1.4308852-.847329 2.467799h.33307c0-.9784222.258462-1.7172349.756068-2.2393433zm-.847329 2.467799v5.9809433h.33307v-5.9809433zm0 5.9809433c0 .1004515-.033307.1804541-.103252.2497012l.235814.2347629c.132561-.1322533.200508-.2969724.200508-.4844641zm-.103252.2497012c-.04996.0497278-.119905.0809321-.228486.0809321v.3319611c.179858 0 .341064-.0551055.4643-.1781303zm-.228486.0809321h-1.083142v.3319611h1.083142zm12.530084-.9783558-.120572.1145266.001999.001859zm-1.451518-3.7570031-.166535.0048467v.0041827zm-.021983-.7341652-.166535-.0050458v.0099588zm.021983-.7125213-.166535-.0107556v.0057098zm1.472834-3.7138482-.119239-.1154561-.001332.0009295zm7.25759.1511751-.126567.1081529.001332.0008631zm1.16974 4.8366071.117907.1173814zm-7.842459.1295312v-.1659806c-.091928 0-.166535.0742929-.166535.1659806zm0 .19433h-.166535l.000666.0076351zm.845331 2.3966929-.13123.1023768.002665.003054zm3.725718.5829901.08793.1410834.001332-.000863zm.953245-.8420526-.133228-.0996547-.002664.0044483zm.281777-.3022838.074608.148453c.003997-.0019253.007327-.0039835.011324-.0061744zm1.754611.043155-.106582.1275394zm-.476289 1.4466865-.123902-.1112734-.001999.0022574zm-1.668013 1.1659802.067946.1513743.001332-.0005975zm.519588-6.1753398v.1659806c.091928 0 .166535-.0742929.166535-.1659806zm-.823348-2.4830691-.127233.1068251.002665.003054zm-4.332571 0-.127233-.1068251-.000666.0002656zm-.780049 2.4830691h-.166535c0 .0916877.074607.1659806.166535.1659806zm2.968317 6.4843956c-1.450852 0-2.597278-.4408443-3.455932-1.3107816l-.237145.2328375c.931929.9438318 2.16895 1.4099052 3.693077 1.4099052zm-3.453933-1.3088563c-.84733-.886137-1.320955-2.0975959-1.406221-3.6515722l-.332403.0181251c.088596 1.6127998.582872 2.9060539 1.497481 3.8625003zm-1.405554-3.6473895-.021983-.7340988-.33307.0097596.021983.7340989zm-.021983-.7242064.021983-.7125213-.33307-.0100916-.021983.7125213zm.021316-.7068116c.099255-1.5248302.579542-2.7229442 1.427537-3.6100771l-.241142-.2290532c-.913277.9553841-1.415546 2.2331688-1.518798 3.8176192zm1.426871-3.6090812c.85932-.88461 1.991091-1.3314296 3.4113-1.3314296v-.3319612c-1.496815 0-2.719847.4744389-3.650444 1.4324122zm3.4113-1.3314296c1.564762 0 2.756486.496813 3.599818 1.4752351l.253133-.2163722c-.918606-1.0655952-2.210917-1.5908241-3.852951-1.5908241zm3.60115 1.4760982c.84733.9694593 1.28032 2.2941833 1.28032 3.9934259h.33307c0-1.7554104-.448312-3.165714-1.362255-4.2115243zm1.28032 3.9934259v.3670826h.33307v-.3670826zm0 .3670826c0 .1004514-.033307.1803876-.103251.2497011l.235813.2347629c.132562-.1322533.200508-.2969724.200508-.484464zm-.103251.2497011c-.049295.0497278-.119905.0809321-.228486.0809321v.3319611c.179858 0 .341063-.0551719.464299-.1781303zm-.228486.0809321h-7.496067v.3319611h7.496067zm-7.662602.1659806v.19433h.333069v-.19433zm.000666.2019651c.044631.9660069.3364 1.7990301.87997 2.4913682l.262459-.2045545c-.496274-.6319875-.768059-1.3967595-.810026-2.3020839zm.882635 2.4944886c.566884.6874251 1.314959 1.0321999 2.229568 1.0321999v-.3319611c-.818019 0-1.470836-.3029477-1.972439-.9110341zm2.229568 1.0321999c.685458 0 1.25967-.1334484 1.712645-.4136235l-.175195-.2820342c-.385028.2380825-.893293.3636966-1.53745.3636966zm1.713977-.4144202c.444315-.280308.781382-.5750231 1.000542-.8871329l-.272451-.1903465c-.185187.2637099-.483618.5304074-.90595.7970386zm.997211-.8826847c.063283-.0840525.115242-.1473243.157209-.1918071.02065-.022175.037304-.0381091.04996-.0489974.013323-.0115523.018652-.013876.015988-.0126146l-.149215-.296906c-.057288.0286815-.112578.0804674-.161206.1326517-.052625.0563006-.111912.1297968-.179192.2184968zm.234481-.2595935c.030643-.0183243.11391-.0410968.282443-.0410968v-.3319611c-.177859 0-.340397.0204488-.453641.0884344zm.282443-.0410968h1.061827v-.3319611h-1.061827zm1.061827 0c.097256 0 .165868.0260921.217827.0695126l.213831-.2550125c-.121237-.1005842-.26912-.1464612-.431658-.1464612zm.217827.0695126c.042633.0353871.070611.0861107.070611.1747444h.33307c0-.1704289-.059287-.321272-.18985-.4297569zm.070611.1747444c0 .2518257-.165203.5933473-.56422 1.0331293l.247804.2225468c.409675-.4527286.649486-.87412.649486-1.2556761zm-.566219 1.0353867c-.369707.4235824-.903951.7997607-1.612057 1.1241531l.139223.3016199c.73675-.3377373 1.314293-.7388791 1.724635-1.207741zm-1.610725 1.1235556c-.682127.3054042-1.474166.4604964-2.37945.4604964v.3319611c.943254 0 1.783255-.161665 2.516009-.4896426zm.754736-6.0238992v-.0647988h-.33307v.0647988zm0-.0647988c0-1.0250959-.283775-1.872991-.864649-2.5282159l-.249802.2198247c.516924.5827909.781381 1.3470318.781381 2.3083912zm-.861984-2.5250954c-.56955-.6747442-1.340273-1.0092282-2.294185-1.0092282v.3319611c.865982 0 1.539449.2988978 2.039053.8909173zm-2.294185-1.0092282c-.953245 0-1.724635.334484-2.293518 1.0092282l.254466.2136502c.499604-.5920195 1.173071-.8909173 2.039052-.8909173zm-2.294184 1.0094938c-.550231.6552248-.818685 1.5019248-.818685 2.5248298h.333069c0-.9635503.251801-1.7290527.741414-2.3117108zm-.818685 2.5248298v.0647988h.333069v-.0647988zm.166535.2307794h5.935968v-.3319612h-5.935968zm-71.306233 56.9790006c-.293768 0-.550231-.1102111-.770724-.3293054-.219826-.2197583-.330405-.4753683-.330405-.768158s.018652-.4932942.05529-.6035053l13.649864-35.4912906c.293101-.8045409.880636-1.2068114 1.761272-1.2068114h3.742372c.880636 0 1.467505.4022705 1.761273 1.2068114l13.594574 35.4912906.109913.6035053c0 .2927897-.109913.5483997-.330405.768158-.219826.2190943-.476956.3293054-.770058.3293054h-2.807111c-.403681 0-.715434-.0916213-.935926-.2741999-.219826-.2197582-.367043-.4388526-.440318-.6586108l-3.026938-7.7891356h-18.05238l-3.027604 7.7891356c-.073275.2197582-.238478.4388526-.494941.6586108-.220492.1825786-.51426.2741999-.880637.2741999zm23.666603-13.4397776-7.43012-19.4737685-7.43012 19.4737685zm15.902081-20.4063136c-.367043 0-.678796-.10968-.935926-.3291063-.220492-.2560084-.330405-.5668568-.330405-.9325451v-2.9622219c0-.3656883.109913-.6765367.330405-.9325451.25713-.255942.568883-.3839462.935926-.3839462h3.467256c.367043 0 .678796.1280042.93526.3839462.257129.2560084.385694.5668568.385694.9325451v2.9622219c0 .3656883-.128565.6765367-.385694.9325451-.256464.2194263-.568217.3291063-.93526.3291063zm.440318 33.8460912c-.367043 0-.678796-.1102111-.935926-.3293054-.220492-.256274-.330405-.5669896-.330405-.9328107v-26.001319c0-.3656884.109913-.6582789.330405-.8776388.25713-.2560084.568883-.3840126.935926-.3840126h2.641243c.367043 0 .66081.1280042.880636.3840126.25713.2193599.385695.5119504.385695.8776388v26.001319c0 .3658211-.128565.6765367-.385695.9328107-.219826.2190943-.513593.3293054-.880636.3293054zm13.329451 0c-.367043 0-.678796-.1102111-.935926-.3293054-.219826-.256274-.329739-.5669896-.329739-.9328107v-25.9464127c0-.3657547.109913-.6766031.329739-.9325451.25713-.2560084.568883-.3840126.935926-.3840126h2.531996c.366377 0 .678796.1280042.93526.3840126.25713.255942.385694.5667904.385694.9325451v2.4136229c1.504143-2.4867871 4.072777-3.7301806 7.705236-3.7301806h2.146301c.367043 0 .66081.1280042.880636.3840126.25713.2193599.385029.5119504.385029.8776388v2.2491029c0 .3656884-.127899.6582789-.385029.8777052-.219826.2194263-.513593.3291062-.880636.3291062h-3.302053c-1.981765 0-3.541198.5851147-4.678298 1.755344-1.137766 1.1339792-1.706649 2.6882211-1.706649 4.6627258v16.1273349c0 .3658211-.127899.6765367-.385029.9328107-.25713.2190943-.568883.3293054-.935926.3293054zm23.769854 0c-.366376 0-.678796-.1102111-.93526-.3293054-.220492-.256274-.330405-.5669896-.330405-.9328107v-22.8745109h-4.678297c-.367043 0-.678796-.1097464-.93526-.3291727-.220492-.2560084-.330405-.5668567-.330405-.9325451v-1.8650903c0-.3656884.109913-.6582789.330405-.8776388.256464-.2560084.568217-.3840126.93526-.3840126h4.678297v-2.7427956c0-6.2169013 3.155503-9.3253852 9.466508-9.3253852h3.082228c.367042 0 .66081.1280042.880636.3839463.25713.2194262.385695.5120168.385695.8777051v1.8650904c0 .3656883-.128565.6765367-.385695.9325451-.219826.2194263-.513594.3291063-.880636.3291063h-2.971649c-1.651359 0-2.807111.4388526-3.467922 1.3165577-.660144.8411231-.990549 2.1393566-.990549 3.8947006v2.4685293h11.778012v-10.8065294c0-.3656883.110579-.6582789.330405-.8777051.25713-.2559421.568883-.3839463.935926-.3839463h2.53133c.367043 0 .66081.1280042.880636.3839463.25713.2194262.385695.5120168.385695.8777051v38.0694998c0 .3658211-.128565.6765367-.385695.9328107-.219826.2190943-.513593.3293054-.880636.3293054h-2.53133c-.367043 0-.678796-.1102111-.935926-.3293054-.219826-.256274-.330405-.5669896-.330405-.9328107v-22.8745109h-11.778012v22.8745109c0 .3658211-.128565.6765367-.385029.9328107-.220492.2190943-.513593.3293054-.880636.3293054zm40.597204.5483998c-4.036139 0-7.17299-1.1339792-9.411219-3.4012736-2.20159-2.2672944-3.375994-5.284157-3.522545-9.0512517l-.05529-2.3582518.05529-2.3589157c.146551-3.730579 1.33894-6.7291173 3.577169-8.9964781 2.238229-2.3039429 5.357093-3.455848 9.356595-3.455848 3.999501 0 7.118366 1.1519051 9.356595 3.455848 2.238228 2.2673608 3.430618 5.2658991 3.577835 8.9964781.036637.4023369.054623 1.1884208.054623 2.3589157 0 1.169831-.017986 1.9559149-.054623 2.3582518-.147217 3.7670947-1.339607 6.7839573-3.577835 9.0512517-2.201591 2.2672944-5.320456 3.4012736-9.356595 3.4012736zm0-4.2238732c2.311504 0 4.128066-.7316423 5.449021-2.194263 1.357592-1.4626207 2.091678-3.5659263 2.201591-6.308589.036637-.3658212.054623-1.0602838.054623-2.0840519 0-1.024432-.017986-1.7188946-.054623-2.0847158-.109913-2.7426627-.843999-4.8459683-2.201591-6.3084562-1.320955-1.4628198-3.137517-2.1941966-5.449021-2.1941966s-4.146052.7313768-5.503644 2.1941966c-1.357593 1.4624879-2.073026 3.5657935-2.146302 6.3084562l-.055289 2.0847158.055289 2.0840519c.073276 2.7426627.788709 4.8459683 2.146302 6.308589 1.357592 1.4626207 3.19214 2.194263 5.503644 2.194263zm26.724183 3.6754734c-.476956 0-.843999-.1102111-1.101129-.3293054-.256463-.2197583-.476956-.5669896-.660144-1.0423579l-7.815814-25.4529192-.109913-.5485326c0-.3291726.109913-.6034389.330405-.8228652.256464-.2194263.531579-.3291062.825347-.3291062h2.421417c.367043 0 .66081.1096799.880636.3291062.25713.1828442.422332.3840126.495608.6034389l6.109165 20.6804471 6.549483-20.4610208c.073942-.2925905.238478-.5485989.495608-.7679588.25713-.2560084.605521-.3840126 1.045839-.3840126h1.871186c.440318 0 .788709.1280042 1.045839.3840126.257129.2193599.421666.4753683.495607.7679588l6.549483 20.4610208 6.109166-20.6804471c.036637-.1828442.165202-.3840126.385028-.6034389.25713-.2194263.568883-.3291062.935926-.3291062h2.476707c.293767 0 .550231.1096799.770723.3291062.219826.2194263.329739.4936926.329739.8228652l-.109913.5485326-7.760525 25.4529192c-.183188.4753683-.40368.8225996-.660144 1.0423579-.25713.2190943-.642158.3293054-1.155752.3293054h-2.146967c-.99055 0-1.596071-.4574424-1.815897-1.3716633l-6.384946-19.6381556-6.384281 19.6381556c-.293101.9142209-.917274 1.3716633-1.871186 1.3716633z" fill="#51504f"/></g></g></svg>
