<svg height="26" viewBox="0 0 25 26" width="25" xmlns="http://www.w3.org/2000/svg"><path d="m16.7949861 24v-4.4173067c.0862221-1.1009426-.3002905-2.185341-1.0599364-2.9794635 3.5425366-.3985653 7.2649503-1.7566954 7.2649503-7.98935415 0-1.59426118-.6065275-3.12535351-1.6917359-4.28044085.5143591-1.39422652.4771944-2.93434297-.1025745-4.30300115 0 0-1.3304953-.3985653-4.4107035 1.68901443-2.5851746-.70839341-5.3115751-.70839341-7.89674973 0-3.08020812-2.08757973-4.41219002-1.68901443-4.41219002-1.68901443-.57828231 1.36865818-.61544699 2.90877463-.10108791 4.30300115-1.09412798 1.16260744-1.70065545 2.70873997-1.69183292 4.31503331 0 6.18603419 3.72251067 7.54416419 7.26504733 7.98935409-.7507264.7850984-1.13575242 1.8559607-1.05993648 2.9448711v4.4173067m0-3.4246535c-5.64159741 1.7130788-5.64159741-2.8531259-7.89823637-3.4231494" fill="none" stroke="#9ba0a8" stroke-linecap="round" stroke-linejoin="round" stroke-width="1.92" transform="translate(.33 1)"/></svg>