<svg height="26" viewBox="0 0 27 26" width="27" xmlns="http://www.w3.org/2000/svg"><path d="m7.79946476 3.60074926h1.80053524v-1.80037463c0-.99545089-.80499554-1.80037463-1.80053524-1.80037463-.99553969 0-1.80053523.80492374-1.80053523 1.80037463 0 .9954509.80499554 1.80037463 1.80053523 1.80037463m1.80053524 5.39898315c0-.9954509-.80499554-1.79823388-1.80053524-1.79823388h-6.00107047c-.9955397 0-1.79839429.80278298-1.79839429 1.79823388 0 .99759165.80285459 1.80037459 1.79839429 1.80037459h6.00107047c.9955397 0 1.80053524-.80278294 1.80053524-1.80037459m6.6005352 11.39951829h-1.8005352v1.8003747c0 .9975916.8028546 1.8003746 1.8005352 1.8003746.9955397 0 1.8005353-.802783 1.8005353-1.8003746 0-.9954509-.8049956-1.8003747-1.8005353-1.8003747m-1.8005352-5.3989831c0-.9954509.8028546-1.8003746 1.8005352-1.8003746h5.9989296c.9976806 0 1.8005352.8049237 1.8005352 1.8003746s-.8028546 1.8003746-1.8005352 1.8003746h-5.9989296c-.9976806 0-1.8005352-.8049237-1.8005352-1.8003746m-12.60160571-.5994113h1.80053524v1.8003746c0 .9954509-.8028546 1.7982339-1.80053524 1.7982339-.9955397 0-1.79839429-.802783-1.79839429-1.7982339 0-.9975916.80285459-1.8003746 1.79839429-1.8003746m7.20214095 0c.99553969 0 1.79839426.802783 1.79839426 1.8003746v5.9983945c0 .9975916-.80285457 1.8003746-1.79839426 1.8003746-.99768065 0-1.80053524-.802783-1.80053524-1.8003746v-5.9983945c0-.9975916.80285459-1.8003746 1.80053524-1.8003746m13.19892956-4.79957185h-1.7983943v-1.80037463c0-.9954509.8028546-1.80037463 1.7983943-1.80037463.9976806 0 1.8005352.80492373 1.8005352 1.80037463s-.8028546 1.80037463-1.8005352 1.80037463m-7.2 0c-.9955397 0-1.8005353-.80492373-1.8005353-1.80037463v-6.00053519c0-.99545089.8049956-1.80037463 1.8005353-1.80037463s1.8005352.80492374 1.8005352 1.80037463v6.00053519c0 .9954509-.8049955 1.80037463-1.8005352 1.80037463" fill="none" stroke="#9ba0a8" stroke-width="1.5" transform="translate(1.5 1)"/></svg>